<?xml version="1.0" encoding="UTF-8" standalone="no"?><!DOCTYPE svg PUBLIC "-//W3C//DTD SVG 1.1//EN" "http://www.w3.org/Graphics/SVG/1.1/DTD/svg11.dtd"><svg width="100%" height="100%" viewBox="0 0 2000 4750" version="1.1" xmlns="http://www.w3.org/2000/svg" xmlns:xlink="http://www.w3.org/1999/xlink" xml:space="preserve" xmlns:serif="http://www.serif.com/" style="fill-rule:evenodd;clip-rule:evenodd;stroke-linecap:round;stroke-linejoin:round;stroke-miterlimit:1.5;"><path d="M917.65,2050.04c-0.684,-0.502 -1.372,-0.99 -2.056,-1.459c-17.619,-12.053 -44.552,-26.53 -82.369,-44.419c-14.785,-6.994 -21.441,-24.39 -15.101,-39.466c6.34,-15.077 23.428,-22.488 38.767,-16.813c242.64,89.758 616.312,-2.854 796.695,-116.697c-10.126,-339.884 -349.563,-751.879 -780.434,-553.319c-7.749,3.571 -16.638,3.74 -24.517,0.465c-7.878,-3.275 -14.029,-9.695 -16.963,-17.707c-65.558,-178.995 -190.909,-308.882 -293.833,-401.288c-72.336,-64.944 -134.094,-112.479 -160.399,-145.444c-20.455,-25.636 -23.122,-48.269 -16.136,-64.883l4.739,-8.636l6.043,-7.215c5.105,-5.085 12.073,-9.951 21.457,-14.017c14.666,-6.356 37.68,-11.365 70.763,-14.165c118.975,-31.384 199.988,-121.46 283.414,-201.343c84.122,-80.552 170.534,-151.336 289.338,-160.713c78.94,-6.231 172.906,14.481 290.784,80.316l-29.798,53.354c-104.059,-58.117 -186.492,-78.249 -256.177,-72.748c-104.134,8.219 -178.148,73.325 -251.882,143.929c-91.4,87.52 -182.057,183.543 -312.975,217.044c-1.688,0.432 -3.41,0.718 -5.147,0.857c-17.916,1.428 -32.193,3.38 -43.184,6.088c-1.342,0.331 -2.74,0.747 -4.108,1.198c7.772,9.344 22.092,25.822 36.91,39.119c99.991,89.736 312.126,245.994 415.841,497.391c470.243,-191.067 838.191,266.668 837.607,638.157c-0.015,10.136 -5.057,19.605 -13.458,25.276c-153.442,103.594 -460.785,192.936 -712.989,166.419l2.447,8.436l0.62,10.316l-1.461,8.731l-3.122,8.002l-9.099,12.236c-9.053,8.845 -26.706,17.459 -52.126,23.554c-75.163,18.024 -237.216,25.16 -369.27,75.755c-72.158,27.647 -135.507,68.2 -165.082,134.635c-19.61,44.05 -23.89,99.044 -7.76,168.006c1.172,5.011 1.059,10.237 -0.328,15.193c-3.301,11.795 4.554,19.466 16.305,26.44c14.938,8.866 35.439,15.641 60.05,21.291c163.373,37.507 490.161,18.936 701.718,23.946c56.58,1.339 105.23,4.355 141.036,10.251c28.409,4.679 49.771,11.731 62.849,20.045c3.951,2.511 7.356,5.186 10.254,7.953l8.976,11.176l4.326,9.503l2.128,10.562c1.274,15.518 -6.153,37.191 -33.935,59.956c-67.357,55.191 -288.281,150.352 -758.306,309.887c28.637,10.993 66.795,23.559 109.955,37.662c140.204,45.816 331.012,107.736 429.94,181.723c47.828,35.77 75.061,75.873 76.161,116.397c0.714,26.284 -8.733,53.901 -33.096,81.912c-29.387,33.786 -83.272,69.932 -169.722,106.633c-0.957,0.407 -1.935,0.764 -2.929,1.071c-166.182,51.286 -293.168,103.104 -382.973,161.016c-83.574,53.894 -133.861,112.202 -150.553,181.548c-13.422,55.756 -5.1,117.86 22.224,188.931c182.781,35.087 314.763,56.769 408.478,88.464c79.248,26.801 132.809,61.265 168.314,113.356c34.683,50.883 52.256,119.668 56.484,218.662l-61.056,2.608c-3.602,-84.342 -16.375,-143.499 -45.924,-186.851c-28.727,-42.146 -73.277,-68.201 -137.396,-89.885c-94.66,-32.014 -229.197,-53.243 -416.87,-89.506c-10.076,-1.947 -18.501,-8.822 -22.431,-18.302c-37.98,-91.634 -48.237,-171.158 -31.237,-241.778c19.9,-82.675 77.211,-154.353 176.848,-218.606c93.131,-60.057 224.464,-114.393 396.58,-167.592c62.224,-26.521 105.53,-51.835 132.953,-76.631c20.868,-18.868 31.692,-35.946 31.218,-53.391c-0.683,-25.141 -22.001,-46.926 -51.674,-69.118c-94.733,-70.85 -278.06,-128.699 -412.321,-172.572c-58.936,-19.259 -108.852,-35.891 -139.198,-49.533c-16.981,-7.634 -28.908,-15.167 -35.396,-21.389l-8.073,-10.066l-4.31,-10.657l-0.832,-11.533l3.032,-11.523l4.414,-7.358l7.502,-7.469l7.262,-4.629c2.89,-1.523 6.371,-3.031 10.509,-4.425c392.972,-132.359 618.073,-220.258 727.248,-278.786c22.88,-12.267 40.347,-23.059 52.854,-32.692c2.975,-2.291 5.918,-5.002 8.45,-7.513c-7.97,-2.823 -18.359,-4.936 -30.657,-6.961c-33.649,-5.541 -79.382,-8.197 -132.553,-9.457c-215.255,-5.097 -547.716,12.685 -713.945,-25.477c-40.876,-9.385 -72.654,-22.566 -92.808,-38.807c-25.629,-20.652 -36.566,-46.083 -30.648,-76.82c-19.201,-87.776 -9.213,-156.779 18.652,-211.502c28.711,-56.386 76.882,-98.056 135.091,-128.812c108.002,-57.065 251.45,-76.013 354.208,-90.631c36.173,-5.146 66.735,-9.11 87.173,-14.866Z" style="fill:#4b5d40;stroke:#383232;stroke-width:8.33px;"/><g id="_2014" serif:id="2014"><circle id="_2014-circle" serif:id="2014 circle" cx="1100.46" cy="4428.05" r="139.636" style="fill:#e95050;stroke:#363333;stroke-width:8.33px;"/><g transform="matrix(87.5,0,0,87.5,1200.69,4459.33)"></g><text x="1001.71px" y="4459.33px" style="font-family:'Graphik-Regular', 'Graphik';font-size:87.5px;fill:#fff;">2<tspan x="1050.8px 1111.44px 1145.65px " y="4459.33px 4459.33px 4459.33px ">014</tspan></text></g><g id="_2015" serif:id="2015"><circle id="_2015-circle" serif:id="2015 circle" cx="463.035" cy="4037.93" r="139.636" style="fill:#e95050;stroke:#363333;stroke-width:8.33px;"/><g transform="matrix(87.5,0,0,87.5,563.923,4069.21)"></g><text x="365.823px" y="4069.21px" style="font-family:'Graphik-Regular', 'Graphik';font-size:87.5px;fill:#fff;">2<tspan x="414.91px " y="4069.21px ">0</tspan>15</text></g><g id="_2016" serif:id="2016"><circle id="_2016-circle" serif:id="2016 circle" cx="1169.26" cy="3345.99" r="139.636" style="fill:#7d2727;stroke:#363333;stroke-width:8.33px;"/><g transform="matrix(87.5,0,0,87.5,1271.29,3377.27)"></g><text x="1070.38px" y="3377.27px" style="font-family:'Graphik-Regular', 'Graphik';font-size:87.5px;fill:#fff;">2<tspan x="1119.47px " y="3377.27px ">0</tspan>16</text></g><g id="_2017" serif:id="2017"><circle id="_2017-circle" serif:id="2017 circle" cx="615.119" cy="3002.14" r="139.636" style="fill:#7d2727;stroke:#363333;stroke-width:8.33px;"/><g transform="matrix(87.5,0,0,87.5,711.587,3033.42)"></g><text x="518.912px" y="3033.42px" style="font-family:'Graphik-Regular', 'Graphik';font-size:87.5px;fill:#fff;">2<tspan x="568px " y="3033.42px ">0</tspan>17</text></g><g id="_2018" serif:id="2018"><circle id="_2018-circle" serif:id="2018 circle" cx="1325.61" cy="2656.32" r="139.636" style="fill:#7d2727;stroke:#363333;stroke-width:8.33px;"/><g transform="matrix(87.5,0,0,87.5,1427.2,2687.6)"></g><text x="1227.35px" y="2687.6px" style="font-family:'Graphik-Regular', 'Graphik';font-size:87.5px;fill:#fff;">2<tspan x="1276.44px " y="2687.6px ">0</tspan>18</text></g><g id="_2019" serif:id="2019"><circle id="_2019-circle" serif:id="2019 circle" cx="375.535" cy="2489.6" r="139.636" style="fill:#7d2727;stroke:#363333;stroke-width:8.33px;"/><g transform="matrix(87.5,0,0,87.5,477.429,2520.88)"></g><text x="277.317px" y="2520.88px" style="font-family:'Graphik-Regular', 'Graphik';font-size:87.5px;fill:#fff;">2<tspan x="326.404px 387.042px 422.129px " y="2520.88px 2520.88px 2520.88px ">019</tspan></text></g><g id="_2020" serif:id="2020"><circle id="_2020-circle" serif:id="2020 circle" cx="910.82" cy="2035.69" r="139.636" style="fill:#7d2727;stroke:#363333;stroke-width:8.33px;"/><g transform="matrix(87.5,0,0,87.5,1022.34,2066.97)"></g><text x="802.889px" y="2066.97px" style="font-family:'Graphik-Regular', 'Graphik';font-size:87.5px;fill:#fff;">2<tspan x="851.977px 912.614px 961.702px " y="2066.97px 2066.97px 2066.97px ">020</tspan></text></g><g id="_2021" serif:id="2021"><circle id="_2021-circle" serif:id="2021 circle" cx="1698.26" cy="1802.3" r="139.636" style="fill:#e95050;stroke:#363333;stroke-width:8.33px;"/><g transform="matrix(87.5,0,0,87.5,1800.24,1833.58)"></g><text x="1605.03px" y="1833.58px" style="font-family:'Graphik-Regular', 'Graphik';font-size:87.5px;fill:#fff;">2<tspan x="1654.12px " y="1833.58px ">0</tspan>21</text></g><g id="_2022" serif:id="2022"><circle id="_2022-circle" serif:id="2022 circle" cx="891.614" cy="1208.45" r="139.636" style="fill:#ff9a9a;stroke:#363333;stroke-width:8.33px;"/><g transform="matrix(87.5,0,0,87.5,997.62,1239.73)"></g><text x="788.845px" y="1239.73px" style="font-family:'Graphik-Regular', 'Graphik';font-size:87.5px;fill:#fff;">2<tspan x="837.932px " y="1239.73px ">0</tspan>22</text></g><g id="_2023" serif:id="2023"><circle id="_2023-circle" serif:id="2023 circle" cx="433.869" cy="667.28" r="139.636" style="fill:#e95050;stroke:#363333;stroke-width:8.33px;"/><g transform="matrix(87.5,0,0,87.5,537.526,698.561)"></g><text x="324.376px" y="698.561px" style="font-family:'Graphik-Regular', 'Graphik';font-size:87.5px;fill:#fff;">2<tspan x="373.464px " y="698.561px ">0</tspan>23</text></g><g id="_2024" serif:id="2024"><circle id="_2024-circle" serif:id="2024 circle" cx="1329.73" cy="333.84" r="139.636" style="fill:#e95050;stroke:#363333;stroke-width:8.33px;"/><g transform="matrix(87.5,0,0,87.5,1436.09,365.121)"></g><text x="1224.86px" y="365.121px" style="font-family:'Graphik-Regular', 'Graphik';font-size:87.5px;fill:#fff;">2<tspan x="1273.95px 1334.59px 1381.05px " y="365.121px 365.121px 365.121px ">024</tspan></text></g></svg>