<?xml version="1.0" encoding="UTF-8" standalone="no"?>
<!DOCTYPE svg PUBLIC "-//W3C//DTD SVG 1.1//EN" "http://www.w3.org/Graphics/SVG/1.1/DTD/svg11.dtd">
<svg width="100%" height="100%" viewBox="0 0 960 1280" version="1.1"
    xmlns="http://www.w3.org/2000/svg" xmlns:xlink="http://www.w3.org/1999/xlink"
    xml:space="preserve" xmlns:serif="http://www.serif.com/"
    style="fill-rule:evenodd;clip-rule:evenodd;stroke-linecap:round;stroke-linejoin:round;stroke-miterlimit:1.5;"><path d="M482.219,1164.39l0,-1074" style="fill:none;stroke:#363333;stroke-width:10.3px;"/><g id="_2020" serif:id="2020"><circle id="_2020-circle" serif:id="2020 circle" cx="482.219" cy="1118.96" r="67.026" style="fill:#363333;stroke:#363333;stroke-width:10.3px;"/><path d="M431.462,1133.14l11.928,-12.558c1.372,-1.456 2.436,-2.884 3.192,-4.284c0.756,-1.4 1.134,-2.87 1.134,-4.41c0,-1.68 -0.476,-2.996 -1.428,-3.948c-0.924,-0.952 -2.24,-1.428 -3.948,-1.428c-1.764,0 -3.192,0.518 -4.284,1.554c-1.064,1.036 -1.75,2.744 -2.058,5.124l-3.402,0c0.112,-1.456 0.406,-2.772 0.882,-3.948c0.504,-1.204 1.176,-2.226 2.016,-3.066c0.84,-0.84 1.834,-1.484 2.982,-1.932c1.148,-0.448 2.436,-0.672 3.864,-0.672c1.372,0 2.618,0.196 3.738,0.588c1.12,0.392 2.072,0.966 2.856,1.722c0.812,0.728 1.428,1.61 1.848,2.646c0.42,1.036 0.63,2.198 0.63,3.486c0,1.848 -0.546,3.682 -1.638,5.502c-1.092,1.792 -2.562,3.598 -4.41,5.418l-8.274,8.064l14.49,0l0,2.982l-20.118,0l0,-0.84Z" style="fill:#fff;fill-rule:nonzero;"/><path d="M468.674,1131.33c2.632,0 4.606,-0.98 5.922,-2.94c1.344,-1.96 2.016,-4.858 2.016,-8.694l0,-1.68c0,-1.736 -0.182,-3.304 -0.546,-4.704c-0.364,-1.428 -0.896,-2.646 -1.596,-3.654c-0.672,-1.008 -1.512,-1.778 -2.52,-2.31c-0.98,-0.56 -2.1,-0.84 -3.36,-0.84c-2.548,0 -4.536,1.008 -5.964,3.024c-1.428,1.988 -2.142,4.844 -2.142,8.568l0,1.68c0,3.808 0.742,6.692 2.226,8.652c1.484,1.932 3.472,2.898 5.964,2.898Zm0,3.024c-1.792,0 -3.43,-0.35 -4.914,-1.05c-1.456,-0.7 -2.702,-1.68 -3.738,-2.94c-1.036,-1.26 -1.848,-2.786 -2.436,-4.578c-0.56,-1.792 -0.84,-3.78 -0.84,-5.964l0,-1.68c0,-2.212 0.266,-4.214 0.798,-6.006c0.56,-1.792 1.344,-3.318 2.352,-4.578c1.036,-1.288 2.282,-2.268 3.738,-2.94c1.456,-0.7 3.108,-1.05 4.956,-1.05c1.848,0 3.5,0.35 4.956,1.05c1.456,0.7 2.674,1.694 3.654,2.982c1.008,1.288 1.778,2.828 2.31,4.62c0.532,1.764 0.798,3.71 0.798,5.838l0,1.68c0,2.184 -0.266,4.172 -0.798,5.964c-0.504,1.792 -1.26,3.332 -2.268,4.62c-0.98,1.288 -2.198,2.282 -3.654,2.982c-1.428,0.7 -3.066,1.05 -4.914,1.05Z" style="fill:#fff;fill-rule:nonzero;"/><path d="M484.13,1133.14l11.928,-12.558c1.372,-1.456 2.436,-2.884 3.192,-4.284c0.756,-1.4 1.134,-2.87 1.134,-4.41c0,-1.68 -0.476,-2.996 -1.428,-3.948c-0.924,-0.952 -2.24,-1.428 -3.948,-1.428c-1.764,0 -3.192,0.518 -4.284,1.554c-1.064,1.036 -1.75,2.744 -2.058,5.124l-3.402,0c0.112,-1.456 0.406,-2.772 0.882,-3.948c0.504,-1.204 1.176,-2.226 2.016,-3.066c0.84,-0.84 1.834,-1.484 2.982,-1.932c1.148,-0.448 2.436,-0.672 3.864,-0.672c1.372,0 2.618,0.196 3.738,0.588c1.12,0.392 2.072,0.966 2.856,1.722c0.812,0.728 1.428,1.61 1.848,2.646c0.42,1.036 0.63,2.198 0.63,3.486c0,1.848 -0.546,3.682 -1.638,5.502c-1.092,1.792 -2.562,3.598 -4.41,5.418l-8.274,8.064l14.49,0l0,2.982l-20.118,0l0,-0.84Z" style="fill:#fff;fill-rule:nonzero;"/><path d="M521.342,1131.33c2.632,0 4.606,-0.98 5.922,-2.94c1.344,-1.96 2.016,-4.858 2.016,-8.694l0,-1.68c0,-1.736 -0.182,-3.304 -0.546,-4.704c-0.364,-1.428 -0.896,-2.646 -1.596,-3.654c-0.672,-1.008 -1.512,-1.778 -2.52,-2.31c-0.98,-0.56 -2.1,-0.84 -3.36,-0.84c-2.548,0 -4.536,1.008 -5.964,3.024c-1.428,1.988 -2.142,4.844 -2.142,8.568l0,1.68c0,3.808 0.742,6.692 2.226,8.652c1.484,1.932 3.472,2.898 5.964,2.898Zm0,3.024c-1.792,0 -3.43,-0.35 -4.914,-1.05c-1.456,-0.7 -2.702,-1.68 -3.738,-2.94c-1.036,-1.26 -1.848,-2.786 -2.436,-4.578c-0.56,-1.792 -0.84,-3.78 -0.84,-5.964l0,-1.68c0,-2.212 0.266,-4.214 0.798,-6.006c0.56,-1.792 1.344,-3.318 2.352,-4.578c1.036,-1.288 2.282,-2.268 3.738,-2.94c1.456,-0.7 3.108,-1.05 4.956,-1.05c1.848,0 3.5,0.35 4.956,1.05c1.456,0.7 2.674,1.694 3.654,2.982c1.008,1.288 1.778,2.828 2.31,4.62c0.532,1.764 0.798,3.71 0.798,5.838l0,1.68c0,2.184 -0.266,4.172 -0.798,5.964c-0.504,1.792 -1.26,3.332 -2.268,4.62c-0.98,1.288 -2.198,2.282 -3.654,2.982c-1.428,0.7 -3.066,1.05 -4.914,1.05Z" style="fill:#fff;fill-rule:nonzero;"/></g><g id="_2021" serif:id="2021"><circle id="_2021-circle" serif:id="2021 circle" cx="482.219" cy="874.066" r="67.026" style="fill:#363333;stroke:#363333;stroke-width:10.3px;"/><path d="M433.94,888.241l11.928,-12.558c1.372,-1.456 2.436,-2.884 3.192,-4.284c0.756,-1.4 1.134,-2.87 1.134,-4.41c0,-1.68 -0.476,-2.996 -1.428,-3.948c-0.924,-0.952 -2.24,-1.428 -3.948,-1.428c-1.764,0 -3.192,0.518 -4.284,1.554c-1.064,1.036 -1.75,2.744 -2.058,5.124l-3.402,0c0.112,-1.456 0.406,-2.772 0.882,-3.948c0.504,-1.204 1.176,-2.226 2.016,-3.066c0.84,-0.84 1.834,-1.484 2.982,-1.932c1.148,-0.448 2.436,-0.672 3.864,-0.672c1.372,0 2.618,0.196 3.738,0.588c1.12,0.392 2.072,0.966 2.856,1.722c0.812,0.728 1.428,1.61 1.848,2.646c0.42,1.036 0.63,2.198 0.63,3.486c0,1.848 -0.546,3.682 -1.638,5.502c-1.092,1.792 -2.562,3.598 -4.41,5.418l-8.274,8.064l14.49,0l0,2.982l-20.118,0l0,-0.84Z" style="fill:#fff;fill-rule:nonzero;"/><path d="M471.152,886.435c2.632,0 4.606,-0.98 5.922,-2.94c1.344,-1.96 2.016,-4.858 2.016,-8.694l0,-1.68c0,-1.736 -0.182,-3.304 -0.546,-4.704c-0.364,-1.428 -0.896,-2.646 -1.596,-3.654c-0.672,-1.008 -1.512,-1.778 -2.52,-2.31c-0.98,-0.56 -2.1,-0.84 -3.36,-0.84c-2.548,0 -4.536,1.008 -5.964,3.024c-1.428,1.988 -2.142,4.844 -2.142,8.568l0,1.68c0,3.808 0.742,6.692 2.226,8.652c1.484,1.932 3.472,2.898 5.964,2.898Zm0,3.024c-1.792,0 -3.43,-0.35 -4.914,-1.05c-1.456,-0.7 -2.702,-1.68 -3.738,-2.94c-1.036,-1.26 -1.848,-2.786 -2.436,-4.578c-0.56,-1.792 -0.84,-3.78 -0.84,-5.964l0,-1.68c0,-2.212 0.266,-4.214 0.798,-6.006c0.56,-1.792 1.344,-3.318 2.352,-4.578c1.036,-1.288 2.282,-2.268 3.738,-2.94c1.456,-0.7 3.108,-1.05 4.956,-1.05c1.848,0 3.5,0.35 4.956,1.05c1.456,0.7 2.674,1.694 3.654,2.982c1.008,1.288 1.778,2.828 2.31,4.62c0.532,1.764 0.798,3.71 0.798,5.838l0,1.68c0,2.184 -0.266,4.172 -0.798,5.964c-0.504,1.792 -1.26,3.332 -2.268,4.62c-0.98,1.288 -2.198,2.282 -3.654,2.982c-1.428,0.7 -3.066,1.05 -4.914,1.05Z" style="fill:#fff;fill-rule:nonzero;"/><path d="M486.608,888.241l11.928,-12.558c1.372,-1.456 2.436,-2.884 3.192,-4.284c0.756,-1.4 1.134,-2.87 1.134,-4.41c0,-1.68 -0.476,-2.996 -1.428,-3.948c-0.924,-0.952 -2.24,-1.428 -3.948,-1.428c-1.764,0 -3.192,0.518 -4.284,1.554c-1.064,1.036 -1.75,2.744 -2.058,5.124l-3.402,0c0.112,-1.456 0.406,-2.772 0.882,-3.948c0.504,-1.204 1.176,-2.226 2.016,-3.066c0.84,-0.84 1.834,-1.484 2.982,-1.932c1.148,-0.448 2.436,-0.672 3.864,-0.672c1.372,0 2.618,0.196 3.738,0.588c1.12,0.392 2.072,0.966 2.856,1.722c0.812,0.728 1.428,1.61 1.848,2.646c0.42,1.036 0.63,2.198 0.63,3.486c0,1.848 -0.546,3.682 -1.638,5.502c-1.092,1.792 -2.562,3.598 -4.41,5.418l-8.274,8.064l14.49,0l0,2.982l-20.118,0l0,-0.84Z" style="fill:#fff;fill-rule:nonzero;"/><path d="M517.688,862.663l-6.72,4.83l0,-3.402l6.972,-5.04l3.402,0l0,30.03l-3.654,0l0,-26.418Z" style="fill:#fff;fill-rule:nonzero;"/></g><g id="_2022" serif:id="2022"><circle id="_2022-circle" serif:id="2022 circle" cx="482.219" cy="627.388" r="67.026" style="fill:#363333;stroke:#363333;stroke-width:10.3px;"/><path d="M433.94,641.563l11.928,-12.558c1.372,-1.456 2.436,-2.884 3.192,-4.284c0.756,-1.4 1.134,-2.87 1.134,-4.41c0,-1.68 -0.476,-2.996 -1.428,-3.948c-0.924,-0.952 -2.24,-1.428 -3.948,-1.428c-1.764,-0 -3.192,0.518 -4.284,1.554c-1.064,1.036 -1.75,2.744 -2.058,5.124l-3.402,-0c0.112,-1.456 0.406,-2.772 0.882,-3.948c0.504,-1.204 1.176,-2.226 2.016,-3.066c0.84,-0.84 1.834,-1.484 2.982,-1.932c1.148,-0.448 2.436,-0.672 3.864,-0.672c1.372,-0 2.618,0.196 3.738,0.588c1.12,0.392 2.072,0.966 2.856,1.722c0.812,0.728 1.428,1.61 1.848,2.646c0.42,1.036 0.63,2.198 0.63,3.486c0,1.848 -0.546,3.682 -1.638,5.502c-1.092,1.792 -2.562,3.598 -4.41,5.418l-8.274,8.064l14.49,-0l0,2.982l-20.118,-0l0,-0.84Z" style="fill:#fff;fill-rule:nonzero;"/><path d="M471.152,639.757c2.632,-0 4.606,-0.98 5.922,-2.94c1.344,-1.96 2.016,-4.858 2.016,-8.694l0,-1.68c0,-1.736 -0.182,-3.304 -0.546,-4.704c-0.364,-1.428 -0.896,-2.646 -1.596,-3.654c-0.672,-1.008 -1.512,-1.778 -2.52,-2.31c-0.98,-0.56 -2.1,-0.84 -3.36,-0.84c-2.548,-0 -4.536,1.008 -5.964,3.024c-1.428,1.988 -2.142,4.844 -2.142,8.568l0,1.68c0,3.808 0.742,6.692 2.226,8.652c1.484,1.932 3.472,2.898 5.964,2.898Zm0,3.024c-1.792,-0 -3.43,-0.35 -4.914,-1.05c-1.456,-0.7 -2.702,-1.68 -3.738,-2.94c-1.036,-1.26 -1.848,-2.786 -2.436,-4.578c-0.56,-1.792 -0.84,-3.78 -0.84,-5.964l0,-1.68c0,-2.212 0.266,-4.214 0.798,-6.006c0.56,-1.792 1.344,-3.318 2.352,-4.578c1.036,-1.288 2.282,-2.268 3.738,-2.94c1.456,-0.7 3.108,-1.05 4.956,-1.05c1.848,-0 3.5,0.35 4.956,1.05c1.456,0.7 2.674,1.694 3.654,2.982c1.008,1.288 1.778,2.828 2.31,4.62c0.532,1.764 0.798,3.71 0.798,5.838l0,1.68c0,2.184 -0.266,4.172 -0.798,5.964c-0.504,1.792 -1.26,3.332 -2.268,4.62c-0.98,1.288 -2.198,2.282 -3.654,2.982c-1.428,0.7 -3.066,1.05 -4.914,1.05Z" style="fill:#fff;fill-rule:nonzero;"/><path d="M486.608,641.563l11.928,-12.558c1.372,-1.456 2.436,-2.884 3.192,-4.284c0.756,-1.4 1.134,-2.87 1.134,-4.41c0,-1.68 -0.476,-2.996 -1.428,-3.948c-0.924,-0.952 -2.24,-1.428 -3.948,-1.428c-1.764,-0 -3.192,0.518 -4.284,1.554c-1.064,1.036 -1.75,2.744 -2.058,5.124l-3.402,-0c0.112,-1.456 0.406,-2.772 0.882,-3.948c0.504,-1.204 1.176,-2.226 2.016,-3.066c0.84,-0.84 1.834,-1.484 2.982,-1.932c1.148,-0.448 2.436,-0.672 3.864,-0.672c1.372,-0 2.618,0.196 3.738,0.588c1.12,0.392 2.072,0.966 2.856,1.722c0.812,0.728 1.428,1.61 1.848,2.646c0.42,1.036 0.63,2.198 0.63,3.486c0,1.848 -0.546,3.682 -1.638,5.502c-1.092,1.792 -2.562,3.598 -4.41,5.418l-8.274,8.064l14.49,-0l0,2.982l-20.118,-0l0,-0.84Z" style="fill:#fff;fill-rule:nonzero;"/><path d="M510.38,641.563l11.928,-12.558c1.372,-1.456 2.436,-2.884 3.192,-4.284c0.756,-1.4 1.134,-2.87 1.134,-4.41c0,-1.68 -0.476,-2.996 -1.428,-3.948c-0.924,-0.952 -2.24,-1.428 -3.948,-1.428c-1.764,-0 -3.192,0.518 -4.284,1.554c-1.064,1.036 -1.75,2.744 -2.058,5.124l-3.402,-0c0.112,-1.456 0.406,-2.772 0.882,-3.948c0.504,-1.204 1.176,-2.226 2.016,-3.066c0.84,-0.84 1.834,-1.484 2.982,-1.932c1.148,-0.448 2.436,-0.672 3.864,-0.672c1.372,-0 2.618,0.196 3.738,0.588c1.12,0.392 2.072,0.966 2.856,1.722c0.812,0.728 1.428,1.61 1.848,2.646c0.42,1.036 0.63,2.198 0.63,3.486c0,1.848 -0.546,3.682 -1.638,5.502c-1.092,1.792 -2.562,3.598 -4.41,5.418l-8.274,8.064l14.49,-0l0,2.982l-20.118,-0l0,-0.84Z" style="fill:#fff;fill-rule:nonzero;"/></g><g id="_2023" serif:id="2023"><circle id="_2023-circle" serif:id="2023 circle" cx="482.219" cy="390.393" r="67.026" style="fill:#363333;stroke:#363333;stroke-width:10.3px;"/><path d="M430.713,404.568l11.928,-12.558c1.372,-1.456 2.436,-2.884 3.192,-4.284c0.756,-1.4 1.134,-2.87 1.134,-4.41c-0,-1.68 -0.476,-2.996 -1.428,-3.948c-0.924,-0.952 -2.24,-1.428 -3.948,-1.428c-1.764,-0 -3.192,0.518 -4.284,1.554c-1.064,1.036 -1.75,2.744 -2.058,5.124l-3.402,-0c0.112,-1.456 0.406,-2.772 0.882,-3.948c0.504,-1.204 1.176,-2.226 2.016,-3.066c0.84,-0.84 1.834,-1.484 2.982,-1.932c1.148,-0.448 2.436,-0.672 3.864,-0.672c1.372,-0 2.618,0.196 3.738,0.588c1.12,0.392 2.072,0.966 2.856,1.722c0.812,0.728 1.428,1.61 1.848,2.646c0.42,1.036 0.63,2.198 0.63,3.486c-0,1.848 -0.546,3.682 -1.638,5.502c-1.092,1.792 -2.562,3.598 -4.41,5.418l-8.274,8.064l14.49,-0l-0,2.982l-20.118,-0l-0,-0.84Z" style="fill:#fff;fill-rule:nonzero;"/><path d="M467.925,402.762c2.632,-0 4.606,-0.98 5.922,-2.94c1.344,-1.96 2.016,-4.858 2.016,-8.694l-0,-1.68c-0,-1.736 -0.182,-3.304 -0.546,-4.704c-0.364,-1.428 -0.896,-2.646 -1.596,-3.654c-0.672,-1.008 -1.512,-1.778 -2.52,-2.31c-0.98,-0.56 -2.1,-0.84 -3.36,-0.84c-2.548,-0 -4.536,1.008 -5.964,3.024c-1.428,1.988 -2.142,4.844 -2.142,8.568l-0,1.68c-0,3.808 0.742,6.692 2.226,8.652c1.484,1.932 3.472,2.898 5.964,2.898Zm-0,3.024c-1.792,-0 -3.43,-0.35 -4.914,-1.05c-1.456,-0.7 -2.702,-1.68 -3.738,-2.94c-1.036,-1.26 -1.848,-2.786 -2.436,-4.578c-0.56,-1.792 -0.84,-3.78 -0.84,-5.964l-0,-1.68c-0,-2.212 0.266,-4.214 0.798,-6.006c0.56,-1.792 1.344,-3.318 2.352,-4.578c1.036,-1.288 2.282,-2.268 3.738,-2.94c1.456,-0.7 3.108,-1.05 4.956,-1.05c1.848,-0 3.5,0.35 4.956,1.05c1.456,0.7 2.674,1.694 3.654,2.982c1.008,1.288 1.778,2.828 2.31,4.62c0.532,1.764 0.798,3.71 0.798,5.838l-0,1.68c-0,2.184 -0.266,4.172 -0.798,5.964c-0.504,1.792 -1.26,3.332 -2.268,4.62c-0.98,1.288 -2.198,2.282 -3.654,2.982c-1.428,0.7 -3.066,1.05 -4.914,1.05Z" style="fill:#fff;fill-rule:nonzero;"/><path d="M483.381,404.568l11.928,-12.558c1.372,-1.456 2.436,-2.884 3.192,-4.284c0.756,-1.4 1.134,-2.87 1.134,-4.41c-0,-1.68 -0.476,-2.996 -1.428,-3.948c-0.924,-0.952 -2.24,-1.428 -3.948,-1.428c-1.764,-0 -3.192,0.518 -4.284,1.554c-1.064,1.036 -1.75,2.744 -2.058,5.124l-3.402,-0c0.112,-1.456 0.406,-2.772 0.882,-3.948c0.504,-1.204 1.176,-2.226 2.016,-3.066c0.84,-0.84 1.834,-1.484 2.982,-1.932c1.148,-0.448 2.436,-0.672 3.864,-0.672c1.372,-0 2.618,0.196 3.738,0.588c1.12,0.392 2.072,0.966 2.856,1.722c0.812,0.728 1.428,1.61 1.848,2.646c0.42,1.036 0.63,2.198 0.63,3.486c-0,1.848 -0.546,3.682 -1.638,5.502c-1.092,1.792 -2.562,3.598 -4.41,5.418l-8.274,8.064l14.49,-0l-0,2.982l-20.118,-0l-0,-0.84Z" style="fill:#fff;fill-rule:nonzero;"/><path d="M518.535,405.786c-1.596,-0 -3.038,-0.238 -4.326,-0.714c-1.26,-0.476 -2.338,-1.12 -3.234,-1.932c-0.896,-0.84 -1.596,-1.82 -2.1,-2.94c-0.504,-1.12 -0.784,-2.338 -0.84,-3.654l3.36,-0c0.084,0.896 0.28,1.736 0.588,2.52c0.336,0.756 0.798,1.414 1.386,1.974c0.588,0.56 1.316,1.008 2.184,1.344c0.868,0.308 1.89,0.462 3.066,0.462c2.38,-0 4.116,-0.518 5.208,-1.554c1.092,-1.064 1.638,-2.478 1.638,-4.242c0,-3.892 -2.114,-5.838 -6.342,-5.838l-2.268,-0l0,-3.066l2.1,-0c1.96,-0 3.388,-0.434 4.284,-1.302c0.896,-0.896 1.344,-2.17 1.344,-3.822c-0,-1.428 -0.448,-2.618 -1.344,-3.57c-0.896,-0.98 -2.268,-1.47 -4.116,-1.47c-1.876,-0 -3.402,0.518 -4.578,1.554c-1.176,1.036 -1.862,2.408 -2.058,4.116l-3.192,-0c0.056,-1.176 0.322,-2.282 0.798,-3.318c0.504,-1.064 1.19,-1.988 2.058,-2.772c0.868,-0.784 1.89,-1.4 3.066,-1.848c1.176,-0.476 2.478,-0.714 3.906,-0.714c1.428,-0 2.702,0.224 3.822,0.672c1.12,0.42 2.058,1.008 2.814,1.764c0.784,0.728 1.372,1.568 1.764,2.52c0.42,0.952 0.63,1.946 0.63,2.982c0,1.708 -0.448,3.094 -1.344,4.158c-0.896,1.036 -2.03,1.834 -3.402,2.394c1.764,0.476 3.164,1.33 4.2,2.562c1.064,1.232 1.596,2.898 1.596,4.998c0,1.372 -0.266,2.604 -0.798,3.696c-0.532,1.064 -1.274,1.974 -2.226,2.73c-0.924,0.756 -2.044,1.33 -3.36,1.722c-1.316,0.392 -2.744,0.588 -4.284,0.588Z" style="fill:#fff;fill-rule:nonzero;"/></g><g id="_2024" serif:id="2024"><circle id="_2024-circle" serif:id="2024 circle" cx="482.219" cy="154.577" r="67.026" style="fill:#363333;stroke:#363333;stroke-width:10.3px;"/><path d="M432.932,168.752l11.928,-12.558c1.372,-1.456 2.436,-2.884 3.192,-4.284c0.756,-1.4 1.134,-2.87 1.134,-4.41c0,-1.68 -0.476,-2.996 -1.428,-3.948c-0.924,-0.952 -2.24,-1.428 -3.948,-1.428c-1.764,-0 -3.192,0.518 -4.284,1.554c-1.064,1.036 -1.75,2.744 -2.058,5.124l-3.402,-0c0.112,-1.456 0.406,-2.772 0.882,-3.948c0.504,-1.204 1.176,-2.226 2.016,-3.066c0.84,-0.84 1.834,-1.484 2.982,-1.932c1.148,-0.448 2.436,-0.672 3.864,-0.672c1.372,-0 2.618,0.196 3.738,0.588c1.12,0.392 2.072,0.966 2.856,1.722c0.812,0.728 1.428,1.61 1.848,2.646c0.42,1.036 0.63,2.198 0.63,3.486c0,1.848 -0.546,3.682 -1.638,5.502c-1.092,1.792 -2.562,3.598 -4.41,5.418l-8.274,8.064l14.49,-0l0,2.982l-20.118,-0l0,-0.84Z" style="fill:#fff;fill-rule:nonzero;"/><path d="M470.144,166.946c2.632,-0 4.606,-0.98 5.922,-2.94c1.344,-1.96 2.016,-4.858 2.016,-8.694l0,-1.68c0,-1.736 -0.182,-3.304 -0.546,-4.704c-0.364,-1.428 -0.896,-2.646 -1.596,-3.654c-0.672,-1.008 -1.512,-1.778 -2.52,-2.31c-0.98,-0.56 -2.1,-0.84 -3.36,-0.84c-2.548,-0 -4.536,1.008 -5.964,3.024c-1.428,1.988 -2.142,4.844 -2.142,8.568l0,1.68c0,3.808 0.742,6.692 2.226,8.652c1.484,1.932 3.472,2.898 5.964,2.898Zm0,3.024c-1.792,-0 -3.43,-0.35 -4.914,-1.05c-1.456,-0.7 -2.702,-1.68 -3.738,-2.94c-1.036,-1.26 -1.848,-2.786 -2.436,-4.578c-0.56,-1.792 -0.84,-3.78 -0.84,-5.964l0,-1.68c0,-2.212 0.266,-4.214 0.798,-6.006c0.56,-1.792 1.344,-3.318 2.352,-4.578c1.036,-1.288 2.282,-2.268 3.738,-2.94c1.456,-0.7 3.108,-1.05 4.956,-1.05c1.848,-0 3.5,0.35 4.956,1.05c1.456,0.7 2.674,1.694 3.654,2.982c1.008,1.288 1.778,2.828 2.31,4.62c0.532,1.764 0.798,3.71 0.798,5.838l0,1.68c0,2.184 -0.266,4.172 -0.798,5.964c-0.504,1.792 -1.26,3.332 -2.268,4.62c-0.98,1.288 -2.198,2.282 -3.654,2.982c-1.428,0.7 -3.066,1.05 -4.914,1.05Z" style="fill:#fff;fill-rule:nonzero;"/><path d="M485.6,168.752l11.928,-12.558c1.372,-1.456 2.436,-2.884 3.192,-4.284c0.756,-1.4 1.134,-2.87 1.134,-4.41c0,-1.68 -0.476,-2.996 -1.428,-3.948c-0.924,-0.952 -2.24,-1.428 -3.948,-1.428c-1.764,-0 -3.192,0.518 -4.284,1.554c-1.064,1.036 -1.75,2.744 -2.058,5.124l-3.402,-0c0.112,-1.456 0.406,-2.772 0.882,-3.948c0.504,-1.204 1.176,-2.226 2.016,-3.066c0.84,-0.84 1.834,-1.484 2.982,-1.932c1.148,-0.448 2.436,-0.672 3.864,-0.672c1.372,-0 2.618,0.196 3.738,0.588c1.12,0.392 2.072,0.966 2.856,1.722c0.812,0.728 1.428,1.61 1.848,2.646c0.42,1.036 0.63,2.198 0.63,3.486c0,1.848 -0.546,3.682 -1.638,5.502c-1.092,1.792 -2.562,3.598 -4.41,5.418l-8.274,8.064l14.49,-0l0,2.982l-20.118,-0l0,-0.84Z" style="fill:#fff;fill-rule:nonzero;"/><path d="M523.778,163.292l-15.036,-0l0,-1.176l13.734,-22.554l4.872,-0l0,20.748l4.158,-0l0,2.982l-4.158,-0l0,6.3l-3.57,-0l0,-6.3Zm0,-2.982l0,-17.976l-10.416,17.976l10.416,-0Z" style="fill:#fff;fill-rule:nonzero;"/></g></svg>