<?xml version="1.0" encoding="UTF-8" standalone="no"?>
<!DOCTYPE svg PUBLIC "-//W3C//DTD SVG 1.1//EN" "http://www.w3.org/Graphics/SVG/1.1/DTD/svg11.dtd">
<svg width="100%" height="100%" viewBox="0 0 1342 4288" version="1.1" xmlns="http://www.w3.org/2000/svg" xmlns:xlink="http://www.w3.org/1999/xlink" xml:space="preserve" xmlns:serif="http://www.serif.com/" style="fill-rule:evenodd;clip-rule:evenodd;stroke-linecap:round;stroke-linejoin:round;stroke-miterlimit:1.5;">
    <rect id="Artboard2" x="0" y="0" width="1341.67" height="4287.75" style="fill:none;"/>
    <path d="M681.133,4108.34c3.115,-12.671 7.312,-31.079 11.044,-51.943c16.714,-93.445 38.53,-262.666 33.894,-416.09c-3.07,-101.597 -17.636,-196.257 -53.336,-256.953c-25.267,-42.959 -29.327,-35.88 -253.865,-233.785c-11.997,-10.574 -103.119,-90.889 -161.257,-148.011c-25.494,-25.048 -44.636,-45.875 -48.703,-54.721c-1.578,-3.431 -2.754,-9.605 -3.315,-17.586c-1.2,-17.076 0.052,-43.061 3.457,-66.525c3.358,-23.147 9.074,-43.82 16.153,-52.005c5.519,-6.383 15.962,-13.651 30.646,-21.535c32.789,-17.607 87.318,-38.937 153.677,-62.974c219.713,-79.586 569.998,-189.037 685.498,-292.89c5.218,-4.691 33.734,-30.322 54.939,-67.496c20.889,-36.621 34.771,-84.592 11.122,-134.68c-26.771,-56.698 -86.677,-88.246 -95.258,-92.783c-110.809,-58.57 -356.779,-114.777 -571.247,-194.575c-144.068,-53.604 -273.913,-117.956 -340.036,-200.355c-44.128,-54.992 -79.728,-142.691 -59.406,-235.147c13.519,-61.505 51.756,-125.209 128.996,-182.696c83.998,-62.515 86.445,-52.246 176.452,-91.677c280.403,-122.842 282.12,-112.393 562.397,-234.991c28.617,-12.518 56.691,-49.618 79.094,-94.248c33.927,-67.588 54.696,-152.739 42.211,-199.103c-25.752,-95.635 -117.6,-165.08 -227.592,-234.567c-8.722,-5.51 -64.785,-49.806 -90.899,-105.662c-17.82,-38.116 -21.848,-81.466 10.986,-121.811l7.541,6.137c-30.063,36.939 -26.035,76.659 -9.72,111.557c25.089,53.665 78.905,96.266 87.285,101.56c112.349,70.977 205.482,142.573 231.787,240.258c12.907,47.932 -7.835,136.118 -42.91,205.993c-23.599,47.011 -53.743,85.608 -83.887,98.793c-280.275,122.597 -281.992,112.148 -562.391,234.989c-89.012,38.995 -91.481,28.747 -174.549,90.571c-74.894,55.74 -112.197,117.348 -125.306,176.984c-19.619,89.257 14.892,173.886 57.494,226.975c65.26,81.325 193.655,144.424 335.843,197.328c214.915,79.964 461.36,136.399 572.4,195.092c8.978,4.746 71.498,37.909 99.506,97.228c25.218,53.41 10.807,104.597 -11.468,143.647c-21.96,38.498 -51.48,65.05 -56.883,69.909c-116.071,104.366 -467.889,214.821 -688.688,294.8c-56.452,20.449 -104.286,38.9 -137.293,54.761c-21.253,10.212 -36.236,19.16 -42.988,26.967c-6.375,7.373 -10.86,26.193 -13.885,47.042c-3.299,22.732 -4.543,47.904 -3.38,64.448c0.452,6.428 1.179,11.442 2.45,14.206c3.874,8.425 22.403,27.991 46.683,51.847c57.999,56.984 148.904,137.104 160.872,147.653c226.515,199.646 230.328,192.812 255.817,236.149c41.514,70.581 55.398,186.21 55.309,306.031c-0.131,178.733 -31.048,366.755 -45.408,426.68c-2.551,10.647 -4.718,17.468 -6.056,19.851l-0.859,1.274l-1.084,1.036l-1.298,0.712l-1.281,0.307l-1.13,-0.002l-1.13,-0.26l-1.151,-0.576l-1.138,-1.032l-0.946,-1.637c-0.221,-0.572 -0.444,-1.43 -0.56,-2.603c-0.295,-2.987 0.009,-9.663 1.177,-20.469l5.573,0.603Z" style="fill:#383232;stroke:#383232;stroke-width:5.77px;"/>
    <g id="_2017" serif:id="2017">
        <circle id="_2017-circle" serif:id="2017 circle" cx="680.582" cy="4117.53" r="139.636" style="fill:#c74c49;stroke:#363333;stroke-width:8.33px;"/>
        <path d="M586.563,4147.06l24.85,-26.162c2.858,-3.034 5.075,-6.009 6.65,-8.925c1.575,-2.917 2.362,-5.979 2.362,-9.188c0,-3.5 -0.991,-6.241 -2.975,-8.225c-1.925,-1.983 -4.666,-2.975 -8.225,-2.975c-3.675,0 -6.65,1.079 -8.925,3.238c-2.216,2.158 -3.645,5.716 -4.287,10.675l-7.088,-0c0.234,-3.034 0.846,-5.775 1.838,-8.225c1.05,-2.509 2.45,-4.638 4.2,-6.388c1.75,-1.75 3.821,-3.091 6.212,-4.025c2.392,-0.933 5.075,-1.4 8.05,-1.4c2.859,0 5.455,0.409 7.788,1.225c2.333,0.817 4.317,2.013 5.95,3.588c1.692,1.516 2.975,3.354 3.85,5.512c0.875,2.159 1.312,4.579 1.312,7.263c0,3.85 -1.137,7.671 -3.412,11.462c-2.275,3.734 -5.338,7.496 -9.188,11.288l-17.237,16.8l30.187,-0l0,6.212l-41.912,0l-0,-1.75Z" style="fill:#fff;fill-rule:nonzero;"/>
        <path d="M664.088,4143.3c5.483,-0 9.596,-2.042 12.337,-6.125c2.8,-4.084 4.2,-10.121 4.2,-18.113l0,-3.5c0,-3.616 -0.379,-6.883 -1.137,-9.8c-0.758,-2.975 -1.867,-5.512 -3.325,-7.612c-1.4,-2.1 -3.15,-3.704 -5.25,-4.813c-2.042,-1.166 -4.375,-1.75 -7,-1.75c-5.308,0 -9.45,2.1 -12.425,6.3c-2.975,4.142 -4.463,10.092 -4.463,17.85l0,3.5c0,7.934 1.546,13.942 4.638,18.025c3.092,4.025 7.233,6.038 12.425,6.038Zm-0,6.3c-3.733,-0 -7.146,-0.729 -10.238,-2.188c-3.033,-1.458 -5.629,-3.5 -7.787,-6.125c-2.158,-2.625 -3.85,-5.804 -5.075,-9.537c-1.167,-3.734 -1.75,-7.875 -1.75,-12.425l-0,-3.5c-0,-4.609 0.554,-8.779 1.662,-12.513c1.167,-3.733 2.8,-6.912 4.9,-9.537c2.159,-2.684 4.755,-4.725 7.788,-6.125c3.033,-1.459 6.475,-2.188 10.325,-2.188c3.85,0 7.292,0.729 10.325,2.188c3.033,1.458 5.571,3.529 7.612,6.212c2.1,2.684 3.705,5.892 4.813,9.625c1.108,3.675 1.662,7.729 1.662,12.163l0,3.5c0,4.55 -0.554,8.691 -1.662,12.425c-1.05,3.733 -2.625,6.941 -4.725,9.625c-2.042,2.683 -4.579,4.754 -7.613,6.212c-2.975,1.459 -6.387,2.188 -10.237,2.188Z" style="fill:#fff;fill-rule:nonzero;"/>
        <path d="M711.513,4093.77l-14,10.062l-0,-7.087l14.525,-10.5l7.087,-0l0,62.562l-7.612,0l-0,-55.037Z" style="fill:#fff;fill-rule:nonzero;"/>
        <path d="M765.15,4092.37l-31.762,-0l-0,-6.125l41.212,-0l0,1.05l-23.45,61.512l-7.787,0l21.787,-56.437Z" style="fill:#fff;fill-rule:nonzero;"/>
    </g>
    <g id="_2018" serif:id="2018">
        <circle id="_2018-circle" serif:id="2018 circle" cx="724.143" cy="3464.65" r="139.636" style="fill:#fbfcec;stroke:#363333;stroke-width:8.33px;"/>
        <path d="M628.068,3494.18l24.85,-26.162c2.858,-3.033 5.075,-6.008 6.65,-8.925c1.575,-2.917 2.363,-5.979 2.363,-9.188c-0,-3.5 -0.992,-6.241 -2.975,-8.225c-1.925,-1.983 -4.667,-2.975 -8.225,-2.975c-3.675,0 -6.65,1.08 -8.925,3.238c-2.217,2.158 -3.646,5.717 -4.288,10.675l-7.087,-0c0.233,-3.033 0.845,-5.775 1.837,-8.225c1.05,-2.508 2.45,-4.638 4.2,-6.388c1.75,-1.75 3.821,-3.091 6.213,-4.025c2.391,-0.933 5.075,-1.4 8.05,-1.4c2.858,0 5.454,0.409 7.787,1.225c2.333,0.817 4.317,2.013 5.95,3.588c1.692,1.517 2.975,3.354 3.85,5.512c0.875,2.159 1.313,4.58 1.313,7.263c-0,3.85 -1.138,7.671 -3.413,11.462c-2.275,3.734 -5.337,7.496 -9.187,11.288l-17.238,16.8l30.188,-0l-0,6.212l-41.913,0l0,-1.75Z" style="fill:#383232;fill-rule:nonzero;"/>
        <path d="M705.593,3490.42c5.483,-0 9.596,-2.042 12.338,-6.125c2.8,-4.083 4.2,-10.121 4.2,-18.113l-0,-3.5c-0,-3.616 -0.38,-6.883 -1.138,-9.8c-0.758,-2.975 -1.867,-5.512 -3.325,-7.612c-1.4,-2.1 -3.15,-3.704 -5.25,-4.813c-2.042,-1.166 -4.375,-1.75 -7,-1.75c-5.308,0 -9.45,2.1 -12.425,6.3c-2.975,4.142 -4.462,10.092 -4.462,17.85l-0,3.5c-0,7.934 1.545,13.942 4.637,18.025c3.092,4.025 7.233,6.038 12.425,6.038Zm0,6.3c-3.733,-0 -7.146,-0.729 -10.237,-2.188c-3.034,-1.458 -5.63,-3.5 -7.788,-6.125c-2.158,-2.625 -3.85,-5.804 -5.075,-9.537c-1.167,-3.733 -1.75,-7.875 -1.75,-12.425l0,-3.5c0,-4.608 0.554,-8.779 1.663,-12.513c1.166,-3.733 2.8,-6.912 4.9,-9.537c2.158,-2.683 4.754,-4.725 7.787,-6.125c3.033,-1.458 6.475,-2.188 10.325,-2.188c3.85,0 7.292,0.73 10.325,2.188c3.033,1.458 5.571,3.529 7.613,6.212c2.1,2.684 3.704,5.892 4.812,9.625c1.108,3.675 1.663,7.73 1.663,12.163l-0,3.5c-0,4.55 -0.555,8.692 -1.663,12.425c-1.05,3.733 -2.625,6.942 -4.725,9.625c-2.042,2.683 -4.579,4.754 -7.612,6.212c-2.975,1.459 -6.388,2.188 -10.238,2.188Z" style="fill:#383232;fill-rule:nonzero;"/>
        <path d="M753.018,3440.89l-14,10.062l0,-7.087l14.525,-10.5l7.088,-0l-0,62.562l-7.613,0l0,-55.037Z" style="fill:#383232;fill-rule:nonzero;"/>
        <path d="M798.693,3496.72c-2.567,-0 -5.133,-0.379 -7.7,-1.138c-2.567,-0.758 -4.9,-1.895 -7,-3.412c-2.042,-1.575 -3.704,-3.529 -4.987,-5.863c-1.284,-2.333 -1.925,-5.045 -1.925,-8.137c-0,-4.2 1.137,-7.642 3.412,-10.325c2.275,-2.742 5.075,-4.696 8.4,-5.863c-2.975,-1.166 -5.308,-2.858 -7,-5.075c-1.633,-2.275 -2.45,-4.958 -2.45,-8.05c0,-2.508 0.554,-4.754 1.663,-6.737c1.108,-2.042 2.566,-3.763 4.375,-5.163c1.808,-1.4 3.85,-2.479 6.125,-3.237c2.333,-0.758 4.695,-1.138 7.087,-1.138c2.45,0 4.813,0.38 7.088,1.138c2.275,0.758 4.316,1.837 6.125,3.237c1.808,1.4 3.237,3.092 4.287,5.075c1.108,1.984 1.663,4.2 1.663,6.65c-0,3.15 -0.875,5.834 -2.625,8.05c-1.75,2.159 -4.084,3.88 -7,5.163c3.675,1.342 6.591,3.354 8.75,6.037c2.158,2.684 3.237,6.038 3.237,10.063c0,3.15 -0.642,5.892 -1.925,8.225c-1.225,2.333 -2.858,4.287 -4.9,5.862c-1.983,1.517 -4.287,2.684 -6.912,3.5c-2.567,0.759 -5.163,1.138 -7.788,1.138Zm0,-6.213c1.925,0 3.704,-0.262 5.338,-0.787c1.691,-0.583 3.15,-1.4 4.375,-2.45c1.283,-1.108 2.275,-2.45 2.975,-4.025c0.7,-1.575 1.05,-3.413 1.05,-5.513c-0,-2.041 -0.38,-3.82 -1.138,-5.337c-0.7,-1.575 -1.662,-2.888 -2.887,-3.938c-1.225,-1.05 -2.655,-1.837 -4.288,-2.362c-1.633,-0.525 -3.383,-0.788 -5.25,-0.788c-1.867,0 -3.646,0.263 -5.337,0.788c-1.692,0.525 -3.18,1.312 -4.463,2.362c-1.283,1.05 -2.304,2.363 -3.062,3.938c-0.759,1.575 -1.138,3.412 -1.138,5.512c0,2.042 0.379,3.85 1.138,5.425c0.758,1.575 1.779,2.888 3.062,3.938c1.283,1.05 2.742,1.867 4.375,2.45c1.692,0.525 3.442,0.787 5.25,0.787Zm0.263,-31.237c3.325,-0 6.008,-0.904 8.05,-2.713c2.1,-1.866 3.15,-4.462 3.15,-7.787c-0,-1.517 -0.292,-2.888 -0.875,-4.113c-0.584,-1.283 -1.4,-2.362 -2.45,-3.237c-0.992,-0.933 -2.188,-1.633 -3.588,-2.1c-1.4,-0.525 -2.917,-0.788 -4.55,-0.788c-1.633,0 -3.15,0.234 -4.55,0.7c-1.4,0.467 -2.625,1.167 -3.675,2.1c-1.05,0.875 -1.867,1.955 -2.45,3.238c-0.583,1.283 -0.875,2.742 -0.875,4.375c0,1.633 0.321,3.092 0.963,4.375c0.641,1.283 1.487,2.362 2.537,3.237c1.108,0.875 2.363,1.546 3.763,2.013c1.458,0.467 2.975,0.7 4.55,0.7Z" style="fill:#383232;fill-rule:nonzero;"/>
    </g>
    <g id="_2019" serif:id="2019">
        <circle id="_2019-circle" serif:id="2019 circle" cx="179.227" cy="2881.26" r="139.636" style="fill:#524e34;stroke:#363333;stroke-width:8.33px;"/>
        <path d="M83.196,2910.8l24.85,-26.163c2.858,-3.033 5.075,-6.008 6.65,-8.925c1.575,-2.916 2.362,-5.979 2.362,-9.187c0,-3.5 -0.991,-6.242 -2.975,-8.225c-1.925,-1.983 -4.666,-2.975 -8.225,-2.975c-3.675,-0 -6.65,1.079 -8.925,3.237c-2.216,2.159 -3.646,5.717 -4.287,10.675l-7.088,0c0.234,-3.033 0.846,-5.775 1.838,-8.225c1.05,-2.508 2.45,-4.637 4.2,-6.387c1.75,-1.75 3.821,-3.092 6.212,-4.025c2.392,-0.933 5.075,-1.4 8.05,-1.4c2.859,-0 5.454,0.408 7.788,1.225c2.333,0.817 4.316,2.012 5.95,3.587c1.691,1.517 2.975,3.355 3.85,5.513c0.875,2.158 1.312,4.579 1.312,7.262c0,3.85 -1.137,7.671 -3.412,11.463c-2.275,3.733 -5.338,7.496 -9.188,11.287l-17.237,16.8l30.187,0l0,6.213l-41.912,-0l-0,-1.75Z" style="fill:#fff;fill-rule:nonzero;"/>
        <path d="M160.721,2907.03c5.483,0 9.596,-2.041 12.337,-6.125c2.8,-4.083 4.2,-10.12 4.2,-18.112l0,-3.5c0,-3.617 -0.379,-6.883 -1.137,-9.8c-0.759,-2.975 -1.867,-5.513 -3.325,-7.613c-1.4,-2.1 -3.15,-3.704 -5.25,-4.812c-2.042,-1.167 -4.375,-1.75 -7,-1.75c-5.309,-0 -9.45,2.1 -12.425,6.3c-2.975,4.142 -4.463,10.092 -4.463,17.85l0,3.5c0,7.933 1.546,13.942 4.638,18.025c3.091,4.025 7.233,6.037 12.425,6.037Zm-0,6.3c-3.734,0 -7.146,-0.729 -10.238,-2.187c-3.033,-1.458 -5.629,-3.5 -7.787,-6.125c-2.159,-2.625 -3.85,-5.804 -5.075,-9.538c-1.167,-3.733 -1.75,-7.875 -1.75,-12.425l-0,-3.5c-0,-4.608 0.554,-8.779 1.662,-12.512c1.167,-3.733 2.8,-6.913 4.9,-9.538c2.159,-2.683 4.754,-4.725 7.788,-6.125c3.033,-1.458 6.475,-2.187 10.325,-2.187c3.85,-0 7.291,0.729 10.325,2.187c3.033,1.459 5.571,3.53 7.612,6.213c2.1,2.683 3.704,5.892 4.813,9.625c1.108,3.675 1.662,7.729 1.662,12.162l0,3.5c0,4.55 -0.554,8.692 -1.662,12.425c-1.05,3.734 -2.625,6.942 -4.725,9.625c-2.042,2.684 -4.579,4.755 -7.613,6.213c-2.975,1.458 -6.387,2.187 -10.237,2.187Z" style="fill:#fff;fill-rule:nonzero;"/>
        <path d="M208.146,2857.51l-14,10.063l-0,-7.088l14.525,-10.5l7.087,0l0,62.563l-7.612,-0l-0,-55.038Z" style="fill:#fff;fill-rule:nonzero;"/>
        <path d="M251.721,2913.24c-5.834,-0 -10.442,-1.4 -13.825,-4.2c-3.384,-2.858 -5.484,-6.825 -6.3,-11.9l7.35,-0c0.7,3.092 2.012,5.512 3.937,7.262c1.984,1.75 4.988,2.625 9.013,2.625c5.016,0 8.896,-2.041 11.637,-6.125c2.8,-4.141 4.259,-10.383 4.375,-18.725c-1.516,2.567 -3.704,4.609 -6.562,6.125c-2.8,1.459 -6.009,2.188 -9.625,2.188c-3.034,-0 -5.834,-0.496 -8.4,-1.488c-2.509,-1.05 -4.667,-2.479 -6.475,-4.287c-1.809,-1.867 -3.209,-4.025 -4.2,-6.475c-0.992,-2.508 -1.488,-5.25 -1.488,-8.225c0,-3.15 0.496,-6.008 1.488,-8.575c1.05,-2.567 2.508,-4.754 4.375,-6.563c1.866,-1.866 4.112,-3.295 6.737,-4.287c2.684,-0.992 5.688,-1.488 9.013,-1.488c7.466,0 13.066,2.421 16.8,7.263c3.791,4.783 5.687,11.696 5.687,20.737l0,3.938c0,10.442 -2.041,18.433 -6.125,23.975c-4.083,5.483 -9.887,8.225 -17.412,8.225Zm1.137,-28.7c2.1,-0 4.025,-0.321 5.775,-0.963c1.75,-0.641 3.267,-1.545 4.55,-2.712c1.284,-1.225 2.275,-2.654 2.975,-4.288c0.7,-1.691 1.05,-3.558 1.05,-5.6c0,-5.133 -1.371,-9.07 -4.112,-11.812c-2.684,-2.742 -6.125,-4.113 -10.325,-4.113c-2.042,0 -3.909,0.35 -5.6,1.05c-1.692,0.7 -3.15,1.692 -4.375,2.975c-1.225,1.225 -2.188,2.742 -2.888,4.55c-0.641,1.809 -0.962,3.821 -0.962,6.038c-0,4.55 1.254,8.167 3.762,10.85c2.509,2.683 5.892,4.025 10.15,4.025Z" style="fill:#fff;fill-rule:nonzero;"/>
    </g>
    <g id="_2020" serif:id="2020">
        <circle id="_2020-circle" serif:id="2020 circle" cx="1165.78" cy="2316.72" r="139.636" style="fill:#53a3b2;stroke:#363333;stroke-width:8.33px;"/>
        <path d="M1060.04,2346.25l24.85,-26.162c2.859,-3.034 5.075,-6.009 6.65,-8.925c1.575,-2.917 2.363,-5.98 2.363,-9.188c-0,-3.5 -0.992,-6.242 -2.975,-8.225c-1.925,-1.983 -4.667,-2.975 -8.225,-2.975c-3.675,0 -6.65,1.079 -8.925,3.238c-2.217,2.158 -3.646,5.716 -4.288,10.675l-7.087,-0c0.233,-3.034 0.846,-5.775 1.837,-8.225c1.05,-2.509 2.45,-4.638 4.2,-6.388c1.75,-1.75 3.821,-3.092 6.213,-4.025c2.392,-0.933 5.075,-1.4 8.05,-1.4c2.858,0 5.454,0.408 7.787,1.225c2.334,0.817 4.317,2.013 5.95,3.588c1.692,1.516 2.975,3.354 3.85,5.512c0.875,2.158 1.313,4.579 1.313,7.263c-0,3.85 -1.138,7.67 -3.413,11.462c-2.275,3.733 -5.337,7.496 -9.187,11.288l-17.238,16.8l30.188,-0l-0,6.212l-41.913,0l0,-1.75Z" style="fill:#fff;fill-rule:nonzero;"/>
        <path d="M1137.57,2342.49c5.484,-0 9.596,-2.042 12.338,-6.125c2.8,-4.084 4.2,-10.121 4.2,-18.113l-0,-3.5c-0,-3.617 -0.379,-6.883 -1.138,-9.8c-0.758,-2.975 -1.866,-5.512 -3.325,-7.612c-1.4,-2.1 -3.15,-3.705 -5.25,-4.813c-2.041,-1.167 -4.375,-1.75 -7,-1.75c-5.308,0 -9.45,2.1 -12.425,6.3c-2.975,4.142 -4.462,10.092 -4.462,17.85l-0,3.5c-0,7.933 1.546,13.942 4.637,18.025c3.092,4.025 7.234,6.038 12.425,6.038Zm0,6.3c-3.733,-0 -7.145,-0.73 -10.237,-2.188c-3.033,-1.458 -5.629,-3.5 -7.788,-6.125c-2.158,-2.625 -3.85,-5.804 -5.075,-9.537c-1.166,-3.734 -1.75,-7.875 -1.75,-12.425l0,-3.5c0,-4.609 0.555,-8.78 1.663,-12.513c1.167,-3.733 2.8,-6.912 4.9,-9.537c2.158,-2.684 4.754,-4.725 7.787,-6.125c3.034,-1.459 6.475,-2.188 10.325,-2.188c3.85,0 7.292,0.729 10.325,2.188c3.034,1.458 5.571,3.529 7.613,6.212c2.1,2.683 3.704,5.892 4.812,9.625c1.109,3.675 1.663,7.729 1.663,12.163l-0,3.5c-0,4.55 -0.554,8.691 -1.663,12.425c-1.05,3.733 -2.625,6.941 -4.725,9.625c-2.041,2.683 -4.579,4.754 -7.612,6.212c-2.975,1.458 -6.388,2.188 -10.238,2.188Z" style="fill:#fff;fill-rule:nonzero;"/>
        <path d="M1169.77,2346.25l24.85,-26.162c2.859,-3.034 5.075,-6.009 6.65,-8.925c1.575,-2.917 2.363,-5.98 2.363,-9.188c-0,-3.5 -0.992,-6.242 -2.975,-8.225c-1.925,-1.983 -4.667,-2.975 -8.225,-2.975c-3.675,0 -6.65,1.079 -8.925,3.238c-2.217,2.158 -3.646,5.716 -4.288,10.675l-7.087,-0c0.233,-3.034 0.846,-5.775 1.837,-8.225c1.05,-2.509 2.45,-4.638 4.2,-6.388c1.75,-1.75 3.821,-3.092 6.213,-4.025c2.392,-0.933 5.075,-1.4 8.05,-1.4c2.858,0 5.454,0.408 7.787,1.225c2.334,0.817 4.317,2.013 5.95,3.588c1.692,1.516 2.975,3.354 3.85,5.512c0.875,2.158 1.313,4.579 1.313,7.263c-0,3.85 -1.138,7.67 -3.413,11.462c-2.275,3.733 -5.337,7.496 -9.187,11.288l-17.238,16.8l30.188,-0l-0,6.212l-41.913,0l0,-1.75Z" style="fill:#fff;fill-rule:nonzero;"/>
        <path d="M1247.29,2342.49c5.484,-0 9.596,-2.042 12.338,-6.125c2.8,-4.084 4.2,-10.121 4.2,-18.113l-0,-3.5c-0,-3.617 -0.379,-6.883 -1.138,-9.8c-0.758,-2.975 -1.866,-5.512 -3.325,-7.612c-1.4,-2.1 -3.15,-3.705 -5.25,-4.813c-2.041,-1.167 -4.375,-1.75 -7,-1.75c-5.308,0 -9.45,2.1 -12.425,6.3c-2.975,4.142 -4.462,10.092 -4.462,17.85l-0,3.5c-0,7.933 1.546,13.942 4.637,18.025c3.092,4.025 7.234,6.038 12.425,6.038Zm0,6.3c-3.733,-0 -7.145,-0.73 -10.237,-2.188c-3.033,-1.458 -5.629,-3.5 -7.788,-6.125c-2.158,-2.625 -3.85,-5.804 -5.075,-9.537c-1.166,-3.734 -1.75,-7.875 -1.75,-12.425l0,-3.5c0,-4.609 0.555,-8.78 1.663,-12.513c1.167,-3.733 2.8,-6.912 4.9,-9.537c2.158,-2.684 4.754,-4.725 7.787,-6.125c3.034,-1.459 6.475,-2.188 10.325,-2.188c3.85,0 7.292,0.729 10.325,2.188c3.034,1.458 5.571,3.529 7.613,6.212c2.1,2.683 3.704,5.892 4.812,9.625c1.109,3.675 1.663,7.729 1.663,12.163l-0,3.5c-0,4.55 -0.554,8.691 -1.663,12.425c-1.05,3.733 -2.625,6.941 -4.725,9.625c-2.041,2.683 -4.579,4.754 -7.612,6.212c-2.975,1.458 -6.388,2.188 -10.238,2.188Z" style="fill:#fff;fill-rule:nonzero;"/>
    </g>
    <g id="_2021" serif:id="2021">
        <circle id="_2021-circle" serif:id="2021 circle" cx="515.945" cy="1933.55" r="139.636" style="fill:#aaa091;stroke:#363333;stroke-width:8.33px;"/>
        <path d="M424.901,1963.08l24.85,-26.162c2.859,-3.034 5.075,-6.009 6.65,-8.925c1.575,-2.917 2.363,-5.98 2.363,-9.188c-0,-3.5 -0.992,-6.242 -2.975,-8.225c-1.925,-1.983 -4.667,-2.975 -8.225,-2.975c-3.675,0 -6.65,1.079 -8.925,3.238c-2.217,2.158 -3.646,5.716 -4.288,10.675l-7.087,-0c0.233,-3.034 0.846,-5.775 1.837,-8.225c1.05,-2.509 2.45,-4.638 4.2,-6.388c1.75,-1.75 3.821,-3.092 6.213,-4.025c2.392,-0.933 5.075,-1.4 8.05,-1.4c2.858,0 5.454,0.408 7.787,1.225c2.334,0.817 4.317,2.013 5.95,3.588c1.692,1.516 2.975,3.354 3.85,5.512c0.875,2.158 1.313,4.579 1.313,7.263c-0,3.85 -1.138,7.67 -3.413,11.462c-2.275,3.733 -5.337,7.496 -9.187,11.288l-17.238,16.8l30.188,-0l-0,6.212l-41.913,0l0,-1.75Z" style="fill:#fff;fill-rule:nonzero;"/>
        <path d="M502.426,1959.32c5.484,-0 9.596,-2.042 12.338,-6.125c2.8,-4.084 4.2,-10.121 4.2,-18.113l-0,-3.5c-0,-3.617 -0.379,-6.883 -1.138,-9.8c-0.758,-2.975 -1.866,-5.512 -3.325,-7.612c-1.4,-2.1 -3.15,-3.705 -5.25,-4.813c-2.041,-1.167 -4.375,-1.75 -7,-1.75c-5.308,0 -9.45,2.1 -12.425,6.3c-2.975,4.142 -4.462,10.092 -4.462,17.85l-0,3.5c-0,7.933 1.546,13.942 4.637,18.025c3.092,4.025 7.234,6.038 12.425,6.038Zm0,6.3c-3.733,-0 -7.145,-0.73 -10.237,-2.188c-3.033,-1.458 -5.629,-3.5 -7.788,-6.125c-2.158,-2.625 -3.85,-5.804 -5.075,-9.537c-1.166,-3.734 -1.75,-7.875 -1.75,-12.425l0,-3.5c0,-4.609 0.555,-8.78 1.663,-12.513c1.167,-3.733 2.8,-6.912 4.9,-9.537c2.158,-2.684 4.754,-4.725 7.787,-6.125c3.034,-1.459 6.475,-2.188 10.325,-2.188c3.85,0 7.292,0.729 10.325,2.188c3.034,1.458 5.571,3.529 7.613,6.212c2.1,2.683 3.704,5.892 4.812,9.625c1.109,3.675 1.663,7.729 1.663,12.163l-0,3.5c-0,4.55 -0.554,8.691 -1.663,12.425c-1.05,3.733 -2.625,6.941 -4.725,9.625c-2.041,2.683 -4.579,4.754 -7.612,6.212c-2.975,1.458 -6.388,2.188 -10.238,2.188Z" style="fill:#fff;fill-rule:nonzero;"/>
        <path d="M534.626,1963.08l24.85,-26.162c2.859,-3.034 5.075,-6.009 6.65,-8.925c1.575,-2.917 2.363,-5.98 2.363,-9.188c-0,-3.5 -0.992,-6.242 -2.975,-8.225c-1.925,-1.983 -4.667,-2.975 -8.225,-2.975c-3.675,0 -6.65,1.079 -8.925,3.238c-2.217,2.158 -3.646,5.716 -4.288,10.675l-7.087,-0c0.233,-3.034 0.846,-5.775 1.837,-8.225c1.05,-2.509 2.45,-4.638 4.2,-6.388c1.75,-1.75 3.821,-3.092 6.213,-4.025c2.392,-0.933 5.075,-1.4 8.05,-1.4c2.858,0 5.454,0.408 7.787,1.225c2.334,0.817 4.317,2.013 5.95,3.588c1.692,1.516 2.975,3.354 3.85,5.512c0.875,2.158 1.313,4.579 1.313,7.263c-0,3.85 -1.138,7.67 -3.413,11.462c-2.275,3.733 -5.337,7.496 -9.187,11.288l-17.238,16.8l30.188,-0l-0,6.212l-41.913,0l0,-1.75Z" style="fill:#fff;fill-rule:nonzero;"/>
        <path d="M599.376,1909.8l-14,10.062l0,-7.087l14.525,-10.5l7.088,-0l-0,62.562l-7.613,0l0,-55.037Z" style="fill:#fff;fill-rule:nonzero;"/>
    </g>
    <g id="_2022" serif:id="2022">
        <circle id="_2022-circle" serif:id="2022 circle" cx="277.194" cy="1275.11" r="139.636" style="fill:#c97932;stroke:#363333;stroke-width:8.33px;"/>
        <path d="M176.612,1304.64l24.85,-26.163c2.859,-3.033 5.075,-6.008 6.65,-8.925c1.575,-2.916 2.363,-5.979 2.363,-9.187c-0,-3.5 -0.992,-6.242 -2.975,-8.225c-1.925,-1.984 -4.667,-2.975 -8.225,-2.975c-3.675,-0 -6.65,1.079 -8.925,3.237c-2.217,2.159 -3.646,5.717 -4.288,10.675l-7.087,0c0.233,-3.033 0.846,-5.775 1.837,-8.225c1.05,-2.508 2.45,-4.637 4.2,-6.387c1.75,-1.75 3.821,-3.092 6.213,-4.025c2.391,-0.934 5.075,-1.4 8.05,-1.4c2.858,-0 5.454,0.408 7.787,1.225c2.334,0.816 4.317,2.012 5.95,3.587c1.692,1.517 2.975,3.354 3.85,5.513c0.875,2.158 1.313,4.579 1.313,7.262c-0,3.85 -1.138,7.671 -3.413,11.463c-2.275,3.733 -5.337,7.496 -9.187,11.287l-17.238,16.8l30.188,0l-0,6.213l-41.913,-0l0,-1.75Z" style="fill:#fff;fill-rule:nonzero;"/>
        <path d="M254.137,1300.88c5.484,0 9.596,-2.041 12.338,-6.125c2.8,-4.083 4.2,-10.121 4.2,-18.112l-0,-3.5c-0,-3.617 -0.379,-6.884 -1.138,-9.8c-0.758,-2.975 -1.866,-5.513 -3.325,-7.613c-1.4,-2.1 -3.15,-3.704 -5.25,-4.812c-2.041,-1.167 -4.375,-1.75 -7,-1.75c-5.308,-0 -9.45,2.1 -12.425,6.3c-2.975,4.141 -4.462,10.091 -4.462,17.85l-0,3.5c-0,7.933 1.546,13.941 4.637,18.025c3.092,4.025 7.234,6.037 12.425,6.037Zm0,6.3c-3.733,0 -7.146,-0.729 -10.237,-2.187c-3.034,-1.459 -5.629,-3.5 -7.788,-6.125c-2.158,-2.625 -3.85,-5.804 -5.075,-9.538c-1.166,-3.733 -1.75,-7.875 -1.75,-12.425l0,-3.5c0,-4.608 0.554,-8.779 1.663,-12.512c1.166,-3.734 2.8,-6.913 4.9,-9.538c2.158,-2.683 4.754,-4.725 7.787,-6.125c3.034,-1.458 6.475,-2.187 10.325,-2.187c3.85,-0 7.292,0.729 10.325,2.187c3.034,1.459 5.571,3.529 7.613,6.213c2.1,2.683 3.704,5.891 4.812,9.625c1.109,3.675 1.663,7.729 1.663,12.162l-0,3.5c-0,4.55 -0.554,8.692 -1.663,12.425c-1.05,3.734 -2.625,6.942 -4.725,9.625c-2.041,2.684 -4.579,4.754 -7.612,6.213c-2.975,1.458 -6.388,2.187 -10.238,2.187Z" style="fill:#fff;fill-rule:nonzero;"/>
        <path d="M286.337,1304.64l24.85,-26.163c2.859,-3.033 5.075,-6.008 6.65,-8.925c1.575,-2.916 2.363,-5.979 2.363,-9.187c-0,-3.5 -0.992,-6.242 -2.975,-8.225c-1.925,-1.984 -4.667,-2.975 -8.225,-2.975c-3.675,-0 -6.65,1.079 -8.925,3.237c-2.217,2.159 -3.646,5.717 -4.288,10.675l-7.087,0c0.233,-3.033 0.846,-5.775 1.837,-8.225c1.05,-2.508 2.45,-4.637 4.2,-6.387c1.75,-1.75 3.821,-3.092 6.213,-4.025c2.391,-0.934 5.075,-1.4 8.05,-1.4c2.858,-0 5.454,0.408 7.787,1.225c2.334,0.816 4.317,2.012 5.95,3.587c1.692,1.517 2.975,3.354 3.85,5.513c0.875,2.158 1.313,4.579 1.313,7.262c-0,3.85 -1.138,7.671 -3.413,11.463c-2.275,3.733 -5.337,7.496 -9.187,11.287l-17.238,16.8l30.188,0l-0,6.213l-41.913,-0l0,-1.75Z" style="fill:#fff;fill-rule:nonzero;"/>
        <path d="M335.862,1304.64l24.85,-26.163c2.859,-3.033 5.075,-6.008 6.65,-8.925c1.575,-2.916 2.363,-5.979 2.363,-9.187c-0,-3.5 -0.992,-6.242 -2.975,-8.225c-1.925,-1.984 -4.667,-2.975 -8.225,-2.975c-3.675,-0 -6.65,1.079 -8.925,3.237c-2.217,2.159 -3.646,5.717 -4.288,10.675l-7.087,0c0.233,-3.033 0.846,-5.775 1.837,-8.225c1.05,-2.508 2.45,-4.637 4.2,-6.387c1.75,-1.75 3.821,-3.092 6.213,-4.025c2.391,-0.934 5.075,-1.4 8.05,-1.4c2.858,-0 5.454,0.408 7.787,1.225c2.334,0.816 4.317,2.012 5.95,3.587c1.692,1.517 2.975,3.354 3.85,5.513c0.875,2.158 1.313,4.579 1.313,7.262c-0,3.85 -1.138,7.671 -3.413,11.463c-2.275,3.733 -5.337,7.496 -9.187,11.287l-17.238,16.8l30.188,0l-0,6.213l-41.913,-0l0,-1.75Z" style="fill:#fff;fill-rule:nonzero;"/>
    </g>
    <g id="_2023" serif:id="2023">
        <circle id="_2023-circle" serif:id="2023 circle" cx="1054.14" cy="899.224" r="139.636" style="fill:#734b02;stroke:#363333;stroke-width:8.33px;"/>
        <path d="M951.548,928.755l24.85,-26.162c2.858,-3.033 5.075,-6.008 6.65,-8.925c1.575,-2.917 2.362,-5.979 2.362,-9.188c0,-3.5 -0.991,-6.241 -2.975,-8.225c-1.925,-1.983 -4.666,-2.975 -8.225,-2.975c-3.675,0 -6.65,1.08 -8.925,3.238c-2.216,2.158 -3.645,5.717 -4.287,10.675l-7.088,-0c0.234,-3.033 0.846,-5.775 1.838,-8.225c1.05,-2.508 2.45,-4.638 4.2,-6.388c1.75,-1.75 3.821,-3.091 6.212,-4.025c2.392,-0.933 5.075,-1.4 8.05,-1.4c2.859,0 5.455,0.409 7.788,1.225c2.333,0.817 4.317,2.013 5.95,3.588c1.692,1.517 2.975,3.354 3.85,5.512c0.875,2.159 1.312,4.58 1.312,7.263c0,3.85 -1.137,7.671 -3.412,11.462c-2.275,3.734 -5.338,7.496 -9.188,11.288l-17.237,16.8l30.187,-0l0,6.212l-41.912,0l-0,-1.75Z" style="fill:#fff;fill-rule:nonzero;"/>
        <path d="M1029.07,924.993c5.483,-0 9.596,-2.042 12.337,-6.125c2.8,-4.083 4.2,-10.121 4.2,-18.113l0,-3.5c0,-3.616 -0.379,-6.883 -1.137,-9.8c-0.758,-2.975 -1.867,-5.512 -3.325,-7.612c-1.4,-2.1 -3.15,-3.704 -5.25,-4.813c-2.042,-1.166 -4.375,-1.75 -7,-1.75c-5.308,0 -9.45,2.1 -12.425,6.3c-2.975,4.142 -4.463,10.092 -4.463,17.85l0,3.5c0,7.934 1.546,13.942 4.638,18.025c3.092,4.025 7.233,6.038 12.425,6.038Zm-0,6.3c-3.733,-0 -7.146,-0.729 -10.238,-2.188c-3.033,-1.458 -5.629,-3.5 -7.787,-6.125c-2.158,-2.625 -3.85,-5.804 -5.075,-9.537c-1.167,-3.733 -1.75,-7.875 -1.75,-12.425l-0,-3.5c-0,-4.608 0.554,-8.779 1.662,-12.513c1.167,-3.733 2.8,-6.912 4.9,-9.537c2.159,-2.683 4.755,-4.725 7.788,-6.125c3.033,-1.458 6.475,-2.188 10.325,-2.188c3.85,0 7.292,0.73 10.325,2.188c3.033,1.458 5.571,3.529 7.612,6.212c2.1,2.684 3.705,5.892 4.813,9.625c1.108,3.675 1.662,7.73 1.662,12.163l0,3.5c0,4.55 -0.554,8.692 -1.662,12.425c-1.05,3.733 -2.625,6.942 -4.725,9.625c-2.042,2.683 -4.579,4.754 -7.613,6.212c-2.975,1.459 -6.387,2.188 -10.237,2.188Z" style="fill:#fff;fill-rule:nonzero;"/>
        <path d="M1061.27,928.755l24.85,-26.162c2.858,-3.033 5.075,-6.008 6.65,-8.925c1.575,-2.917 2.362,-5.979 2.362,-9.188c0,-3.5 -0.991,-6.241 -2.975,-8.225c-1.925,-1.983 -4.666,-2.975 -8.225,-2.975c-3.675,0 -6.65,1.08 -8.925,3.238c-2.216,2.158 -3.645,5.717 -4.287,10.675l-7.088,-0c0.234,-3.033 0.846,-5.775 1.838,-8.225c1.05,-2.508 2.45,-4.638 4.2,-6.388c1.75,-1.75 3.821,-3.091 6.212,-4.025c2.392,-0.933 5.075,-1.4 8.05,-1.4c2.859,0 5.455,0.409 7.788,1.225c2.333,0.817 4.317,2.013 5.95,3.588c1.692,1.517 2.975,3.354 3.85,5.512c0.875,2.159 1.312,4.58 1.312,7.263c0,3.85 -1.137,7.671 -3.412,11.462c-2.275,3.734 -5.338,7.496 -9.188,11.288l-17.237,16.8l30.187,-0l0,6.212l-41.912,0l-0,-1.75Z" style="fill:#fff;fill-rule:nonzero;"/>
        <path d="M1134.51,931.293c-3.325,-0 -6.329,-0.496 -9.012,-1.488c-2.625,-0.991 -4.871,-2.333 -6.738,-4.025c-1.866,-1.75 -3.325,-3.791 -4.375,-6.125c-1.05,-2.333 -1.633,-4.87 -1.75,-7.612l7,-0c0.175,1.867 0.584,3.617 1.225,5.25c0.7,1.575 1.663,2.946 2.888,4.112c1.225,1.167 2.742,2.1 4.55,2.8c1.808,0.642 3.937,0.963 6.387,0.963c4.959,-0 8.575,-1.079 10.85,-3.238c2.275,-2.216 3.413,-5.162 3.413,-8.837c-0,-8.108 -4.404,-12.163 -13.213,-12.163l-4.725,0l0,-6.387l4.375,-0c4.084,-0 7.059,-0.904 8.925,-2.713c1.867,-1.866 2.8,-4.52 2.8,-7.962c0,-2.975 -0.933,-5.454 -2.8,-7.438c-1.866,-2.041 -4.725,-3.062 -8.575,-3.062c-3.908,-0 -7.087,1.079 -9.537,3.237c-2.45,2.159 -3.879,5.017 -4.288,8.575l-6.65,0c0.117,-2.45 0.671,-4.754 1.663,-6.912c1.05,-2.217 2.479,-4.142 4.287,-5.775c1.809,-1.633 3.938,-2.917 6.388,-3.85c2.45,-0.992 5.162,-1.488 8.137,-1.488c2.975,0 5.63,0.467 7.963,1.4c2.333,0.875 4.287,2.1 5.862,3.675c1.634,1.517 2.859,3.267 3.675,5.25c0.875,1.984 1.313,4.055 1.313,6.213c-0,3.558 -0.933,6.446 -2.8,8.662c-1.867,2.159 -4.229,3.821 -7.088,4.988c3.675,0.992 6.592,2.771 8.75,5.337c2.217,2.567 3.325,6.038 3.325,10.413c0,2.858 -0.554,5.425 -1.662,7.7c-1.108,2.217 -2.654,4.112 -4.638,5.687c-1.925,1.575 -4.258,2.771 -7,3.588c-2.741,0.817 -5.716,1.225 -8.925,1.225Z" style="fill:#fff;fill-rule:nonzero;"/>
    </g>
    <g id="_2024" serif:id="2024">
        <circle id="_2024-circle" serif:id="2024 circle" cx="783.897" cy="179.184" r="139.636" style="fill:#f2dc6b;stroke:#363333;stroke-width:8.33px;"/>
        <path d="M681.215,208.716l24.85,-26.163c2.859,-3.033 5.075,-6.008 6.65,-8.925c1.575,-2.917 2.363,-5.979 2.363,-9.187c-0,-3.5 -0.992,-6.242 -2.975,-8.225c-1.925,-1.984 -4.667,-2.975 -8.225,-2.975c-3.675,-0 -6.65,1.079 -8.925,3.237c-2.217,2.158 -3.646,5.717 -4.288,10.675l-7.087,0c0.233,-3.033 0.846,-5.775 1.837,-8.225c1.05,-2.508 2.45,-4.637 4.2,-6.387c1.75,-1.75 3.821,-3.092 6.213,-4.025c2.391,-0.934 5.075,-1.4 8.05,-1.4c2.858,-0 5.454,0.408 7.787,1.225c2.334,0.816 4.317,2.012 5.95,3.587c1.692,1.517 2.975,3.354 3.85,5.513c0.875,2.158 1.313,4.579 1.313,7.262c-0,3.85 -1.138,7.671 -3.413,11.463c-2.275,3.733 -5.337,7.495 -9.187,11.287l-17.238,16.8l30.188,0l-0,6.213l-41.913,-0l0,-1.75Z" style="fill:#383232;fill-rule:nonzero;"/>
        <path d="M758.74,204.953c5.484,0 9.596,-2.042 12.338,-6.125c2.8,-4.083 4.2,-10.121 4.2,-18.112l-0,-3.5c-0,-3.617 -0.379,-6.884 -1.138,-9.8c-0.758,-2.975 -1.866,-5.513 -3.325,-7.613c-1.4,-2.1 -3.15,-3.704 -5.25,-4.812c-2.041,-1.167 -4.375,-1.75 -7,-1.75c-5.308,-0 -9.45,2.1 -12.425,6.3c-2.975,4.141 -4.462,10.091 -4.462,17.85l-0,3.5c-0,7.933 1.546,13.941 4.637,18.025c3.092,4.025 7.234,6.037 12.425,6.037Zm0,6.3c-3.733,0 -7.146,-0.729 -10.237,-2.187c-3.034,-1.459 -5.629,-3.5 -7.788,-6.125c-2.158,-2.625 -3.85,-5.805 -5.075,-9.538c-1.166,-3.733 -1.75,-7.875 -1.75,-12.425l0,-3.5c0,-4.608 0.554,-8.779 1.663,-12.512c1.166,-3.734 2.8,-6.913 4.9,-9.538c2.158,-2.683 4.754,-4.725 7.787,-6.125c3.034,-1.458 6.475,-2.187 10.325,-2.187c3.85,-0 7.292,0.729 10.325,2.187c3.034,1.458 5.571,3.529 7.613,6.213c2.1,2.683 3.704,5.891 4.812,9.625c1.109,3.675 1.663,7.729 1.663,12.162l-0,3.5c-0,4.55 -0.554,8.692 -1.663,12.425c-1.05,3.733 -2.625,6.942 -4.725,9.625c-2.041,2.683 -4.579,4.754 -7.612,6.213c-2.975,1.458 -6.388,2.187 -10.238,2.187Z" style="fill:#383232;fill-rule:nonzero;"/>
        <path d="M790.94,208.716l24.85,-26.163c2.859,-3.033 5.075,-6.008 6.65,-8.925c1.575,-2.917 2.363,-5.979 2.363,-9.187c-0,-3.5 -0.992,-6.242 -2.975,-8.225c-1.925,-1.984 -4.667,-2.975 -8.225,-2.975c-3.675,-0 -6.65,1.079 -8.925,3.237c-2.217,2.158 -3.646,5.717 -4.288,10.675l-7.087,0c0.233,-3.033 0.846,-5.775 1.837,-8.225c1.05,-2.508 2.45,-4.637 4.2,-6.387c1.75,-1.75 3.821,-3.092 6.213,-4.025c2.391,-0.934 5.075,-1.4 8.05,-1.4c2.858,-0 5.454,0.408 7.787,1.225c2.334,0.816 4.317,2.012 5.95,3.587c1.692,1.517 2.975,3.354 3.85,5.513c0.875,2.158 1.313,4.579 1.313,7.262c-0,3.85 -1.138,7.671 -3.413,11.463c-2.275,3.733 -5.337,7.495 -9.187,11.287l-17.238,16.8l30.188,0l-0,6.213l-41.913,-0l0,-1.75Z" style="fill:#383232;fill-rule:nonzero;"/>
        <path d="M870.478,197.341l-31.325,-0l-0,-2.45l28.612,-46.988l10.15,0l0,43.225l8.663,0l-0,6.213l-8.663,-0l0,13.125l-7.437,-0l-0,-13.125Zm-0,-6.213l-0,-37.45l-21.7,37.45l21.7,0Z" style="fill:#383232;fill-rule:nonzero;"/>
    </g>
</svg>
