<svg xmlns="http://www.w3.org/2000/svg" width="1025" height="600"><rect width="1025" height="600" x="0" y="0" fill="#FFFFFF" id="backgorund"/><g id="viz"><g transform="translate(0,0)"><g transform="translate(10,20)"><g><path fill="#aaa091" d="M0,-40C258.03936075762056,-40,258.03936075762056,509.0909090909091,516.0787215152411,509.0909090909091C530.4483575022196,509.0909090909091,530.4483575022196,509.0909090909091,544.817993489198,509.0909090909091C687.408996744599,509.0909090909091,687.408996744599,509.0909090909091,830,509.0909090909091L830,509.0909090909091C687.408996744599,509.0909090909091,687.408996744599,509.0909090909091,544.817993489198,509.0909090909091C530.4483575022196,509.0909090909091,530.4483575022196,509.0909090909091,516.0787215152411,509.0909090909091C258.03936075762056,509.0909090909091,258.03936075762056,-40,0,-40Z"><title>People Management</title></path><path fill="#d96f32" d="M0,468.45454545454544C258.03936075762056,468.45454545454544,258.03936075762056,321.00000000000006,516.0787215152411,321.00000000000006C530.4483575022196,321.00000000000006,530.4483575022196,321.00000000000006,544.817993489198,321.00000000000006C687.408996744599,321.00000000000006,687.408996744599,483.6363636363637,830,483.6363636363637L830,509.0909090909091C687.408996744599,509.0909090909091,687.408996744599,377.00000000000006,544.817993489198,377.00000000000006C530.4483575022196,377.00000000000006,530.4483575022196,377.00000000000006,516.0787215152411,377.00000000000006C258.03936075762056,377.00000000000006,258.03936075762056,504.09090909090907,0,504.09090909090907Z"><title>Public Speaking</title></path><path fill="#d7c1aa" d="M0,438C258.03936075762056,438,258.03936075762056,285.4545454545455,516.0787215152411,285.4545454545455C530.4483575022196,285.4545454545455,530.4483575022196,285.4545454545455,544.817993489198,285.4545454545455C687.408996744599,285.4545454545455,687.408996744599,102.27272727272735,830,102.27272727272735L830,178.6363636363637C687.408996744599,178.6363636363637,687.408996744599,316.00000000000006,544.817993489198,316.00000000000006C530.4483575022196,316.00000000000006,530.4483575022196,316.00000000000006,516.0787215152411,316.00000000000006C258.03936075762056,316.00000000000006,258.03936075762056,463.45454545454544,0,463.45454545454544Z"><title>Leadership</title></path><path fill="#2469a6" d="M0,402.4545454545454C258.03936075762056,402.4545454545454,258.03936075762056,229.54545454545456,516.0787215152411,229.54545454545456C530.4483575022196,229.54545454545456,530.4483575022196,229.54545454545456,544.817993489198,229.54545454545456C687.408996744599,229.54545454545456,687.408996744599,183.6363636363637,830,183.6363636363637L830,234.54545454545462C687.408996744599,234.54545454545462,687.408996744599,280.4545454545455,544.817993489198,280.4545454545455C530.4483575022196,280.4545454545455,530.4483575022196,280.4545454545455,516.0787215152411,280.4545454545455C258.03936075762056,280.4545454545455,258.03936075762056,433,0,433Z"><title>Teaching</title></path><path fill="#a4cef3" d="M0,255C258.03936075762056,255,258.03936075762056,-35,516.0787215152411,-35C530.4483575022196,-35,530.4483575022196,-35,544.817993489198,-35C687.408996744599,-35,687.408996744599,509.0909090909091,830,509.0909090909091L830,509.0909090909091C687.408996744599,509.0909090909091,687.408996744599,117.72727272727278,544.817993489198,117.72727272727278C530.4483575022196,117.72727272727278,530.4483575022196,117.72727272727278,516.0787215152411,117.72727272727278C258.03936075762056,117.72727272727278,258.03936075762056,346.6363636363637,0,346.6363636363637Z"><title>Project Management</title></path><path fill="#a4921e" d="M0,122.72727272727272C258.03936075762056,122.72727272727272,258.03936075762056,382.00000000000006,516.0787215152411,382.00000000000006C530.4483575022196,382.00000000000006,530.4483575022196,382.00000000000006,544.817993489198,382.00000000000006C687.408996744599,382.00000000000006,687.408996744599,-29.999999999999876,830,-29.999999999999876L830,97.27272727272735C687.408996744599,97.27272727272735,687.408996744599,422.7272727272728,544.817993489198,422.7272727272728C530.4483575022196,422.7272727272728,530.4483575022196,422.7272727272728,516.0787215152411,422.7272727272728C258.03936075762056,422.7272727272728,258.03936075762056,250,0,250Z"><title>Research</title></path><path fill="#44a5ba" d="M0,-35C258.03936075762056,-35,258.03936075762056,122.72727272727278,516.0787215152411,122.72727272727278C530.4483575022196,122.72727272727278,530.4483575022196,122.72727272727278,544.817993489198,122.72727272727278C687.408996744599,122.72727272727278,687.408996744599,239.54545454545462,830,239.54545454545462L830,315.909090909091C687.408996744599,315.909090909091,687.408996744599,224.54545454545456,544.817993489198,224.54545454545456C530.4483575022196,224.54545454545456,530.4483575022196,224.54545454545456,516.0787215152411,224.54545454545456C258.03936075762056,224.54545454545456,258.03936075762056,117.72727272727272,0,117.72727272727272Z"><title>Analysis</title></path><path fill="#2f3132" d="M0,351.6363636363637C258.03936075762056,351.6363636363637,258.03936075762056,427.7272727272728,516.0787215152411,427.7272727272728C530.4483575022196,427.7272727272728,530.4483575022196,427.7272727272728,544.817993489198,427.7272727272728C687.408996744599,427.7272727272728,687.408996744599,320.909090909091,830,320.909090909091L830,422.7272727272728C687.408996744599,422.7272727272728,687.408996744599,478.6363636363636,544.817993489198,478.6363636363636C530.4483575022196,478.6363636363636,530.4483575022196,478.6363636363636,516.0787215152411,478.6363636363636C258.03936075762056,478.6363636363636,258.03936075762056,397.4545454545454,0,397.4545454545454Z"><title>Volunteerism</title></path><path fill="#f2dc6b" d="M0,509.09090909090907C258.03936075762056,509.09090909090907,258.03936075762056,483.6363636363636,516.0787215152411,483.6363636363636C530.4483575022196,483.6363636363636,530.4483575022196,483.6363636363636,544.817993489198,483.6363636363636C687.408996744599,483.6363636363636,687.408996744599,427.7272727272728,830,427.7272727272728L830,478.6363636363637C687.408996744599,478.6363636363637,687.408996744599,509.0909090909091,544.817993489198,509.0909090909091C530.4483575022196,509.0909090909091,530.4483575022196,509.0909090909091,516.0787215152411,509.0909090909091C258.03936075762056,509.0909090909091,258.03936075762056,509.09090909090907,0,509.09090909090907Z"><title>Consultancy</title></path></g><g id="xAxis" transform="translate(0,560)" fill="none" font-size="10" font-family="sans-serif" text-anchor="middle"><path class="domain" stroke="currentColor" d="M0.5,0.5H830.5"/><g class="tick" opacity="1" transform="translate(87.94598993785144,0)"><line stroke="currentColor" y2="6"/><text fill="currentColor" y="9" dy="0.71em">2011</text></g><g class="tick" opacity="1" transform="translate(177.60269310446878,0)"><line stroke="currentColor" y2="6"/><text fill="currentColor" y="9" dy="0.71em">2012</text></g><g class="tick" opacity="1" transform="translate(267.50503107428233,0)"><line stroke="currentColor" y2="6"/><text fill="currentColor" y="9" dy="0.71em">2013</text></g><g class="tick" opacity="1" transform="translate(357.16173424089965,0)"><line stroke="currentColor" y2="6"/><text fill="currentColor" y="9" dy="0.71em">2014</text></g><g class="tick" opacity="1" transform="translate(446.818437407517,0)"><line stroke="currentColor" y2="6"/><text fill="currentColor" y="9" dy="0.71em">2015</text></g><g class="tick" opacity="1" transform="translate(536.4751405741343,0)"><line stroke="currentColor" y2="6"/><text fill="currentColor" y="9" dy="0.71em">2016</text></g><g class="tick" opacity="1" transform="translate(626.377478543948,0)"><line stroke="currentColor" y2="6"/><text fill="currentColor" y="9" dy="0.71em">2017</text></g><g class="tick" opacity="1" transform="translate(716.0341817105653,0)"><line stroke="currentColor" y2="6"/><text fill="currentColor" y="9" dy="0.71em">2018</text></g><g class="tick" opacity="1" transform="translate(805.6908848771826,0)"><line stroke="currentColor" y2="6"/><text fill="currentColor" y="9" dy="0.71em">2019</text></g></g><text style="font-family: Arial, sans-serif; font-size: 12px; fill: rgb(123, 123, 123); font-weight: bold;" y="556" x="830" text-anchor="end">Start.Date</text><text style="font-family: Arial, sans-serif; font-size: 12px; fill: rgb(123, 123, 123); font-weight: bold;" x="4" text-anchor="start" dominant-baseline="hanging">Percentage</text><g id="labels"><text x="516.0787215152411" y="364.00000000000006" text-anchor="middle" alignment-baseline="middle" style="font-family: Arial, sans-serif; font-size: 10px; fill: black; font-weight: bold; stroke-width: 2px; paint-order: stroke; stroke: white; stroke-linecap: round; stroke-linejoin: round;">Public Speaking</text><text x="830" y="165.45454545454555" text-anchor="end" alignment-baseline="middle" style="font-family: Arial, sans-serif; font-size: 10px; fill: black; font-weight: bold; stroke-width: 2px; paint-order: stroke; stroke: white; stroke-linecap: round; stroke-linejoin: round;">Leadership</text><text x="516.0787215152411" y="280.00000000000006" text-anchor="middle" alignment-baseline="middle" style="font-family: Arial, sans-serif; font-size: 10px; fill: black; font-weight: bold; stroke-width: 2px; paint-order: stroke; stroke: white; stroke-linecap: round; stroke-linejoin: round;">Teaching</text><text x="516.0787215152411" y="76.36363636363642" text-anchor="middle" alignment-baseline="middle" style="font-family: Arial, sans-serif; font-size: 10px; fill: black; font-weight: bold; stroke-width: 2px; paint-order: stroke; stroke: white; stroke-linecap: round; stroke-linejoin: round;">Project Management</text><text x="0" y="216.36363636363635" text-anchor="start" alignment-baseline="middle" style="font-family: Arial, sans-serif; font-size: 10px; fill: black; font-weight: bold; stroke-width: 2px; paint-order: stroke; stroke: white; stroke-linecap: round; stroke-linejoin: round;">Research</text><text x="0" y="76.36363636363642" text-anchor="start" alignment-baseline="middle" style="font-family: Arial, sans-serif; font-size: 10px; fill: black; font-weight: bold; stroke-width: 2px; paint-order: stroke; stroke: white; stroke-linecap: round; stroke-linejoin: round;">Analysis</text><text x="830" y="381.8181818181819" text-anchor="end" alignment-baseline="middle" style="font-family: Arial, sans-serif; font-size: 10px; fill: black; font-weight: bold; stroke-width: 2px; paint-order: stroke; stroke: white; stroke-linecap: round; stroke-linejoin: round;">Volunteerism</text><text x="830" y="458.18181818181824" text-anchor="end" alignment-baseline="middle" style="font-family: Arial, sans-serif; font-size: 10px; fill: black; font-weight: bold; stroke-width: 2px; paint-order: stroke; stroke: white; stroke-linecap: round; stroke-linejoin: round;">Consultancy</text></g></g></g></g><g id="legend" transform="translate(850,20)"><g transform="translate(5,0)"><g class="legendColor" transform="translate(0,0)"><g class="legendCells" transform="translate(0,15.399999618530273)"><g class="cell" transform="translate(0, 0)"><rect class="swatch" height="15" width="15" style="fill: rgb(68, 165, 186);"/><text class="label" transform="translate( 20, 12.5)" font-family="&quot;Arial&quot;, sans-serif" font-size="10px"><tspan x="0" dy="0em">Analysis</tspan></text></g><g class="cell" transform="translate(0, 20.399999618530273)"><rect class="swatch" height="15" width="15" style="fill: rgb(242, 220, 107);"/><text class="label" transform="translate( 20, 12.5)" font-family="&quot;Arial&quot;, sans-serif" font-size="10px"><tspan x="0" dy="0em">Consultancy</tspan></text></g><g class="cell" transform="translate(0, 40.79999923706055)"><rect class="swatch" height="15" width="15" style="fill: rgb(215, 193, 170);"/><text class="label" transform="translate( 20, 12.5)" font-family="&quot;Arial&quot;, sans-serif" font-size="10px"><tspan x="0" dy="0em">Leadership</tspan></text></g><g class="cell" transform="translate(0, 61.19999885559082)"><rect class="swatch" height="15" width="15" style="fill: rgb(170, 160, 145);"/><text class="label" transform="translate( 20, 12.5)" font-family="&quot;Arial&quot;, sans-serif" font-size="10px"><tspan x="0" dy="0em">People Management</tspan></text></g><g class="cell" transform="translate(0, 81.5999984741211)"><rect class="swatch" height="15" width="15" style="fill: rgb(164, 206, 243);"/><text class="label" transform="translate( 20, 12.5)" font-family="&quot;Arial&quot;, sans-serif" font-size="10px"><tspan x="0" dy="0em">Project Management</tspan></text></g><g class="cell" transform="translate(0, 101.99999809265137)"><rect class="swatch" height="15" width="15" style="fill: rgb(217, 111, 50);"/><text class="label" transform="translate( 20, 12.5)" font-family="&quot;Arial&quot;, sans-serif" font-size="10px"><tspan x="0" dy="0em">Public Speaking</tspan></text></g><g class="cell" transform="translate(0, 122.39999771118164)"><rect class="swatch" height="15" width="15" style="fill: rgb(164, 146, 30);"/><text class="label" transform="translate( 20, 12.5)" font-family="&quot;Arial&quot;, sans-serif" font-size="10px"><tspan x="0" dy="0em">Research</tspan></text></g><g class="cell" transform="translate(0, 142.7999973297119)"><rect class="swatch" height="15" width="15" style="fill: rgb(36, 105, 166);"/><text class="label" transform="translate( 20, 12.5)" font-family="&quot;Arial&quot;, sans-serif" font-size="10px"><tspan x="0" dy="0em">Teaching</tspan></text></g><g class="cell" transform="translate(0, 163.1999969482422)"><rect class="swatch" height="15" width="15" style="fill: rgb(47, 49, 50);"/><text class="label" transform="translate( 20, 12.5)" font-family="&quot;Arial&quot;, sans-serif" font-size="10px"><tspan x="0" dy="0em">Volunteerism</tspan></text></g></g><text class="legendTitle" font-family="&quot;Arial&quot;, sans-serif" font-size="12px" font-weight="bold"><tspan x="0" dy="0em">Colors</tspan></text></g></g></g></svg>