<?xml version="1.0" encoding="utf-8"?>
<!-- Generator: Adobe Illustrator 26.2.1, SVG Export Plug-In . SVG Version: 6.00 Build 0)  -->
<svg version="1.1" xmlns="http://www.w3.org/2000/svg" xmlns:xlink="http://www.w3.org/1999/xlink" x="0px" y="0px"
	 viewBox="0 0 349.9 711.8" style="enable-background:new 0 0 349.9 711.8;" xml:space="preserve">
<style type="text/css">
	.st0{fill:#AAA091;}
	.st1{fill:#A4921E;}
	.st2{fill:#F2DC6B;}
	.st3{fill:#A4CEF3;}
	.st4{fill:#D7C1AA;}
	.st5{fill:#D96F32;}
	.st6{fill:#44A5BA;}
	.st7{fill:#2F3132;}
	.st8{enable-background:new    ;}
	.st9{display:none;enable-background:new    ;}
	.st10{display:inline;}
	.st11{display:inline;fill:#FFFFFF;fill-opacity:0.15;}
	.st12{fill:#FFFFFF;fill-opacity:0.15;}
</style>
<g id="Layer_1">
	<g id="bumpchart">
		<g id="viz">
			<path id="publicspeaking" class="st0" d="M-432.2,651.2c273.6,0,273.6-143.5,547.2-143.5c15.2,0,15.2,0,30.5,0
				c151.2,0,151.2,156.6,302.4,156.6v25.5c-151.2,0-151.2-126.1-302.4-126.1c-15.2,0-15.2,0-30.5,0
				c-273.6,0-273.6,123.1-547.2,123.1V651.2z"/>
			<path id="leadership" class="st1" d="M-432.2,622.7c273.6,0,273.6-148.5,547.2-148.5c15.2,0,15.2,0,30.5,0
				c151.2,0,151.2-181.2,302.4-181.2v76.4c-151.2,0-151.2,135.4-302.4,135.4c-15.2,0-15.2,0-30.5,0
				c-273.6,0-273.6,143.5-547.2,143.5V622.7L-432.2,622.7z"/>
			<path id="teaching" class="st2" d="M-432.2,589.2c273.6,0,273.6-168.9,547.2-168.9c15.2,0,15.2,0,30.5,0
				c151.2,0,151.2-47.9,302.4-47.9v50.9c-151.2,0-151.2,47.9-302.4,47.9c-15.2,0-15.2,0-30.5,0c-273.6,0-273.6,148.5-547.2,148.5
				L-432.2,589.2L-432.2,589.2z"/>
			<path id="projectmanagement" class="st3" d="M-432.2,445.7c273.6,0,273.6-286,547.2-286c15.2,0,15.2,0,30.5,0
				c151.1,0,151.1,530.1,302.3,530.1l0,0c-151.2,0-151.2-377.4-302.4-377.4c-15.2,0-15.2,0-30.5,0c-273.6,0-273.6,224.9-547.2,224.9
				v-91.6H-432.2z"/>
			<path id="research" class="st4" d="M-432.2,315.4c273.6,0,273.6,251.3,547.2,251.3c15.2,0,15.2,0,30.5,0
				c151.2,0,151.2-404,302.4-404V290c-151.2,0-151.2,317.5-302.4,317.5c-15.2,0-15.2,0-30.5,0c-273.6,0-273.6-164.7-547.2-164.7
				V315.4L-432.2,315.4z"/>
			<path id="analysis" class="st5" d="M-432.2,159.7c273.6,0,273.6,155.7,547.2,155.7c15.2,0,15.2,0,30.5,0
				c151.2,0,151.2,110.8,302.4,110.8v76.4c-151.2,0-151.2-85.4-302.4-85.4c-15.2,0-15.2,0-30.5,0c-273.6,0-273.6-104.8-547.2-104.8
				L-432.2,159.7L-432.2,159.7z"/>
			<path id="volunteerism" class="st6" d="M-432.2,540.3c273.6,0,273.6,70.1,547.2,70.1c15.2,0,15.2,0,30.5,0
				c151.2,0,151.2-104.8,302.4-104.8v101.8c-151.2,0-151.2,53.9-302.4,53.9c-15.2,0-15.2,0-30.5,0c-273.6,0-273.6-75.2-547.2-75.2
				L-432.2,540.3L-432.2,540.3z"/>
			<path id="consultancy" class="st7" d="M-432.2,689.8c273.6,0,273.6-25.5,547.2-25.5c15.2,0,15.2,0,30.5,0
				c151.2,0,151.2-53.9,302.4-53.9v50.9c-151.2,0-151.2,28.5-302.4,28.5c-15.2,0-15.2,0-30.5,0
				C-158.6,689.8-158.6,689.8-432.2,689.8z"/>
		</g>
	</g>
	<g id="job_headers">
		<g id="sa" class="st9">
			<g id="text_00000174564738127953459280000000307369885332972717_" class="st10">
				<path d="M0.1,62.4c-0.2,0.1-0.4,0.2-0.7,0.3c-0.3,0.1-0.6,0.2-0.9,0.3s-0.7,0.1-1,0.1c-0.4,0-0.8-0.1-1.2-0.2
					c-0.4-0.2-0.7-0.4-0.9-0.7c-0.2-0.3-0.3-0.8-0.3-1.3v-6.2h-1.3v-1.6h1.3v-3.3h2.1v3.3h2.2v1.6h-2.2v5.5c0,0.3,0.1,0.6,0.3,0.8
					c0.2,0.2,0.4,0.2,0.7,0.2S-1.2,61.1-1,61c0.3-0.1,0.5-0.2,0.6-0.2L0.1,62.4z"/>
			</g>
			
				<rect id="column_00000060753126442441401160000015392577541956750472_" x="-165.2" y="110.6" class="st11" width="218.3" height="579.2"/>
		</g>
		<g id="haas_00000088848808157528006880000009866067877111524250_" class="st8">
			<g id="text">
				<path d="M80.5,72.2v13.5h-1.3v-6.3h-8v6.3h-1.3V72.2h1.3v6h8v-6H80.5z"/>
				<path d="M82.7,82.8c0-0.6,0.2-1.1,0.5-1.6c0.4-0.4,0.8-0.8,1.5-1s1.4-0.4,2.2-0.4c0.5,0,1,0,1.5,0.1s1,0.2,1.4,0.3v-0.8
					c0-0.8-0.2-1.5-0.7-2s-1.2-0.7-2.1-0.7c-0.5,0-1.1,0.1-1.6,0.3s-1,0.5-1.6,0.9L83.3,77c0.6-0.4,1.3-0.8,1.9-1
					c0.6-0.2,1.3-0.3,1.9-0.3c1.2,0,2.2,0.3,2.9,1s1.1,1.6,1.1,2.9v4.6c0,0.2,0,0.3,0.1,0.4s0.2,0.1,0.4,0.1v1c-0.1,0-0.3,0-0.4,0
					s-0.2,0-0.2,0c-0.3,0-0.6-0.1-0.7-0.3C90.1,85.2,90,85,90,84.8v-0.7c-0.4,0.6-1,1-1.7,1.3s-1.4,0.5-2.2,0.5
					c-0.6,0-1.2-0.1-1.7-0.4s-0.9-0.6-1.2-1.1C82.9,83.9,82.7,83.4,82.7,82.8z M89.4,83.6c0.1-0.2,0.2-0.3,0.3-0.5s0.1-0.3,0.1-0.4
					v-1.4c-0.4-0.2-0.9-0.3-1.3-0.4c-0.5-0.1-0.9-0.1-1.4-0.1c-0.9,0-1.7,0.2-2.2,0.5S84,82.2,84,82.8c0,0.4,0.1,0.7,0.3,1
					s0.5,0.6,0.8,0.8s0.8,0.3,1.3,0.3c0.6,0,1.2-0.1,1.7-0.4C88.7,84.3,89.1,84,89.4,83.6z"/>
				<path d="M93.1,82.8c0-0.6,0.2-1.1,0.5-1.6c0.4-0.4,0.8-0.8,1.5-1s1.4-0.4,2.2-0.4c0.5,0,1,0,1.5,0.1s1,0.2,1.4,0.3v-0.8
					c0-0.8-0.2-1.5-0.7-2s-1.2-0.7-2.1-0.7c-0.5,0-1.1,0.1-1.6,0.3c-0.5,0.2-1,0.5-1.6,0.9L93.7,77c0.6-0.4,1.3-0.8,1.9-1
					c0.6-0.2,1.3-0.3,1.9-0.3c1.2,0,2.2,0.3,2.9,1s1.1,1.6,1.1,2.9v4.6c0,0.2,0,0.3,0.1,0.4s0.2,0.1,0.4,0.1v1c-0.1,0-0.3,0-0.4,0
					c-0.1,0-0.2,0-0.2,0c-0.3,0-0.6-0.1-0.7-0.3c-0.2-0.2-0.3-0.4-0.3-0.6v-0.7c-0.4,0.6-1,1-1.7,1.3s-1.4,0.5-2.2,0.5
					c-0.6,0-1.2-0.1-1.7-0.4s-0.9-0.6-1.2-1.1C93.2,83.9,93.1,83.4,93.1,82.8z M99.7,83.6c0.1-0.2,0.2-0.3,0.3-0.5s0.1-0.3,0.1-0.4
					v-1.4c-0.4-0.2-0.9-0.3-1.3-0.4c-0.5-0.1-0.9-0.1-1.4-0.1c-0.9,0-1.7,0.2-2.2,0.5c-0.6,0.4-0.9,0.9-0.9,1.5c0,0.4,0.1,0.7,0.3,1
					s0.5,0.6,0.8,0.8c0.4,0.2,0.8,0.3,1.3,0.3c0.6,0,1.2-0.1,1.7-0.4C99,84.3,99.4,84,99.7,83.6z"/>
				<path d="M107.5,85.8c-0.8,0-1.6-0.1-2.3-0.4s-1.3-0.7-1.8-1.2l0.5-0.9c0.6,0.5,1.1,0.9,1.7,1.1s1.2,0.4,1.8,0.4
					c0.8,0,1.4-0.2,1.9-0.5s0.7-0.8,0.7-1.3c0-0.4-0.1-0.7-0.4-0.9c-0.2-0.2-0.6-0.4-1-0.5s-1-0.3-1.6-0.4c-0.7-0.2-1.3-0.4-1.7-0.6
					c-0.5-0.2-0.8-0.5-1-0.8s-0.4-0.7-0.4-1.3c0-0.6,0.2-1.2,0.5-1.6s0.8-0.7,1.3-1c0.6-0.2,1.2-0.3,1.9-0.3c0.8,0,1.4,0.1,2,0.4
					c0.6,0.2,1.1,0.6,1.4,1l-0.6,0.9c-0.4-0.4-0.8-0.7-1.3-0.9c-0.5-0.2-1-0.3-1.6-0.3c-0.4,0-0.8,0.1-1.2,0.2s-0.7,0.3-0.9,0.5
					s-0.4,0.6-0.4,1s0.1,0.6,0.3,0.8s0.4,0.4,0.8,0.5s0.8,0.3,1.3,0.4c0.7,0.2,1.4,0.4,2,0.6s1,0.5,1.3,0.8s0.5,0.8,0.5,1.4
					c0,0.9-0.3,1.6-1,2.2C109.5,85.6,108.6,85.8,107.5,85.8z"/>
				<path d="M126.4,74.7c-0.2-0.2-0.4-0.4-0.7-0.6s-0.5-0.3-0.9-0.4c-0.3-0.1-0.7-0.2-1-0.3c-0.4-0.1-0.7-0.1-1.1-0.1
					c-1.2,0-2,0.2-2.6,0.7c-0.6,0.4-0.8,1.1-0.8,1.8c0,0.5,0.1,0.9,0.4,1.3c0.3,0.3,0.7,0.6,1.2,0.7c0.6,0.2,1.3,0.4,2.1,0.6
					c1,0.2,1.8,0.4,2.5,0.7c0.7,0.3,1.2,0.7,1.6,1.1s0.6,1.1,0.6,1.9c0,0.6-0.1,1.2-0.4,1.6c-0.2,0.5-0.6,0.8-1,1.1
					c-0.4,0.3-0.9,0.5-1.5,0.7s-1.2,0.2-2,0.2c-0.7,0-1.4-0.1-2-0.2s-1.2-0.4-1.8-0.6c-0.6-0.3-1.1-0.6-1.6-1.1l0.7-1.1
					c0.2,0.3,0.5,0.5,0.9,0.7c0.3,0.2,0.7,0.4,1.1,0.6c0.4,0.2,0.9,0.3,1.3,0.4c0.5,0.1,1,0.1,1.5,0.1c1.1,0,1.9-0.2,2.5-0.6
					s0.9-1,0.9-1.7c0-0.6-0.2-1-0.5-1.3s-0.8-0.6-1.4-0.8c-0.6-0.2-1.4-0.4-2.2-0.6c-0.9-0.2-1.7-0.5-2.4-0.7s-1.1-0.6-1.5-1.1
					c-0.3-0.4-0.5-1-0.5-1.7c0-0.8,0.2-1.5,0.6-2.1c0.4-0.6,1-1,1.7-1.3s1.6-0.4,2.5-0.4c0.6,0,1.1,0.1,1.7,0.2s1,0.3,1.4,0.5
					s0.8,0.5,1.2,0.9L126.4,74.7z"/>
				<path d="M134.1,85.8c-0.7,0-1.4-0.1-2-0.4s-1.1-0.6-1.6-1.1s-0.8-1-1-1.6s-0.4-1.3-0.4-2c0-0.9,0.2-1.8,0.6-2.6s1-1.4,1.7-1.8
					c0.7-0.5,1.6-0.7,2.6-0.7c0.9,0,1.7,0.2,2.5,0.6c0.7,0.4,1.2,1,1.6,1.7l-1.3,0.4c-0.3-0.5-0.7-0.9-1.2-1.2s-1.1-0.4-1.7-0.4
					c-0.7,0-1.3,0.2-1.8,0.5s-1,0.8-1.3,1.4s-0.5,1.3-0.5,2s0.2,1.4,0.5,2s0.8,1.1,1.3,1.4c0.5,0.4,1.1,0.5,1.8,0.5
					c0.4,0,0.8-0.1,1.2-0.2c0.4-0.2,0.7-0.4,1-0.6c0.3-0.3,0.5-0.5,0.6-0.8l1.3,0.4c-0.2,0.5-0.5,0.9-0.9,1.3s-0.9,0.7-1.4,0.9
					C135.3,85.7,134.7,85.8,134.1,85.8z"/>
				<path d="M148.5,85.7h-1.3v-5.5c0-1.1-0.2-1.9-0.6-2.5c-0.4-0.6-1-0.8-1.7-0.8c-0.5,0-1,0.1-1.4,0.4c-0.5,0.2-0.9,0.6-1.3,1
					s-0.6,0.9-0.8,1.4v6h-1.3V71.8h1.3v6.3c0.4-0.7,0.9-1.3,1.6-1.7s1.5-0.7,2.3-0.7c0.6,0,1.1,0.1,1.5,0.3c0.4,0.2,0.7,0.5,1,0.9
					c0.2,0.4,0.4,0.8,0.5,1.3s0.2,1.1,0.2,1.7V85.7L148.5,85.7z"/>
				<path d="M155.5,85.8c-0.7,0-1.4-0.1-2-0.4s-1.1-0.6-1.6-1.1c-0.4-0.5-0.8-1-1-1.6s-0.4-1.3-0.4-1.9c0-0.7,0.1-1.4,0.4-2
					c0.2-0.6,0.6-1.2,1-1.6c0.4-0.5,1-0.8,1.6-1.1s1.3-0.4,2-0.4s1.4,0.1,2,0.4s1.1,0.6,1.6,1.1c0.4,0.5,0.8,1,1,1.6s0.4,1.3,0.4,2
					s-0.1,1.3-0.4,1.9s-0.6,1.2-1,1.6c-0.4,0.5-1,0.8-1.6,1.1C156.9,85.7,156.2,85.8,155.5,85.8z M151.9,80.8c0,0.7,0.2,1.4,0.5,2
					s0.8,1.1,1.3,1.4s1.1,0.5,1.8,0.5s1.3-0.2,1.8-0.5s1-0.8,1.3-1.4s0.5-1.3,0.5-2s-0.2-1.4-0.5-2s-0.8-1.1-1.3-1.4
					c-0.5-0.4-1.1-0.5-1.8-0.5s-1.3,0.2-1.8,0.5c-0.5,0.4-1,0.8-1.3,1.4S151.9,80,151.9,80.8z"/>
				<path d="M166.8,85.8c-0.7,0-1.4-0.1-2-0.4s-1.1-0.6-1.6-1.1c-0.4-0.5-0.8-1-1-1.6s-0.4-1.3-0.4-1.9c0-0.7,0.1-1.4,0.4-2
					c0.2-0.6,0.6-1.2,1-1.6c0.4-0.5,1-0.8,1.6-1.1s1.3-0.4,2-0.4s1.4,0.1,2,0.4s1.1,0.6,1.6,1.1c0.4,0.5,0.8,1,1,1.6s0.4,1.3,0.4,2
					s-0.1,1.3-0.4,1.9s-0.6,1.2-1,1.6c-0.4,0.5-1,0.8-1.6,1.1C168.2,85.7,167.5,85.8,166.8,85.8z M163.2,80.8c0,0.7,0.2,1.4,0.5,2
					s0.8,1.1,1.3,1.4s1.1,0.5,1.8,0.5s1.3-0.2,1.8-0.5s1-0.8,1.3-1.4s0.5-1.3,0.5-2s-0.2-1.4-0.5-2s-0.8-1.1-1.3-1.4
					c-0.5-0.4-1.1-0.5-1.8-0.5s-1.3,0.2-1.8,0.5c-0.5,0.4-1,0.8-1.3,1.4S163.2,80,163.2,80.8z"/>
				<path d="M174,71.8h1.3v11.7c0,0.5,0.1,0.8,0.3,1s0.4,0.2,0.6,0.2c0.2,0,0.5,0,0.7-0.1s0.4-0.1,0.6-0.2l0.2,1
					c-0.2,0.1-0.5,0.2-0.9,0.2s-0.6,0.1-0.9,0.1c-0.6,0-1-0.2-1.4-0.5c-0.3-0.3-0.5-0.8-0.5-1.4L174,71.8L174,71.8z"/>
				<path d="M187.6,85.8c-0.7,0-1.4-0.1-2-0.4s-1.1-0.6-1.6-1.1c-0.4-0.5-0.8-1-1-1.6s-0.4-1.3-0.4-1.9c0-0.7,0.1-1.4,0.4-2
					c0.2-0.6,0.6-1.2,1-1.6c0.4-0.5,1-0.8,1.6-1.1s1.3-0.4,2-0.4s1.4,0.1,2,0.4s1.1,0.6,1.6,1.1c0.4,0.5,0.8,1,1,1.6s0.4,1.3,0.4,2
					s-0.1,1.3-0.4,1.9c-0.2,0.6-0.6,1.2-1,1.6c-0.4,0.5-1,0.8-1.6,1.1C189,85.7,188.3,85.8,187.6,85.8z M184,80.8
					c0,0.7,0.2,1.4,0.5,2s0.8,1.1,1.3,1.4s1.1,0.5,1.8,0.5s1.3-0.2,1.8-0.5c0.5-0.4,1-0.8,1.3-1.4s0.5-1.3,0.5-2s-0.2-1.4-0.5-2
					s-0.8-1.1-1.3-1.4c-0.5-0.4-1.1-0.5-1.8-0.5s-1.3,0.2-1.8,0.5c-0.5,0.4-1,0.8-1.3,1.4C184.1,79.4,184,80,184,80.8z"/>
				<path d="M195,85.7v-8.9h-1.4v-1h1.4v-0.3c0-0.8,0.1-1.5,0.4-2.1s0.6-1,1-1.3s1-0.5,1.5-0.5c0.4,0,0.8,0.1,1.1,0.2
					c0.4,0.1,0.7,0.3,1,0.5l-0.4,0.9c-0.2-0.1-0.4-0.2-0.6-0.3s-0.5-0.1-0.8-0.1c-0.6,0-1.1,0.2-1.4,0.7c-0.3,0.5-0.5,1.1-0.5,2v0.3
					h2.7v1h-2.7v8.9L195,85.7L195,85.7z"/>
				<path d="M215.6,82.2c0,0.7-0.2,1.3-0.5,1.8s-0.8,0.9-1.4,1.2c-0.6,0.3-1.2,0.4-1.9,0.4h-6.4V72.1h6.5c0.6,0,1.2,0.2,1.6,0.5
					c0.5,0.3,0.8,0.8,1.1,1.3s0.4,1.1,0.4,1.6c0,0.7-0.2,1.3-0.5,1.9s-0.8,1-1.4,1.3c0.8,0.2,1.4,0.7,1.8,1.3
					C215.4,80.6,215.6,81.4,215.6,82.2z M206.8,73.3v5h4.6c0.4,0,0.8-0.1,1.2-0.4s0.6-0.5,0.8-0.9s0.3-0.8,0.3-1.2
					c0-0.5-0.1-0.9-0.3-1.2c-0.2-0.4-0.4-0.7-0.8-0.9c-0.3-0.2-0.7-0.3-1.1-0.3C211.5,73.3,206.8,73.3,206.8,73.3z M214.3,82
					c0-0.5-0.1-0.9-0.3-1.3s-0.5-0.7-0.8-0.9c-0.3-0.2-0.7-0.4-1.2-0.4h-5.2v5.1h5c0.5,0,0.9-0.1,1.2-0.4c0.4-0.2,0.7-0.6,0.9-0.9
					C214.2,82.8,214.3,82.4,214.3,82z"/>
				<path d="M217.7,81.6v-5.8h1.3v5.6c0,1.1,0.2,2,0.6,2.5s1,0.8,1.7,0.8c0.5,0,1-0.1,1.5-0.3c0.5-0.2,0.9-0.5,1.3-0.9
					c0.4-0.4,0.6-0.9,0.8-1.4v-6.3h1.3v8.3c0,0.2,0,0.3,0.1,0.4s0.2,0.1,0.3,0.1v1c-0.2,0-0.3,0-0.4,0c-0.1,0-0.2,0-0.2,0
					c-0.3,0-0.5-0.1-0.7-0.3s-0.3-0.4-0.3-0.6v-1.3c-0.4,0.8-1,1.3-1.8,1.8c-0.7,0.4-1.5,0.6-2.4,0.6c-1,0-1.8-0.4-2.4-1.1
					C218,84,217.7,83,217.7,81.6z"/>
				<path d="M232.4,85.8c-0.8,0-1.6-0.1-2.3-0.4s-1.3-0.7-1.8-1.2l0.5-0.9c0.6,0.5,1.1,0.9,1.7,1.1s1.2,0.4,1.8,0.4
					c0.8,0,1.4-0.2,1.9-0.5s0.7-0.8,0.7-1.3c0-0.4-0.1-0.7-0.4-0.9c-0.2-0.2-0.6-0.4-1-0.5s-1-0.3-1.6-0.4c-0.7-0.2-1.3-0.4-1.7-0.6
					c-0.5-0.2-0.8-0.5-1-0.8s-0.4-0.7-0.4-1.3c0-0.6,0.2-1.2,0.5-1.6s0.8-0.7,1.3-1c0.6-0.2,1.2-0.3,1.9-0.3c0.8,0,1.4,0.1,2,0.4
					c0.6,0.2,1.1,0.6,1.4,1l-0.6,0.9c-0.4-0.4-0.8-0.7-1.3-0.9c-0.5-0.2-1-0.3-1.6-0.3c-0.4,0-0.8,0.1-1.2,0.2s-0.7,0.3-0.9,0.5
					s-0.4,0.6-0.4,1s0.1,0.6,0.3,0.8s0.4,0.4,0.8,0.5s0.8,0.3,1.3,0.4c0.7,0.2,1.4,0.4,2,0.6s1,0.5,1.3,0.8s0.5,0.8,0.5,1.4
					c0,0.9-0.3,1.6-1,2.2C234.4,85.6,233.5,85.8,232.4,85.8z"/>
				<path d="M238.3,73.7v-1.9h1.3v1.9H238.3z M238.3,85.7v-9.9h1.3v9.9H238.3z"/>
				<path d="M250.8,85.7h-1.3v-5.5c0-1.2-0.2-2-0.5-2.5s-0.9-0.8-1.6-0.8c-0.5,0-1,0.1-1.5,0.4c-0.5,0.2-0.9,0.6-1.3,1
					c-0.4,0.4-0.6,0.9-0.8,1.4v6h-1.3v-9.9h1.2V78c0.3-0.5,0.6-0.9,1-1.3s0.9-0.6,1.5-0.8c0.5-0.2,1.1-0.3,1.7-0.3
					c0.5,0,1,0.1,1.4,0.3c0.4,0.2,0.7,0.5,0.9,0.9s0.4,0.8,0.5,1.3s0.2,1.1,0.2,1.7L250.8,85.7L250.8,85.7z"/>
				<path d="M257.8,85.8c-0.7,0-1.4-0.1-2-0.4s-1.1-0.6-1.6-1.1c-0.4-0.5-0.8-1-1-1.6s-0.4-1.3-0.4-2c0-0.9,0.2-1.8,0.6-2.5
					c0.4-0.8,1-1.4,1.8-1.8c0.7-0.5,1.6-0.7,2.5-0.7c1,0,1.8,0.2,2.6,0.7c0.7,0.5,1.3,1.1,1.7,1.8c0.4,0.8,0.6,1.6,0.6,2.5
					c0,0.1,0,0.2,0,0.3c0,0.1,0,0.2,0,0.2h-8.5c0.1,0.7,0.3,1.3,0.6,1.9s0.8,1,1.3,1.3s1.1,0.5,1.8,0.5c0.6,0,1.3-0.2,1.8-0.5
					s1-0.8,1.2-1.3l1.1,0.3c-0.2,0.5-0.5,0.9-0.9,1.3s-0.9,0.7-1.5,0.9S258.4,85.8,257.8,85.8z M254.1,80.3h7.3
					c-0.1-0.7-0.2-1.3-0.6-1.9c-0.3-0.5-0.8-1-1.3-1.3s-1.1-0.5-1.8-0.5s-1.2,0.2-1.8,0.5c-0.5,0.3-1,0.7-1.3,1.3
					C254.4,78.9,254.2,79.6,254.1,80.3z"/>
				<path d="M267.9,85.8c-0.8,0-1.6-0.1-2.3-0.4s-1.3-0.7-1.8-1.2l0.5-0.9c0.6,0.5,1.1,0.9,1.7,1.1s1.2,0.4,1.8,0.4
					c0.8,0,1.4-0.2,1.9-0.5s0.7-0.8,0.7-1.3c0-0.4-0.1-0.7-0.4-0.9s-0.6-0.4-1-0.5s-1-0.3-1.6-0.4c-0.7-0.2-1.3-0.4-1.7-0.6
					c-0.5-0.2-0.8-0.5-1-0.8s-0.4-0.7-0.4-1.3c0-0.6,0.2-1.2,0.5-1.6s0.8-0.7,1.3-1c0.6-0.2,1.2-0.3,1.9-0.3c0.8,0,1.4,0.1,2,0.4
					c0.6,0.2,1.1,0.6,1.4,1l-0.6,0.9c-0.4-0.4-0.8-0.7-1.3-0.9c-0.5-0.2-1-0.3-1.6-0.3c-0.4,0-0.8,0.1-1.2,0.2s-0.7,0.3-0.9,0.5
					s-0.4,0.6-0.4,1s0.1,0.6,0.3,0.8c0.2,0.2,0.4,0.4,0.8,0.5c0.4,0.1,0.8,0.3,1.3,0.4c0.7,0.2,1.4,0.4,2,0.6s1,0.5,1.3,0.8
					s0.5,0.8,0.5,1.4c0,0.9-0.3,1.6-1,2.2C270,85.6,269.1,85.8,267.9,85.8z"/>
				<path d="M277.1,85.8c-0.8,0-1.6-0.1-2.3-0.4s-1.3-0.7-1.8-1.2l0.5-0.9c0.6,0.5,1.1,0.9,1.7,1.1s1.2,0.4,1.8,0.4
					c0.8,0,1.4-0.2,1.9-0.5s0.7-0.8,0.7-1.3c0-0.4-0.1-0.7-0.4-0.9s-0.6-0.4-1-0.5s-1-0.3-1.6-0.4c-0.7-0.2-1.3-0.4-1.7-0.6
					c-0.5-0.2-0.8-0.5-1-0.8s-0.4-0.7-0.4-1.3c0-0.6,0.2-1.2,0.5-1.6s0.8-0.7,1.3-1c0.6-0.2,1.2-0.3,1.9-0.3c0.8,0,1.4,0.1,2,0.4
					c0.6,0.2,1.1,0.6,1.4,1l-0.6,0.9c-0.4-0.4-0.8-0.7-1.3-0.9c-0.5-0.2-1-0.3-1.6-0.3c-0.4,0-0.8,0.1-1.2,0.2s-0.7,0.3-0.9,0.5
					s-0.4,0.6-0.4,1s0.1,0.6,0.3,0.8c0.2,0.2,0.4,0.4,0.8,0.5c0.4,0.1,0.8,0.3,1.3,0.4c0.7,0.2,1.4,0.4,2,0.6s1,0.5,1.3,0.8
					s0.5,0.8,0.5,1.4c0,0.9-0.3,1.6-1,2.2C279.2,85.6,278.2,85.8,277.1,85.8z"/>
				<path d="M24.4,49.4h2l5.2,13.5h-2.2l-1.3-3.7h-5.4l-1.3,3.7h-2.3L24.4,49.4z M27.5,57.6l-2.1-5.9l-2.1,5.9H27.5z"/>
				<path d="M36.4,63c-0.8,0-1.6-0.1-2.4-0.4c-0.7-0.3-1.4-0.7-1.9-1.2l0.8-1.4c0.6,0.5,1.1,0.9,1.7,1.1s1.1,0.3,1.7,0.3
					s1.1-0.1,1.4-0.3c0.4-0.2,0.6-0.5,0.6-1c0-0.3-0.1-0.5-0.3-0.7s-0.5-0.3-0.8-0.4c-0.4-0.1-0.8-0.2-1.3-0.4
					c-0.7-0.2-1.3-0.4-1.8-0.7c-0.5-0.2-0.8-0.5-1.1-0.9s-0.4-0.8-0.4-1.3c0-0.6,0.2-1.2,0.5-1.6c0.3-0.5,0.8-0.8,1.4-1
					s1.3-0.4,2-0.4s1.4,0.1,2,0.3s1.2,0.6,1.6,1l-0.9,1.4c-0.4-0.4-0.9-0.7-1.4-0.9c-0.5-0.2-1-0.3-1.5-0.3c-0.3,0-0.6,0-0.9,0.1
					s-0.5,0.2-0.7,0.4s-0.3,0.4-0.3,0.8c0,0.3,0.1,0.5,0.2,0.6s0.4,0.3,0.7,0.4c0.3,0.1,0.7,0.2,1.1,0.4c0.8,0.2,1.4,0.4,2,0.7
					c0.5,0.2,1,0.5,1.3,0.8s0.4,0.8,0.4,1.4c0,1-0.4,1.7-1.1,2.2C38.6,62.8,37.6,63,36.4,63z"/>
				<path d="M45.8,63c-0.8,0-1.6-0.1-2.4-0.4c-0.7-0.3-1.4-0.7-1.9-1.2l0.8-1.4c0.6,0.5,1.1,0.9,1.7,1.1s1.1,0.3,1.7,0.3
					c0.6,0,1.1-0.1,1.4-0.3c0.4-0.2,0.6-0.5,0.6-1c0-0.3-0.1-0.5-0.3-0.7s-0.5-0.3-0.8-0.4c-0.4-0.1-0.8-0.2-1.3-0.4
					c-0.7-0.2-1.3-0.4-1.8-0.7c-0.5-0.2-0.8-0.5-1.1-0.9S42,56.2,42,55.7c0-0.6,0.2-1.2,0.5-1.6c0.3-0.5,0.8-0.8,1.4-1
					s1.3-0.4,2-0.4s1.4,0.1,2,0.3s1.2,0.6,1.6,1l-0.9,1.4c-0.4-0.4-0.9-0.7-1.4-0.9c-0.5-0.2-1-0.3-1.5-0.3c-0.3,0-0.6,0-0.9,0.1
					c-0.3,0.1-0.5,0.2-0.7,0.4s-0.3,0.4-0.3,0.8c0,0.3,0.1,0.5,0.2,0.6s0.4,0.3,0.7,0.4c0.3,0.1,0.7,0.2,1.1,0.4
					c0.8,0.2,1.4,0.4,2,0.7c0.5,0.2,1,0.5,1.3,0.8s0.4,0.8,0.4,1.4c0,1-0.4,1.7-1.1,2.2C47.9,62.8,47,63,45.8,63z"/>
				<path d="M56,63c-0.8,0-1.5-0.1-2.1-0.4s-1.2-0.6-1.6-1.1s-0.8-1-1-1.6s-0.4-1.3-0.4-1.9s0.1-1.3,0.4-2c0.2-0.6,0.6-1.2,1-1.6
					c0.5-0.5,1-0.8,1.6-1.1s1.3-0.4,2.1-0.4s1.5,0.1,2.1,0.4s1.2,0.6,1.6,1.1s0.8,1,1,1.6s0.4,1.3,0.4,2s-0.1,1.3-0.4,1.9
					c-0.2,0.6-0.6,1.2-1,1.6s-1,0.9-1.6,1.1S56.8,63,56,63z M53.1,58c0,0.6,0.1,1.2,0.4,1.7c0.3,0.5,0.6,0.9,1.1,1.2
					s0.9,0.4,1.5,0.4c0.5,0,1-0.1,1.5-0.4s0.8-0.7,1.1-1.2s0.4-1.1,0.4-1.7s-0.1-1.2-0.4-1.7c-0.3-0.5-0.6-0.9-1.1-1.2
					c-0.5-0.3-0.9-0.4-1.5-0.4s-1.1,0.1-1.5,0.4s-0.8,0.7-1.1,1.2S53.1,57.3,53.1,58z"/>
				<path d="M67.5,63c-0.8,0-1.5-0.1-2.1-0.4s-1.2-0.6-1.6-1.1c-0.5-0.5-0.8-1-1.1-1.6s-0.4-1.3-0.4-2c0-0.9,0.2-1.8,0.6-2.5
					c0.4-0.8,1-1.4,1.8-1.8c0.8-0.5,1.7-0.7,2.7-0.7s1.9,0.2,2.7,0.7c0.8,0.4,1.3,1,1.7,1.8l-2,0.6c-0.2-0.4-0.5-0.7-1-1
					c-0.4-0.2-0.9-0.4-1.4-0.4c-0.6,0-1.1,0.1-1.5,0.4c-0.5,0.3-0.8,0.7-1.1,1.2s-0.4,1.1-0.4,1.7s0.1,1.2,0.4,1.7
					c0.3,0.5,0.6,0.9,1.1,1.2c0.4,0.3,1,0.4,1.5,0.4c0.3,0,0.7-0.1,1-0.2s0.6-0.3,0.8-0.5s0.4-0.4,0.5-0.7l2.1,0.6
					c-0.2,0.5-0.5,0.9-1,1.3s-0.9,0.7-1.5,0.9C68.9,62.9,68.2,63,67.5,63z"/>
				<path d="M73.6,51.3V49h2.1v2.3H73.6z M73.6,62.9V53h2.1v9.9H73.6z"/>
				<path d="M77.5,60c0-0.6,0.2-1.2,0.5-1.6c0.4-0.5,0.9-0.8,1.5-1.1c0.6-0.3,1.4-0.4,2.2-0.4c0.4,0,0.9,0,1.4,0.1s0.9,0.2,1.2,0.3
					v-0.6c0-0.7-0.2-1.2-0.6-1.6s-1-0.6-1.8-0.6c-0.6,0-1.1,0.1-1.6,0.3s-1,0.5-1.6,0.8L78,54.2c0.7-0.4,1.3-0.8,2-1
					s1.4-0.3,2.1-0.3c1.3,0,2.4,0.3,3.1,1c0.8,0.7,1.1,1.7,1.1,3v3.7c0,0.2,0,0.4,0.1,0.5s0.2,0.2,0.4,0.2V63
					c-0.2,0-0.4,0.1-0.5,0.1c-0.2,0-0.3,0-0.4,0c-0.4,0-0.8-0.1-1-0.3c-0.2-0.2-0.4-0.5-0.4-0.8l-0.1-0.6c-0.4,0.6-1,1-1.7,1.3
					s-1.3,0.5-2,0.5s-1.2-0.1-1.8-0.4c-0.5-0.3-0.9-0.6-1.2-1.1C77.6,61.1,77.5,60.6,77.5,60z M83.8,60.6c0.2-0.2,0.3-0.3,0.4-0.5
					c0.1-0.2,0.1-0.3,0.1-0.4v-1.1c-0.4-0.1-0.7-0.2-1.1-0.3s-0.8-0.1-1.2-0.1c-0.8,0-1.4,0.2-1.9,0.4c-0.5,0.3-0.7,0.7-0.7,1.2
					c0,0.3,0.1,0.6,0.2,0.8c0.2,0.3,0.4,0.5,0.7,0.6c0.3,0.2,0.7,0.2,1.1,0.2c0.5,0,0.9-0.1,1.3-0.3S83.6,60.8,83.8,60.6z"/>
				<path d="M94.4,62.4c-0.2,0.1-0.4,0.2-0.7,0.3c-0.3,0.1-0.6,0.2-0.9,0.3c-0.3,0.1-0.7,0.1-1,0.1c-0.4,0-0.8-0.1-1.2-0.2
					c-0.4-0.2-0.7-0.4-0.9-0.7c-0.2-0.3-0.3-0.8-0.3-1.3v-6.2h-1.3v-1.6h1.3v-3.3h2.1v3.3h2.2v1.6h-2.2v5.5c0,0.3,0.1,0.6,0.3,0.8
					c0.2,0.2,0.4,0.2,0.7,0.2s0.6-0.1,0.8-0.2c0.3-0.1,0.5-0.2,0.6-0.2L94.4,62.4z"/>
				<path d="M100.2,63c-0.8,0-1.5-0.1-2.1-0.4s-1.2-0.6-1.6-1.1c-0.5-0.5-0.8-1-1.1-1.6c-0.2-0.6-0.4-1.3-0.4-2
					c0-0.9,0.2-1.8,0.6-2.5s1-1.4,1.8-1.9s1.7-0.7,2.7-0.7s1.9,0.2,2.7,0.7s1.3,1.1,1.8,1.9s0.6,1.6,0.6,2.5c0,0.2,0,0.3,0,0.4
					s0,0.2,0,0.3h-8c0,0.6,0.2,1.1,0.5,1.5s0.6,0.8,1.1,1c0.4,0.2,0.9,0.4,1.4,0.4c0.6,0,1.1-0.1,1.6-0.4s0.8-0.6,1-1.1l1.8,0.5
					c-0.2,0.5-0.5,0.9-1,1.3c-0.4,0.4-1,0.7-1.5,0.9C101.5,62.9,100.9,63,100.2,63z M97.2,57.2h6c0-0.6-0.2-1.1-0.5-1.5
					s-0.6-0.8-1.1-1s-0.9-0.4-1.5-0.4c-0.5,0-1,0.1-1.4,0.4s-0.8,0.6-1.1,1C97.4,56.2,97.3,56.7,97.2,57.2z"/>
				<path d="M112,62.9V49.4h4.8c1.5,0,2.7,0.3,3.6,0.9c1,0.6,1.7,1.4,2.2,2.4s0.7,2.2,0.7,3.4c0,1.4-0.3,2.6-0.8,3.6
					s-1.3,1.8-2.3,2.4s-2.1,0.8-3.5,0.8C116.7,62.9,112,62.9,112,62.9z M121.2,56.1c0-0.9-0.2-1.8-0.5-2.5s-0.8-1.3-1.5-1.7
					c-0.7-0.4-1.4-0.6-2.4-0.6h-2.7V61h2.7c0.9,0,1.8-0.2,2.4-0.6c0.7-0.4,1.1-1,1.5-1.7C121,57.8,121.2,57,121.2,56.1z"/>
				<path d="M125.3,51.3V49h2.1v2.3H125.3z M125.3,62.9V53h2.1v9.9H125.3z"/>
				<path d="M135.5,54.7c-0.8,0-1.5,0.2-2.2,0.6s-1.1,0.9-1.3,1.5v6.1h-2.1V53h1.9v2.1c0.3-0.7,0.8-1.2,1.3-1.6
					c0.6-0.4,1.1-0.6,1.8-0.7c0.1,0,0.2,0,0.3,0s0.2,0,0.2,0L135.5,54.7L135.5,54.7z"/>
				<path d="M141.3,63c-0.8,0-1.5-0.1-2.1-0.4s-1.2-0.6-1.6-1.1c-0.5-0.5-0.8-1-1.1-1.6c-0.2-0.6-0.4-1.3-0.4-2
					c0-0.9,0.2-1.8,0.6-2.5s1-1.4,1.8-1.9s1.7-0.7,2.7-0.7s1.9,0.2,2.7,0.7s1.3,1.1,1.8,1.9s0.6,1.6,0.6,2.5c0,0.2,0,0.3,0,0.4
					s0,0.2,0,0.3h-8c0,0.6,0.2,1.1,0.5,1.5s0.6,0.8,1.1,1c0.4,0.2,0.9,0.4,1.4,0.4c0.6,0,1.1-0.1,1.6-0.4s0.8-0.6,1-1.1l1.8,0.5
					c-0.2,0.5-0.5,0.9-1,1.3c-0.4,0.4-1,0.7-1.5,0.9C142.7,62.9,142,63,141.3,63z M138.3,57.2h6c0-0.6-0.2-1.1-0.5-1.5
					s-0.6-0.8-1.1-1s-0.9-0.4-1.5-0.4c-0.5,0-1,0.1-1.4,0.4s-0.8,0.6-1.1,1C138.5,56.2,138.4,56.7,138.3,57.2z"/>
				<path d="M152.6,63c-0.8,0-1.5-0.1-2.1-0.4s-1.2-0.6-1.6-1.1c-0.5-0.5-0.8-1-1.1-1.6s-0.4-1.3-0.4-2c0-0.9,0.2-1.8,0.6-2.5
					s1-1.4,1.8-1.8c0.8-0.5,1.7-0.7,2.7-0.7s1.9,0.2,2.7,0.7c0.8,0.4,1.3,1,1.7,1.8l-2,0.6c-0.2-0.4-0.5-0.7-1-1
					c-0.4-0.2-0.9-0.4-1.4-0.4c-0.6,0-1.1,0.1-1.5,0.4s-0.8,0.7-1.1,1.2s-0.4,1.1-0.4,1.7s0.1,1.2,0.4,1.7c0.3,0.5,0.6,0.9,1.1,1.2
					c0.4,0.3,1,0.4,1.5,0.4c0.3,0,0.7-0.1,1-0.2s0.6-0.3,0.8-0.5s0.4-0.4,0.5-0.7l2.1,0.6c-0.2,0.5-0.5,0.9-1,1.3
					c-0.4,0.4-0.9,0.7-1.5,0.9C154,62.9,153.3,63,152.6,63z"/>
				<path d="M164.3,62.4c-0.2,0.1-0.4,0.2-0.7,0.3c-0.3,0.1-0.6,0.2-0.9,0.3c-0.3,0.1-0.7,0.1-1,0.1c-0.4,0-0.8-0.1-1.2-0.2
					s-0.7-0.4-0.9-0.7c-0.2-0.3-0.3-0.8-0.3-1.3v-6.2H158v-1.6h1.3v-3.3h2.1v3.3h2.2v1.6h-2.2v5.5c0,0.3,0.1,0.6,0.3,0.8
					c0.2,0.2,0.4,0.2,0.7,0.2s0.6-0.1,0.8-0.2s0.5-0.2,0.6-0.2L164.3,62.4z"/>
				<path d="M170,63c-0.8,0-1.5-0.1-2.1-0.4s-1.2-0.6-1.6-1.1c-0.4-0.5-0.8-1-1-1.6s-0.4-1.3-0.4-1.9s0.1-1.3,0.4-2
					c0.2-0.6,0.6-1.2,1-1.6c0.5-0.5,1-0.8,1.6-1.1s1.3-0.4,2.1-0.4s1.5,0.1,2.1,0.4s1.2,0.6,1.6,1.1c0.4,0.5,0.8,1,1,1.6
					s0.4,1.3,0.4,2s-0.1,1.3-0.4,1.9c-0.2,0.6-0.6,1.2-1,1.6c-0.5,0.5-1,0.9-1.6,1.1S170.8,63,170,63z M167.1,58
					c0,0.6,0.1,1.2,0.4,1.7c0.3,0.5,0.6,0.9,1.1,1.2s0.9,0.4,1.5,0.4c0.5,0,1-0.1,1.5-0.4s0.8-0.7,1.1-1.2s0.4-1.1,0.4-1.7
					s-0.1-1.2-0.4-1.7c-0.3-0.5-0.6-0.9-1.1-1.2c-0.4-0.3-0.9-0.4-1.5-0.4s-1.1,0.1-1.5,0.4s-0.8,0.7-1.1,1.2S167.1,57.3,167.1,58z"
					/>
				<path d="M182.6,54.7c-0.8,0-1.5,0.2-2.2,0.6s-1.1,0.9-1.3,1.5v6.1H177V53h1.9v2.1c0.3-0.7,0.8-1.2,1.3-1.6
					c0.6-0.4,1.1-0.6,1.8-0.7c0.1,0,0.2,0,0.3,0s0.2,0,0.2,0L182.6,54.7L182.6,54.7z"/>
				<path d="M192.9,63c-0.8,0-1.5-0.1-2.1-0.4s-1.2-0.6-1.6-1.1c-0.5-0.5-0.8-1-1-1.6s-0.4-1.3-0.4-1.9s0.1-1.3,0.4-2
					c0.2-0.6,0.6-1.2,1-1.6c0.4-0.5,1-0.8,1.6-1.1s1.3-0.4,2.1-0.4s1.5,0.1,2.1,0.4s1.2,0.6,1.6,1.1s0.8,1,1,1.6s0.4,1.3,0.4,2
					s-0.1,1.3-0.4,1.9c-0.2,0.6-0.6,1.2-1,1.6s-1,0.9-1.6,1.1S193.6,63,192.9,63z M189.9,58c0,0.6,0.1,1.2,0.4,1.7
					c0.3,0.5,0.6,0.9,1.1,1.2s0.9,0.4,1.5,0.4c0.5,0,1-0.1,1.5-0.4c0.4-0.3,0.8-0.7,1.1-1.2s0.4-1.1,0.4-1.7s-0.1-1.2-0.4-1.7
					c-0.3-0.5-0.6-0.9-1.1-1.2c-0.5-0.3-0.9-0.4-1.5-0.4s-1.1,0.1-1.5,0.4s-0.8,0.7-1.1,1.2S189.9,57.3,189.9,58z"/>
				<path d="M200.3,62.9v-8.1H199v-1.6h1.3v-0.4c0-0.8,0.1-1.5,0.4-2.1c0.3-0.6,0.6-1.1,1.1-1.4s1-0.5,1.7-0.5
					c0.4,0,0.8,0.1,1.2,0.2s0.8,0.3,1.1,0.4l-0.5,1.6c-0.2-0.1-0.4-0.2-0.7-0.3c-0.3-0.1-0.5-0.1-0.8-0.1c-0.5,0-0.9,0.2-1.1,0.6
					c-0.3,0.4-0.4,0.9-0.4,1.6v0.5h2.5v1.5h-2.5v8.1H200.3L200.3,62.9z"/>
				<path d="M211,62.9V49.4h4.8c1.5,0,2.7,0.3,3.6,0.9c1,0.6,1.7,1.4,2.2,2.4s0.7,2.2,0.7,3.4c0,1.4-0.3,2.6-0.8,3.6
					s-1.3,1.8-2.3,2.4s-2.1,0.8-3.5,0.8C215.7,62.9,211,62.9,211,62.9z M220.2,56.1c0-0.9-0.2-1.8-0.5-2.5s-0.8-1.3-1.5-1.7
					c-0.7-0.4-1.4-0.6-2.4-0.6h-2.7V61h2.7c1,0,1.8-0.2,2.4-0.6c0.7-0.4,1.1-1,1.5-1.7C220.1,57.8,220.2,57,220.2,56.1z"/>
				<path d="M223.5,60c0-0.6,0.2-1.2,0.5-1.6c0.4-0.5,0.9-0.8,1.5-1.1c0.6-0.3,1.4-0.4,2.2-0.4c0.4,0,0.9,0,1.4,0.1s0.9,0.2,1.2,0.3
					v-0.6c0-0.7-0.2-1.2-0.6-1.6s-1-0.6-1.8-0.6c-0.6,0-1.1,0.1-1.6,0.3c-0.5,0.2-1,0.5-1.6,0.8l-0.7-1.4c0.7-0.4,1.3-0.8,2-1
					s1.4-0.3,2.1-0.3c1.3,0,2.4,0.3,3.1,1c0.8,0.7,1.1,1.7,1.1,3v3.7c0,0.2,0,0.4,0.1,0.5s0.2,0.2,0.4,0.2V63
					c-0.2,0-0.4,0.1-0.5,0.1c-0.2,0-0.3,0-0.4,0c-0.4,0-0.8-0.1-1-0.3c-0.2-0.2-0.4-0.5-0.4-0.8l-0.1-0.6c-0.4,0.6-1,1-1.7,1.3
					s-1.3,0.5-2,0.5s-1.2-0.1-1.8-0.4c-0.5-0.3-0.9-0.6-1.2-1.1C223.7,61.1,223.5,60.6,223.5,60z M229.9,60.6
					c0.2-0.2,0.3-0.3,0.4-0.5c0.1-0.2,0.1-0.3,0.1-0.4v-1.1c-0.4-0.1-0.7-0.2-1.1-0.3s-0.8-0.1-1.2-0.1c-0.8,0-1.4,0.2-1.9,0.4
					s-0.7,0.7-0.7,1.2c0,0.3,0.1,0.6,0.2,0.8c0.2,0.3,0.4,0.5,0.7,0.6s0.7,0.2,1.1,0.2c0.5,0,0.9-0.1,1.3-0.3S229.6,60.8,229.9,60.6
					z"/>
				<path d="M240.4,62.4c-0.2,0.1-0.4,0.2-0.7,0.3c-0.3,0.1-0.6,0.2-0.9,0.3c-0.3,0.1-0.7,0.1-1,0.1c-0.4,0-0.8-0.1-1.2-0.2
					s-0.7-0.4-0.9-0.7c-0.2-0.3-0.3-0.8-0.3-1.3v-6.2h-1.3v-1.6h1.3v-3.3h2.1v3.3h2.2v1.6h-2.2v5.5c0,0.3,0.1,0.6,0.3,0.8
					c0.2,0.2,0.4,0.2,0.7,0.2s0.6-0.1,0.8-0.2s0.5-0.2,0.6-0.2L240.4,62.4z"/>
				<path d="M241.1,60c0-0.6,0.2-1.2,0.5-1.6s0.9-0.8,1.5-1.1c0.6-0.3,1.4-0.4,2.2-0.4c0.4,0,0.9,0,1.4,0.1s0.9,0.2,1.2,0.3v-0.6
					c0-0.7-0.2-1.2-0.6-1.6s-1-0.6-1.8-0.6c-0.6,0-1.1,0.1-1.6,0.3s-1,0.5-1.6,0.8l-0.7-1.4c0.7-0.4,1.3-0.8,2-1s1.4-0.3,2.1-0.3
					c1.3,0,2.4,0.3,3.1,1c0.8,0.7,1.1,1.7,1.1,3v3.7c0,0.2,0,0.4,0.1,0.5s0.2,0.2,0.4,0.2V63c-0.2,0-0.4,0.1-0.5,0.1
					c-0.2,0-0.3,0-0.4,0c-0.4,0-0.8-0.1-1-0.3c-0.2-0.2-0.4-0.5-0.4-0.8l-0.1-0.6c-0.4,0.6-1,1-1.7,1.3s-1.3,0.5-2,0.5
					s-1.2-0.1-1.8-0.4s-0.9-0.6-1.2-1.1C241.3,61.1,241.1,60.6,241.1,60z M247.5,60.6c0.2-0.2,0.3-0.3,0.4-0.5s0.1-0.3,0.1-0.4v-1.1
					c-0.4-0.1-0.7-0.2-1.1-0.3s-0.8-0.1-1.2-0.1c-0.8,0-1.4,0.2-1.9,0.4c-0.5,0.3-0.7,0.7-0.7,1.2c0,0.3,0.1,0.6,0.2,0.8
					c0.2,0.3,0.4,0.5,0.7,0.6c0.3,0.2,0.7,0.2,1.1,0.2c0.5,0,0.9-0.1,1.3-0.3S247.2,60.8,247.5,60.6z"/>
				<path d="M260.8,49.4h2l5.2,13.5h-2.2l-1.3-3.7h-5.4l-1.3,3.7h-2.3L260.8,49.4z M264,57.6l-2.1-5.9l-2.1,5.9H264z"/>
				<path d="M278.4,62.9h-2.1v-5.5c0-0.9-0.1-1.6-0.4-2s-0.7-0.6-1.3-0.6c-0.4,0-0.8,0.1-1.2,0.3c-0.4,0.2-0.8,0.5-1.1,0.8
					s-0.5,0.7-0.7,1.2V63h-2.1v-9.9h1.9v2c0.3-0.4,0.6-0.8,1-1.1c0.4-0.3,0.9-0.6,1.4-0.7s1.1-0.3,1.7-0.3c0.6,0,1.1,0.1,1.5,0.3
					c0.4,0.2,0.7,0.5,0.9,0.9s0.4,0.8,0.5,1.3s0.1,1,0.1,1.5L278.4,62.9L278.4,62.9z"/>
				<path d="M280.1,60c0-0.6,0.2-1.2,0.5-1.6s0.9-0.8,1.5-1.1c0.6-0.3,1.4-0.4,2.2-0.4c0.4,0,0.9,0,1.4,0.1s0.9,0.2,1.2,0.3v-0.6
					c0-0.7-0.2-1.2-0.6-1.6s-1-0.6-1.8-0.6c-0.6,0-1.1,0.1-1.6,0.3s-1,0.5-1.6,0.8l-0.7-1.4c0.7-0.4,1.3-0.8,2-1s1.4-0.3,2.1-0.3
					c1.3,0,2.4,0.3,3.1,1c0.8,0.7,1.1,1.7,1.1,3v3.7c0,0.2,0,0.4,0.1,0.5s0.2,0.2,0.4,0.2V63c-0.2,0-0.4,0.1-0.5,0.1
					c-0.2,0-0.3,0-0.4,0c-0.4,0-0.8-0.1-1-0.3c-0.2-0.2-0.4-0.5-0.4-0.8l-0.1-0.6c-0.4,0.6-1,1-1.7,1.3s-1.3,0.5-2,0.5
					s-1.2-0.1-1.8-0.4s-0.9-0.6-1.2-1.1C280.3,61.1,280.1,60.6,280.1,60z M286.5,60.6c0.2-0.2,0.3-0.3,0.4-0.5s0.1-0.3,0.1-0.4v-1.1
					c-0.4-0.1-0.7-0.2-1.1-0.3s-0.8-0.1-1.2-0.1c-0.8,0-1.4,0.2-1.9,0.4c-0.5,0.3-0.7,0.7-0.7,1.2c0,0.3,0.1,0.6,0.2,0.8
					c0.2,0.3,0.4,0.5,0.7,0.6c0.3,0.2,0.7,0.2,1.1,0.2c0.5,0,0.9-0.1,1.3-0.3S286.2,60.8,286.5,60.6z"/>
				<path d="M291.6,49h2.1v11c0,0.5,0.1,0.8,0.2,1s0.3,0.2,0.6,0.2s0.5,0,0.7-0.1s0.4-0.1,0.6-0.2l0.3,1.7c-0.3,0.1-0.7,0.2-1.1,0.3
					c-0.4,0.1-0.8,0.1-1.1,0.1c-0.7,0-1.3-0.2-1.7-0.6s-0.6-1-0.6-1.7V49L291.6,49z"/>
				<path d="M297.2,65.2c0.2,0,0.4,0.1,0.6,0.1c0.2,0,0.3,0,0.4,0c0.2,0,0.4-0.1,0.6-0.2c0.2-0.1,0.3-0.4,0.5-0.7
					c0.2-0.4,0.4-0.9,0.6-1.5l-4.1-9.9h2.2l3,7.8l2.7-7.8h2l-4.5,12.2c-0.1,0.4-0.3,0.7-0.6,1s-0.6,0.6-1,0.7s-0.9,0.3-1.4,0.3
					c-0.2,0-0.3,0-0.5,0s-0.3-0.1-0.6-0.1L297.2,65.2L297.2,65.2z"/>
				<path d="M310.5,63c-0.8,0-1.6-0.1-2.4-0.4s-1.4-0.7-1.9-1.2L307,60c0.6,0.5,1.1,0.9,1.7,1.1c0.6,0.2,1.1,0.3,1.7,0.3
					c0.6,0,1.1-0.1,1.4-0.3c0.4-0.2,0.6-0.5,0.6-1c0-0.3-0.1-0.5-0.3-0.7s-0.5-0.3-0.8-0.4c-0.4-0.1-0.8-0.2-1.3-0.4
					c-0.7-0.2-1.3-0.4-1.8-0.7c-0.5-0.2-0.8-0.5-1.1-0.9c-0.2-0.3-0.4-0.8-0.4-1.3c0-0.6,0.2-1.2,0.5-1.6c0.3-0.5,0.8-0.8,1.4-1
					s1.3-0.4,2-0.4s1.4,0.1,2,0.3s1.2,0.6,1.6,1l-0.9,1.4c-0.4-0.4-0.9-0.7-1.4-0.9c-0.5-0.2-1-0.3-1.5-0.3c-0.3,0-0.6,0-0.9,0.1
					c-0.3,0.1-0.5,0.2-0.7,0.4s-0.3,0.4-0.3,0.8c0,0.3,0.1,0.5,0.2,0.6c0.2,0.2,0.4,0.3,0.7,0.4s0.7,0.2,1.1,0.4
					c0.8,0.2,1.4,0.4,2,0.7c0.5,0.2,1,0.5,1.3,0.8s0.4,0.8,0.4,1.4c0,1-0.4,1.7-1.1,2.2C312.7,62.8,311.7,63,310.5,63z"/>
				<path d="M316.3,51.3V49h2.1v2.3H316.3z M316.3,62.9V53h2.1v9.9H316.3z"/>
				<path d="M324.5,63c-0.8,0-1.6-0.1-2.4-0.4s-1.4-0.7-1.9-1.2L321,60c0.6,0.5,1.1,0.9,1.7,1.1c0.6,0.2,1.1,0.3,1.7,0.3
					c0.6,0,1.1-0.1,1.4-0.3c0.4-0.2,0.6-0.5,0.6-1c0-0.3-0.1-0.5-0.3-0.7s-0.5-0.3-0.8-0.4c-0.4-0.1-0.8-0.2-1.3-0.4
					c-0.7-0.2-1.3-0.4-1.8-0.7c-0.5-0.2-0.8-0.5-1.1-0.9c-0.2-0.3-0.4-0.8-0.4-1.3c0-0.6,0.2-1.2,0.5-1.6c0.3-0.5,0.8-0.8,1.4-1
					s1.3-0.4,2-0.4s1.4,0.1,2,0.3s1.2,0.6,1.6,1l-0.9,1.4c-0.4-0.4-0.9-0.7-1.4-0.9c-0.5-0.2-1-0.3-1.5-0.3c-0.3,0-0.6,0-0.9,0.1
					c-0.3,0.1-0.5,0.2-0.7,0.4s-0.3,0.4-0.3,0.8c0,0.3,0.1,0.5,0.2,0.6c0.2,0.2,0.4,0.3,0.7,0.4s0.7,0.2,1.1,0.4
					c0.8,0.2,1.4,0.4,2,0.7c0.5,0.2,1,0.5,1.3,0.8s0.4,0.8,0.4,1.4c0,1-0.4,1.7-1.1,2.2C326.6,62.8,325.6,63,324.5,63z"/>
			</g>
			<rect id="column_00000076567561814990707780000001535784009020222593_" y="110.6" class="st12" width="349.9" height="579.2"/>
		</g>
		<g id="office" class="st9">
			<g id="text_00000155851500088186021040000009599402154640106167_" class="st10">
				<path d="M244.6,85.8c-1,0-1.8-0.2-2.6-0.6s-1.4-0.9-2-1.5c-0.6-0.7-1-1.4-1.3-2.2s-0.5-1.7-0.5-2.5c0-0.9,0.2-1.8,0.5-2.6
					c0.3-0.8,0.8-1.5,1.3-2.2c0.6-0.6,1.3-1.1,2-1.5s1.6-0.6,2.5-0.6c1,0,1.8,0.2,2.6,0.6s1.4,0.9,2,1.6s1,1.4,1.3,2.2
					c0.3,0.8,0.5,1.6,0.5,2.5s-0.2,1.8-0.5,2.6c-0.3,0.8-0.8,1.5-1.3,2.2c-0.6,0.6-1.2,1.1-2,1.5S245.5,85.8,244.6,85.8z
					 M239.6,78.9c0,0.7,0.1,1.4,0.4,2.1c0.2,0.7,0.6,1.3,1,1.8s1,0.9,1.6,1.3c0.6,0.3,1.3,0.5,2,0.5c0.8,0,1.5-0.2,2.1-0.5
					s1.1-0.8,1.6-1.3c0.4-0.5,0.8-1.1,1-1.8c0.2-0.7,0.3-1.4,0.3-2.1s-0.1-1.4-0.4-2.1c-0.2-0.7-0.6-1.3-1-1.8
					c-0.5-0.5-1-0.9-1.6-1.3s-1.3-0.5-2-0.5c-0.8,0-1.4,0.2-2.1,0.5c-0.6,0.3-1.1,0.7-1.6,1.3c-0.4,0.5-0.8,1.1-1,1.8
					C239.7,77.5,239.6,78.2,239.6,78.9z"/>
				<path d="M253.6,85.7v-8.9h-1.4v-1h1.4v-0.1c0-0.6,0.1-1.1,0.4-1.6c0.2-0.5,0.6-0.9,1-1.2c0.5-0.3,1-0.5,1.7-0.5
					c0.4,0,0.8,0.1,1.2,0.2s0.7,0.2,1,0.4l-0.4,1c-0.2-0.2-0.5-0.3-0.8-0.3s-0.5-0.1-0.8-0.1c-0.4,0-0.7,0.1-0.9,0.2
					c-0.3,0.1-0.5,0.3-0.6,0.5c-0.2,0.2-0.3,0.4-0.4,0.7c-0.1,0.3-0.1,0.5-0.1,0.7v0.2h2.7v1h-2.7v8.9L253.6,85.7L253.6,85.7z
					 M258,76.8h-1.4v-1h1.4v-0.3c0-0.5,0.1-0.9,0.2-1.4c0.1-0.5,0.4-0.9,0.6-1.3c0.3-0.4,0.6-0.7,1.1-0.9c0.4-0.2,1-0.3,1.6-0.3
					c0.5,0,0.9,0.1,1.3,0.2c0.4,0.1,0.7,0.2,1,0.4s0.5,0.3,0.6,0.4l-0.6,0.9c-0.2-0.2-0.5-0.4-0.9-0.5s-0.8-0.2-1.3-0.2
					s-1,0.1-1.3,0.4s-0.6,0.6-0.7,1s-0.2,0.8-0.2,1.3v0.3h5v9.9h-1.3v-8.9h-3.7v8.9h-1.3L258,76.8L258,76.8z"/>
				<path d="M271.4,85.8c-0.7,0-1.4-0.1-2-0.4s-1.1-0.6-1.6-1.1s-0.8-1-1-1.6s-0.4-1.3-0.4-2c0-0.9,0.2-1.8,0.6-2.6s1-1.4,1.7-1.8
					c0.7-0.5,1.6-0.7,2.6-0.7c0.9,0,1.7,0.2,2.5,0.6c0.7,0.4,1.2,1,1.6,1.7l-1.3,0.4c-0.3-0.5-0.7-0.9-1.2-1.2
					c-0.5-0.3-1.1-0.4-1.7-0.4c-0.7,0-1.3,0.2-1.8,0.5s-1,0.8-1.3,1.4s-0.5,1.3-0.5,2s0.2,1.4,0.5,2s0.8,1.1,1.3,1.4
					s1.1,0.5,1.8,0.5c0.4,0,0.8-0.1,1.2-0.2c0.4-0.2,0.7-0.4,1-0.6c0.3-0.3,0.5-0.5,0.6-0.8l1.3,0.4c-0.2,0.5-0.5,0.9-0.9,1.3
					s-0.9,0.7-1.4,0.9S272,85.8,271.4,85.8z"/>
				<path d="M281.7,85.8c-0.7,0-1.4-0.1-2-0.4s-1.1-0.6-1.6-1.1c-0.4-0.5-0.8-1-1-1.6s-0.4-1.3-0.4-2c0-0.9,0.2-1.8,0.6-2.5
					c0.4-0.8,1-1.4,1.8-1.8s1.6-0.7,2.5-0.7c1,0,1.8,0.2,2.6,0.7c0.7,0.5,1.3,1.1,1.7,1.8c0.4,0.8,0.6,1.6,0.6,2.5
					c0,0.1,0,0.2,0,0.3c0,0.1,0,0.2,0,0.2H278c0.1,0.7,0.3,1.3,0.6,1.9c0.3,0.5,0.8,1,1.3,1.3s1.1,0.5,1.8,0.5
					c0.6,0,1.3-0.2,1.8-0.5s1-0.8,1.2-1.3l1.1,0.3c-0.2,0.5-0.5,0.9-0.9,1.3s-0.9,0.7-1.5,0.9C283,85.7,282.4,85.8,281.7,85.8z
					 M278.1,80.3h7.3c-0.1-0.7-0.2-1.3-0.6-1.9s-0.8-1-1.3-1.3s-1.1-0.5-1.8-0.5c-0.6,0-1.2,0.2-1.8,0.5c-0.5,0.3-1,0.7-1.3,1.3
					C278.3,78.9,278.1,79.6,278.1,80.3z"/>
				<path d="M297.6,85.8c-0.7,0-1.4-0.1-2-0.4s-1.1-0.6-1.6-1.1c-0.4-0.5-0.8-1-1-1.6s-0.4-1.3-0.4-1.9c0-0.7,0.1-1.4,0.4-2
					c0.2-0.6,0.6-1.2,1-1.6c0.4-0.5,1-0.8,1.6-1.1s1.3-0.4,2-0.4s1.4,0.1,2,0.4s1.1,0.6,1.6,1.1c0.4,0.5,0.8,1,1,1.6s0.4,1.3,0.4,2
					s-0.1,1.3-0.4,1.9s-0.6,1.2-1,1.6c-0.4,0.5-1,0.8-1.6,1.1C299,85.7,298.4,85.8,297.6,85.8z M294.1,80.8c0,0.7,0.2,1.4,0.5,2
					s0.8,1.1,1.3,1.4s1.1,0.5,1.8,0.5s1.3-0.2,1.8-0.5s1-0.8,1.3-1.4s0.5-1.3,0.5-2s-0.2-1.4-0.5-2s-0.8-1.1-1.3-1.4
					c-0.5-0.4-1.1-0.5-1.8-0.5s-1.3,0.2-1.8,0.5c-0.5,0.4-1,0.8-1.3,1.4S294.1,80,294.1,80.8z"/>
				<path d="M305,85.7v-8.9h-1.4v-1h1.4v-0.3c0-0.8,0.1-1.5,0.4-2.1s0.6-1,1-1.3s1-0.5,1.5-0.5c0.4,0,0.8,0.1,1.1,0.2
					c0.4,0.1,0.7,0.3,1,0.5l-0.4,0.9c-0.2-0.1-0.4-0.2-0.6-0.3s-0.5-0.1-0.8-0.1c-0.6,0-1.1,0.2-1.4,0.7c-0.3,0.5-0.5,1.1-0.5,2v0.3
					h2.7v1h-2.7v8.9L305,85.7L305,85.7z"/>
				<path d="M315.5,85.7V72.2h5.6c0.6,0,1.1,0.1,1.6,0.4c0.5,0.2,0.9,0.6,1.3,1c0.4,0.4,0.6,0.9,0.8,1.4s0.3,1,0.3,1.5
					c0,0.7-0.2,1.4-0.5,2.1s-0.8,1.2-1.4,1.6c-0.6,0.4-1.3,0.6-2.1,0.6h-4.4v5L315.5,85.7L315.5,85.7z M316.9,79.5h4.3
					c0.5,0,1-0.1,1.4-0.4s0.7-0.7,0.9-1.1c0.2-0.5,0.3-1,0.3-1.5c0-0.6-0.1-1.1-0.4-1.5c-0.3-0.5-0.6-0.8-1-1.1
					c-0.4-0.3-0.9-0.4-1.4-0.4h-4.2L316.9,79.5L316.9,79.5z"/>
				<path d="M327.1,71.8h1.3v11.7c0,0.5,0.1,0.8,0.3,1s0.4,0.2,0.6,0.2c0.2,0,0.5,0,0.7-0.1s0.4-0.1,0.6-0.2l0.2,1
					c-0.2,0.1-0.5,0.2-0.9,0.2c-0.3,0.1-0.6,0.1-0.9,0.1c-0.6,0-1-0.2-1.4-0.5c-0.3-0.3-0.5-0.8-0.5-1.4L327.1,71.8L327.1,71.8z"/>
				<path d="M331.4,82.8c0-0.6,0.2-1.1,0.5-1.6c0.4-0.4,0.8-0.8,1.5-1s1.4-0.4,2.2-0.4c0.5,0,1,0,1.5,0.1s1,0.2,1.4,0.3v-0.8
					c0-0.8-0.2-1.5-0.7-2s-1.2-0.7-2.1-0.7c-0.5,0-1.1,0.1-1.6,0.3c-0.5,0.2-1,0.5-1.6,0.9L332,77c0.6-0.4,1.3-0.8,1.9-1
					c0.6-0.2,1.3-0.3,1.9-0.3c1.2,0,2.2,0.3,2.9,1s1.1,1.6,1.1,2.9v4.6c0,0.2,0,0.3,0.1,0.4s0.2,0.1,0.4,0.1v1c-0.1,0-0.3,0-0.4,0
					c-0.1,0-0.2,0-0.2,0c-0.3,0-0.6-0.1-0.7-0.3c-0.2-0.2-0.3-0.4-0.3-0.6v-0.7c-0.4,0.6-1,1-1.7,1.3s-1.4,0.5-2.2,0.5
					c-0.6,0-1.2-0.1-1.7-0.4s-0.9-0.6-1.2-1.1C331.6,83.9,331.4,83.4,331.4,82.8z M338.1,83.6c0.1-0.2,0.2-0.3,0.3-0.5
					s0.1-0.3,0.1-0.4v-1.4c-0.4-0.2-0.9-0.3-1.3-0.4c-0.5-0.1-0.9-0.1-1.4-0.1c-0.9,0-1.7,0.2-2.2,0.5c-0.6,0.4-0.9,0.9-0.9,1.5
					c0,0.4,0.1,0.7,0.3,1s0.5,0.6,0.8,0.8c0.4,0.2,0.8,0.3,1.3,0.3c0.6,0,1.2-0.1,1.7-0.4C337.4,84.3,337.8,84,338.1,83.6z"/>
				<path d="M350.9,85.7h-1.3v-5.5c0-1.2-0.2-2-0.5-2.5s-0.9-0.8-1.6-0.8c-0.5,0-1,0.1-1.5,0.4c-0.5,0.2-0.9,0.6-1.3,1
					c-0.4,0.4-0.6,0.9-0.8,1.4v6h-1.3v-9.9h1.2V78c0.3-0.5,0.6-0.9,1-1.3s0.9-0.6,1.5-0.8c0.5-0.2,1.1-0.3,1.7-0.3
					c0.5,0,1,0.1,1.4,0.3c0.4,0.2,0.7,0.5,0.9,0.9s0.4,0.8,0.5,1.3s0.2,1.1,0.2,1.7L350.9,85.7L350.9,85.7z"/>
				<path d="M229.2,62.9V49.4h2.1v13.5H229.2z"/>
				<path d="M243,62.9h-2.1v-5.5c0-0.9-0.1-1.6-0.4-2s-0.7-0.6-1.3-0.6c-0.4,0-0.8,0.1-1.2,0.3c-0.4,0.2-0.8,0.5-1.1,0.8
					s-0.5,0.7-0.7,1.2V63h-2.1v-9.9h1.9v2c0.3-0.4,0.6-0.8,1-1.1c0.4-0.3,0.9-0.6,1.4-0.7s1.1-0.3,1.7-0.3c0.6,0,1.1,0.1,1.5,0.3
					c0.4,0.2,0.7,0.5,0.9,0.9s0.4,0.8,0.5,1.3s0.1,1,0.1,1.5L243,62.9L243,62.9z"/>
				<path d="M249,63c-0.8,0-1.6-0.1-2.4-0.4s-1.4-0.7-1.9-1.2l0.8-1.4c0.6,0.5,1.1,0.9,1.7,1.1c0.6,0.2,1.1,0.3,1.7,0.3
					c0.6,0,1.1-0.1,1.4-0.3c0.4-0.2,0.6-0.5,0.6-1c0-0.3-0.1-0.5-0.3-0.7s-0.5-0.3-0.8-0.4c-0.4-0.1-0.8-0.2-1.3-0.4
					c-0.7-0.2-1.3-0.4-1.8-0.7c-0.5-0.2-0.8-0.5-1.1-0.9c-0.2-0.3-0.4-0.8-0.4-1.3c0-0.6,0.2-1.2,0.5-1.6c0.3-0.5,0.8-0.8,1.4-1
					s1.3-0.4,2-0.4s1.4,0.1,2,0.3s1.2,0.6,1.6,1l-0.9,1.4c-0.4-0.4-0.9-0.7-1.4-0.9c-0.5-0.2-1-0.3-1.5-0.3c-0.3,0-0.6,0-0.9,0.1
					c-0.3,0.1-0.5,0.2-0.7,0.4s-0.3,0.4-0.3,0.8c0,0.3,0.1,0.5,0.2,0.6c0.2,0.2,0.4,0.3,0.7,0.4s0.7,0.2,1.1,0.4
					c0.8,0.2,1.4,0.4,2,0.7c0.5,0.2,1,0.5,1.3,0.8s0.4,0.8,0.4,1.4c0,1-0.4,1.7-1.1,2.2C251.1,62.8,250.1,63,249,63z"/>
				<path d="M260.3,62.4c-0.2,0.1-0.4,0.2-0.7,0.3c-0.3,0.1-0.6,0.2-0.9,0.3c-0.3,0.1-0.7,0.1-1,0.1c-0.4,0-0.8-0.1-1.2-0.2
					c-0.4-0.2-0.7-0.4-0.9-0.7c-0.2-0.3-0.3-0.8-0.3-1.3v-6.2H254v-1.6h1.3v-3.3h2.1v3.3h2.2v1.6h-2.2v5.5c0,0.3,0.1,0.6,0.3,0.8
					c0.2,0.2,0.4,0.2,0.7,0.2s0.6-0.1,0.8-0.2c0.3-0.1,0.5-0.2,0.6-0.2L260.3,62.4z"/>
				<path d="M261.7,51.3V49h2.1v2.3H261.7z M261.7,62.9V53h2.1v9.9H261.7z"/>
				<path d="M271.8,62.4c-0.2,0.1-0.4,0.2-0.7,0.3c-0.3,0.1-0.6,0.2-0.9,0.3c-0.3,0.1-0.7,0.1-1,0.1c-0.4,0-0.8-0.1-1.2-0.2
					c-0.4-0.2-0.7-0.4-0.9-0.7c-0.2-0.3-0.3-0.8-0.3-1.3v-6.2h-1.3v-1.6h1.3v-3.3h2.1v3.3h2.2v1.6h-2.2v5.5c0,0.3,0.1,0.6,0.3,0.8
					c0.2,0.2,0.4,0.2,0.7,0.2s0.6-0.1,0.8-0.2c0.3-0.1,0.5-0.2,0.6-0.2L271.8,62.4z"/>
				<path d="M273.2,59v-6h2.1v5.6c0,0.9,0.2,1.5,0.5,2c0.3,0.4,0.8,0.7,1.4,0.7c0.4,0,0.8-0.1,1.1-0.2c0.4-0.2,0.7-0.4,1-0.7
					c0.3-0.3,0.6-0.7,0.8-1.2v-6.1h2.1v7.5c0,0.2,0,0.4,0.1,0.5s0.2,0.2,0.4,0.2V63c-0.2,0-0.4,0.1-0.5,0.1s-0.3,0-0.4,0
					c-0.4,0-0.7-0.1-1-0.3c-0.3-0.2-0.4-0.5-0.4-0.8v-1c-0.4,0.7-1,1.3-1.7,1.6c-0.7,0.4-1.5,0.6-2.3,0.6c-1,0-1.8-0.3-2.4-1
					S273.2,60.4,273.2,59z"/>
				<path d="M290.4,62.4c-0.2,0.1-0.4,0.2-0.7,0.3c-0.3,0.1-0.6,0.2-0.9,0.3c-0.3,0.1-0.7,0.1-1,0.1c-0.4,0-0.8-0.1-1.2-0.2
					s-0.7-0.4-0.9-0.7c-0.2-0.3-0.3-0.8-0.3-1.3v-6.2h-1.3v-1.6h1.3v-3.3h2.1v3.3h2.2v1.6h-2.2v5.5c0,0.3,0.1,0.6,0.3,0.8
					c0.2,0.2,0.4,0.2,0.7,0.2s0.6-0.1,0.8-0.2s0.5-0.2,0.6-0.2L290.4,62.4z"/>
				<path d="M291.8,51.3V49h2.1v2.3H291.8z M291.8,62.9V53h2.1v9.9H291.8z"/>
				<path d="M300.9,63c-0.8,0-1.5-0.1-2.1-0.4s-1.2-0.6-1.6-1.1c-0.5-0.5-0.8-1-1-1.6s-0.4-1.3-0.4-1.9s0.1-1.3,0.4-2
					c0.2-0.6,0.6-1.2,1-1.6c0.4-0.5,1-0.8,1.6-1.1s1.3-0.4,2.1-0.4s1.5,0.1,2.1,0.4s1.2,0.6,1.6,1.1s0.8,1,1,1.6s0.4,1.3,0.4,2
					s-0.1,1.3-0.4,1.9c-0.2,0.6-0.6,1.2-1,1.6s-1,0.9-1.6,1.1S301.6,63,300.9,63z M297.9,58c0,0.6,0.1,1.2,0.4,1.7
					c0.3,0.5,0.6,0.9,1.1,1.2s0.9,0.4,1.5,0.4c0.5,0,1-0.1,1.5-0.4c0.4-0.3,0.8-0.7,1.1-1.2s0.4-1.1,0.4-1.7s-0.1-1.2-0.4-1.7
					c-0.3-0.5-0.6-0.9-1.1-1.2c-0.5-0.3-0.9-0.4-1.5-0.4s-1.1,0.1-1.5,0.4s-0.8,0.7-1.1,1.2S297.9,57.3,297.9,58z"/>
				<path d="M316.7,62.9h-2.1v-5.5c0-0.9-0.1-1.6-0.4-2c-0.3-0.4-0.7-0.6-1.3-0.6c-0.4,0-0.8,0.1-1.2,0.3c-0.4,0.2-0.8,0.5-1.1,0.8
					s-0.5,0.7-0.7,1.2V63h-2.1v-9.9h1.9v2c0.3-0.4,0.6-0.8,1-1.1c0.4-0.3,0.9-0.6,1.4-0.7s1.1-0.3,1.7-0.3c0.6,0,1.1,0.1,1.5,0.3
					c0.4,0.2,0.7,0.5,0.9,0.9s0.4,0.8,0.5,1.3s0.1,1,0.1,1.5L316.7,62.9L316.7,62.9z"/>
				<path d="M318.5,60c0-0.6,0.2-1.2,0.5-1.6c0.4-0.5,0.9-0.8,1.5-1.1c0.6-0.3,1.4-0.4,2.2-0.4c0.4,0,0.9,0,1.4,0.1s0.9,0.2,1.2,0.3
					v-0.6c0-0.7-0.2-1.2-0.6-1.6s-1-0.6-1.8-0.6c-0.6,0-1.1,0.1-1.6,0.3c-0.5,0.2-1,0.5-1.6,0.8l-0.7-1.4c0.7-0.4,1.3-0.8,2-1
					s1.4-0.3,2.1-0.3c1.3,0,2.4,0.3,3.1,1c0.8,0.7,1.1,1.7,1.1,3v3.7c0,0.2,0,0.4,0.1,0.5s0.2,0.2,0.4,0.2V63
					c-0.2,0-0.4,0.1-0.5,0.1c-0.2,0-0.3,0-0.4,0c-0.4,0-0.8-0.1-1-0.3c-0.2-0.2-0.4-0.5-0.4-0.8l-0.1-0.6c-0.4,0.6-1,1-1.7,1.3
					s-1.3,0.5-2,0.5s-1.2-0.1-1.8-0.4c-0.5-0.3-0.9-0.6-1.2-1.1C318.6,61.1,318.5,60.6,318.5,60z M324.8,60.6
					c0.2-0.2,0.3-0.3,0.4-0.5c0.1-0.2,0.1-0.3,0.1-0.4v-1.1c-0.4-0.1-0.7-0.2-1.1-0.3s-0.8-0.1-1.2-0.1c-0.8,0-1.4,0.2-1.9,0.4
					s-0.7,0.7-0.7,1.2c0,0.3,0.1,0.6,0.2,0.8c0.2,0.3,0.4,0.5,0.7,0.6s0.7,0.2,1.1,0.2c0.5,0,0.9-0.1,1.3-0.3S324.5,60.8,324.8,60.6
					z"/>
				<path d="M329.9,49h2.1v11c0,0.5,0.1,0.8,0.2,1c0.2,0.1,0.3,0.2,0.6,0.2s0.5,0,0.7-0.1s0.4-0.1,0.6-0.2l0.3,1.7
					c-0.3,0.1-0.7,0.2-1.1,0.3c-0.4,0.1-0.8,0.1-1.1,0.1c-0.7,0-1.3-0.2-1.7-0.6s-0.6-1-0.6-1.7V49L329.9,49z"/>
				<path d="M340,62.9V49.4h5.9c0.6,0,1.2,0.1,1.7,0.4s0.9,0.6,1.3,1c0.4,0.4,0.7,0.9,0.9,1.4s0.3,1.1,0.3,1.6
					c0,0.6-0.1,1.2-0.3,1.7s-0.5,1-0.9,1.4s-0.9,0.7-1.4,0.9l3.2,5.1h-2.4l-2.9-4.7h-3.1v4.7H340z M342.2,56.3h3.7
					c0.4,0,0.7-0.1,1-0.3c0.3-0.2,0.5-0.5,0.7-0.9s0.3-0.8,0.3-1.3s-0.1-0.9-0.3-1.3s-0.5-0.7-0.8-0.9c-0.3-0.2-0.7-0.3-1.1-0.3
					h-3.6L342.2,56.3L342.2,56.3z"/>
			</g>
			<rect id="column" x="290.4" y="110.6" class="st11" width="157.4" height="579.2"/>
		</g>
	</g>
</g>
<g id="Layer_2">
</g>
</svg>
