<svg xmlns="http://www.w3.org/2000/svg" width="975" height="650"><clipPath id="groupClipPath"><rect x="0" y="0" width="805" height="64.3888888888889"/></clipPath><rect width="975" height="650" x="0" y="0" fill="#f3e0bd" id="backgorund"/><g transform="translate(150,20)" id="areas"><g transform="translate(0,0)" id="People Management" clip-path="url(#groupClipPath)"><g id="positive"><path d="M0,64.3888888888889L0,64.3888888888889Z" fill="rgb(0, 0, 0)" opacity="0.2" transform="translate(0, 0)"/><path d="M0,64.3888888888889L0,64.3888888888889Z" fill="rgb(0, 0, 0)" opacity="0.2" transform="translate(0, 64.3888888888889)"/><path d="M0,64.3888888888889L0,64.3888888888889Z" fill="rgb(0, 0, 0)" opacity="0.2" transform="translate(0, 128.7777777777778)"/><path d="M0,64.3888888888889L0,64.3888888888889Z" fill="rgb(0, 0, 0)" opacity="0.2" transform="translate(0, 193.16666666666669)"/><path d="M0,64.3888888888889L0,64.3888888888889Z" fill="rgb(0, 0, 0)" opacity="0.2" transform="translate(0, 257.5555555555556)"/></g><g id="negative"><path d="M0,64.3888888888889L0,64.3888888888889Z" fill="#cccccc" opacity="0.2" transform="scale(1,-1) translate(0, -128.7777777777778)"/><path d="M0,64.3888888888889L0,64.3888888888889Z" fill="#cccccc" opacity="0.2" transform="scale(1,-1) translate(0, -193.16666666666669)"/><path d="M0,64.3888888888889L0,64.3888888888889Z" fill="#cccccc" opacity="0.2" transform="scale(1,-1) translate(0, -257.5555555555556)"/><path d="M0,64.3888888888889L0,64.3888888888889Z" fill="#cccccc" opacity="0.2" transform="scale(1,-1) translate(0, -321.94444444444446)"/><path d="M0,64.3888888888889L0,64.3888888888889Z" fill="#cccccc" opacity="0.2" transform="scale(1,-1) translate(0, -386.33333333333337)"/></g></g><g transform="translate(0,68.2013888888889)" id="Public Speaking" clip-path="url(#groupClipPath)"><g id="positive"><path d="M0,-10.731481481481488C250.26709085528262,-10.731481481481488,250.26709085528262,-53.657407407407426,500.53418171056524,-53.657407407407426C514.4709973364901,-53.657407407407426,514.4709973364901,-53.657407407407426,528.4078129624149,-53.657407407407426C666.7039064812075,-53.657407407407426,666.7039064812075,10.731481481481481,805,10.731481481481481L805,64.3888888888889C666.7039064812075,64.3888888888889,666.7039064812075,64.3888888888889,528.4078129624149,64.3888888888889C514.4709973364901,64.3888888888889,514.4709973364901,64.3888888888889,500.53418171056524,64.3888888888889C250.26709085528262,64.3888888888889,250.26709085528262,64.3888888888889,0,64.3888888888889Z" fill="rgb(0, 0, 0)" opacity="0.2" transform="translate(0, 0)"/><path d="M0,-10.731481481481488C250.26709085528262,-10.731481481481488,250.26709085528262,-53.657407407407426,500.53418171056524,-53.657407407407426C514.4709973364901,-53.657407407407426,514.4709973364901,-53.657407407407426,528.4078129624149,-53.657407407407426C666.7039064812075,-53.657407407407426,666.7039064812075,10.731481481481481,805,10.731481481481481L805,64.3888888888889C666.7039064812075,64.3888888888889,666.7039064812075,64.3888888888889,528.4078129624149,64.3888888888889C514.4709973364901,64.3888888888889,514.4709973364901,64.3888888888889,500.53418171056524,64.3888888888889C250.26709085528262,64.3888888888889,250.26709085528262,64.3888888888889,0,64.3888888888889Z" fill="rgb(0, 0, 0)" opacity="0.2" transform="translate(0, 64.3888888888889)"/><path d="M0,-10.731481481481488C250.26709085528262,-10.731481481481488,250.26709085528262,-53.657407407407426,500.53418171056524,-53.657407407407426C514.4709973364901,-53.657407407407426,514.4709973364901,-53.657407407407426,528.4078129624149,-53.657407407407426C666.7039064812075,-53.657407407407426,666.7039064812075,10.731481481481481,805,10.731481481481481L805,64.3888888888889C666.7039064812075,64.3888888888889,666.7039064812075,64.3888888888889,528.4078129624149,64.3888888888889C514.4709973364901,64.3888888888889,514.4709973364901,64.3888888888889,500.53418171056524,64.3888888888889C250.26709085528262,64.3888888888889,250.26709085528262,64.3888888888889,0,64.3888888888889Z" fill="rgb(0, 0, 0)" opacity="0.2" transform="translate(0, 128.7777777777778)"/><path d="M0,-10.731481481481488C250.26709085528262,-10.731481481481488,250.26709085528262,-53.657407407407426,500.53418171056524,-53.657407407407426C514.4709973364901,-53.657407407407426,514.4709973364901,-53.657407407407426,528.4078129624149,-53.657407407407426C666.7039064812075,-53.657407407407426,666.7039064812075,10.731481481481481,805,10.731481481481481L805,64.3888888888889C666.7039064812075,64.3888888888889,666.7039064812075,64.3888888888889,528.4078129624149,64.3888888888889C514.4709973364901,64.3888888888889,514.4709973364901,64.3888888888889,500.53418171056524,64.3888888888889C250.26709085528262,64.3888888888889,250.26709085528262,64.3888888888889,0,64.3888888888889Z" fill="rgb(0, 0, 0)" opacity="0.2" transform="translate(0, 193.16666666666669)"/><path d="M0,-10.731481481481488C250.26709085528262,-10.731481481481488,250.26709085528262,-53.657407407407426,500.53418171056524,-53.657407407407426C514.4709973364901,-53.657407407407426,514.4709973364901,-53.657407407407426,528.4078129624149,-53.657407407407426C666.7039064812075,-53.657407407407426,666.7039064812075,10.731481481481481,805,10.731481481481481L805,64.3888888888889C666.7039064812075,64.3888888888889,666.7039064812075,64.3888888888889,528.4078129624149,64.3888888888889C514.4709973364901,64.3888888888889,514.4709973364901,64.3888888888889,500.53418171056524,64.3888888888889C250.26709085528262,64.3888888888889,250.26709085528262,64.3888888888889,0,64.3888888888889Z" fill="rgb(0, 0, 0)" opacity="0.2" transform="translate(0, 257.5555555555556)"/></g><g id="negative"><path d="M0,-10.731481481481488C250.26709085528262,-10.731481481481488,250.26709085528262,-53.657407407407426,500.53418171056524,-53.657407407407426C514.4709973364901,-53.657407407407426,514.4709973364901,-53.657407407407426,528.4078129624149,-53.657407407407426C666.7039064812075,-53.657407407407426,666.7039064812075,10.731481481481481,805,10.731481481481481L805,64.3888888888889C666.7039064812075,64.3888888888889,666.7039064812075,64.3888888888889,528.4078129624149,64.3888888888889C514.4709973364901,64.3888888888889,514.4709973364901,64.3888888888889,500.53418171056524,64.3888888888889C250.26709085528262,64.3888888888889,250.26709085528262,64.3888888888889,0,64.3888888888889Z" fill="#cccccc" opacity="0.2" transform="scale(1,-1) translate(0, -128.7777777777778)"/><path d="M0,-10.731481481481488C250.26709085528262,-10.731481481481488,250.26709085528262,-53.657407407407426,500.53418171056524,-53.657407407407426C514.4709973364901,-53.657407407407426,514.4709973364901,-53.657407407407426,528.4078129624149,-53.657407407407426C666.7039064812075,-53.657407407407426,666.7039064812075,10.731481481481481,805,10.731481481481481L805,64.3888888888889C666.7039064812075,64.3888888888889,666.7039064812075,64.3888888888889,528.4078129624149,64.3888888888889C514.4709973364901,64.3888888888889,514.4709973364901,64.3888888888889,500.53418171056524,64.3888888888889C250.26709085528262,64.3888888888889,250.26709085528262,64.3888888888889,0,64.3888888888889Z" fill="#cccccc" opacity="0.2" transform="scale(1,-1) translate(0, -193.16666666666669)"/><path d="M0,-10.731481481481488C250.26709085528262,-10.731481481481488,250.26709085528262,-53.657407407407426,500.53418171056524,-53.657407407407426C514.4709973364901,-53.657407407407426,514.4709973364901,-53.657407407407426,528.4078129624149,-53.657407407407426C666.7039064812075,-53.657407407407426,666.7039064812075,10.731481481481481,805,10.731481481481481L805,64.3888888888889C666.7039064812075,64.3888888888889,666.7039064812075,64.3888888888889,528.4078129624149,64.3888888888889C514.4709973364901,64.3888888888889,514.4709973364901,64.3888888888889,500.53418171056524,64.3888888888889C250.26709085528262,64.3888888888889,250.26709085528262,64.3888888888889,0,64.3888888888889Z" fill="#cccccc" opacity="0.2" transform="scale(1,-1) translate(0, -257.5555555555556)"/><path d="M0,-10.731481481481488C250.26709085528262,-10.731481481481488,250.26709085528262,-53.657407407407426,500.53418171056524,-53.657407407407426C514.4709973364901,-53.657407407407426,514.4709973364901,-53.657407407407426,528.4078129624149,-53.657407407407426C666.7039064812075,-53.657407407407426,666.7039064812075,10.731481481481481,805,10.731481481481481L805,64.3888888888889C666.7039064812075,64.3888888888889,666.7039064812075,64.3888888888889,528.4078129624149,64.3888888888889C514.4709973364901,64.3888888888889,514.4709973364901,64.3888888888889,500.53418171056524,64.3888888888889C250.26709085528262,64.3888888888889,250.26709085528262,64.3888888888889,0,64.3888888888889Z" fill="#cccccc" opacity="0.2" transform="scale(1,-1) translate(0, -321.94444444444446)"/><path d="M0,-10.731481481481488C250.26709085528262,-10.731481481481488,250.26709085528262,-53.657407407407426,500.53418171056524,-53.657407407407426C514.4709973364901,-53.657407407407426,514.4709973364901,-53.657407407407426,528.4078129624149,-53.657407407407426C666.7039064812075,-53.657407407407426,666.7039064812075,10.731481481481481,805,10.731481481481481L805,64.3888888888889C666.7039064812075,64.3888888888889,666.7039064812075,64.3888888888889,528.4078129624149,64.3888888888889C514.4709973364901,64.3888888888889,514.4709973364901,64.3888888888889,500.53418171056524,64.3888888888889C250.26709085528262,64.3888888888889,250.26709085528262,64.3888888888889,0,64.3888888888889Z" fill="#cccccc" opacity="0.2" transform="scale(1,-1) translate(0, -386.33333333333337)"/></g></g><g transform="translate(0,136.4027777777778)" id="Leadership" clip-path="url(#groupClipPath)"><g id="positive"><path d="M0,10.731481481481481C250.26709085528262,10.731481481481481,250.26709085528262,0,500.53418171056524,0C514.4709973364901,0,514.4709973364901,0,528.4078129624149,0C666.7039064812075,0,666.7039064812075,-96.58333333333334,805,-96.58333333333334L805,64.3888888888889C666.7039064812075,64.3888888888889,666.7039064812075,64.3888888888889,528.4078129624149,64.3888888888889C514.4709973364901,64.3888888888889,514.4709973364901,64.3888888888889,500.53418171056524,64.3888888888889C250.26709085528262,64.3888888888889,250.26709085528262,64.3888888888889,0,64.3888888888889Z" fill="rgb(0, 0, 0)" opacity="0.2" transform="translate(0, 0)"/><path d="M0,10.731481481481481C250.26709085528262,10.731481481481481,250.26709085528262,0,500.53418171056524,0C514.4709973364901,0,514.4709973364901,0,528.4078129624149,0C666.7039064812075,0,666.7039064812075,-96.58333333333334,805,-96.58333333333334L805,64.3888888888889C666.7039064812075,64.3888888888889,666.7039064812075,64.3888888888889,528.4078129624149,64.3888888888889C514.4709973364901,64.3888888888889,514.4709973364901,64.3888888888889,500.53418171056524,64.3888888888889C250.26709085528262,64.3888888888889,250.26709085528262,64.3888888888889,0,64.3888888888889Z" fill="rgb(0, 0, 0)" opacity="0.2" transform="translate(0, 64.3888888888889)"/><path d="M0,10.731481481481481C250.26709085528262,10.731481481481481,250.26709085528262,0,500.53418171056524,0C514.4709973364901,0,514.4709973364901,0,528.4078129624149,0C666.7039064812075,0,666.7039064812075,-96.58333333333334,805,-96.58333333333334L805,64.3888888888889C666.7039064812075,64.3888888888889,666.7039064812075,64.3888888888889,528.4078129624149,64.3888888888889C514.4709973364901,64.3888888888889,514.4709973364901,64.3888888888889,500.53418171056524,64.3888888888889C250.26709085528262,64.3888888888889,250.26709085528262,64.3888888888889,0,64.3888888888889Z" fill="rgb(0, 0, 0)" opacity="0.2" transform="translate(0, 128.7777777777778)"/><path d="M0,10.731481481481481C250.26709085528262,10.731481481481481,250.26709085528262,0,500.53418171056524,0C514.4709973364901,0,514.4709973364901,0,528.4078129624149,0C666.7039064812075,0,666.7039064812075,-96.58333333333334,805,-96.58333333333334L805,64.3888888888889C666.7039064812075,64.3888888888889,666.7039064812075,64.3888888888889,528.4078129624149,64.3888888888889C514.4709973364901,64.3888888888889,514.4709973364901,64.3888888888889,500.53418171056524,64.3888888888889C250.26709085528262,64.3888888888889,250.26709085528262,64.3888888888889,0,64.3888888888889Z" fill="rgb(0, 0, 0)" opacity="0.2" transform="translate(0, 193.16666666666669)"/><path d="M0,10.731481481481481C250.26709085528262,10.731481481481481,250.26709085528262,0,500.53418171056524,0C514.4709973364901,0,514.4709973364901,0,528.4078129624149,0C666.7039064812075,0,666.7039064812075,-96.58333333333334,805,-96.58333333333334L805,64.3888888888889C666.7039064812075,64.3888888888889,666.7039064812075,64.3888888888889,528.4078129624149,64.3888888888889C514.4709973364901,64.3888888888889,514.4709973364901,64.3888888888889,500.53418171056524,64.3888888888889C250.26709085528262,64.3888888888889,250.26709085528262,64.3888888888889,0,64.3888888888889Z" fill="rgb(0, 0, 0)" opacity="0.2" transform="translate(0, 257.5555555555556)"/></g><g id="negative"><path d="M0,10.731481481481481C250.26709085528262,10.731481481481481,250.26709085528262,0,500.53418171056524,0C514.4709973364901,0,514.4709973364901,0,528.4078129624149,0C666.7039064812075,0,666.7039064812075,-96.58333333333334,805,-96.58333333333334L805,64.3888888888889C666.7039064812075,64.3888888888889,666.7039064812075,64.3888888888889,528.4078129624149,64.3888888888889C514.4709973364901,64.3888888888889,514.4709973364901,64.3888888888889,500.53418171056524,64.3888888888889C250.26709085528262,64.3888888888889,250.26709085528262,64.3888888888889,0,64.3888888888889Z" fill="#cccccc" opacity="0.2" transform="scale(1,-1) translate(0, -128.7777777777778)"/><path d="M0,10.731481481481481C250.26709085528262,10.731481481481481,250.26709085528262,0,500.53418171056524,0C514.4709973364901,0,514.4709973364901,0,528.4078129624149,0C666.7039064812075,0,666.7039064812075,-96.58333333333334,805,-96.58333333333334L805,64.3888888888889C666.7039064812075,64.3888888888889,666.7039064812075,64.3888888888889,528.4078129624149,64.3888888888889C514.4709973364901,64.3888888888889,514.4709973364901,64.3888888888889,500.53418171056524,64.3888888888889C250.26709085528262,64.3888888888889,250.26709085528262,64.3888888888889,0,64.3888888888889Z" fill="#cccccc" opacity="0.2" transform="scale(1,-1) translate(0, -193.16666666666669)"/><path d="M0,10.731481481481481C250.26709085528262,10.731481481481481,250.26709085528262,0,500.53418171056524,0C514.4709973364901,0,514.4709973364901,0,528.4078129624149,0C666.7039064812075,0,666.7039064812075,-96.58333333333334,805,-96.58333333333334L805,64.3888888888889C666.7039064812075,64.3888888888889,666.7039064812075,64.3888888888889,528.4078129624149,64.3888888888889C514.4709973364901,64.3888888888889,514.4709973364901,64.3888888888889,500.53418171056524,64.3888888888889C250.26709085528262,64.3888888888889,250.26709085528262,64.3888888888889,0,64.3888888888889Z" fill="#cccccc" opacity="0.2" transform="scale(1,-1) translate(0, -257.5555555555556)"/><path d="M0,10.731481481481481C250.26709085528262,10.731481481481481,250.26709085528262,0,500.53418171056524,0C514.4709973364901,0,514.4709973364901,0,528.4078129624149,0C666.7039064812075,0,666.7039064812075,-96.58333333333334,805,-96.58333333333334L805,64.3888888888889C666.7039064812075,64.3888888888889,666.7039064812075,64.3888888888889,528.4078129624149,64.3888888888889C514.4709973364901,64.3888888888889,514.4709973364901,64.3888888888889,500.53418171056524,64.3888888888889C250.26709085528262,64.3888888888889,250.26709085528262,64.3888888888889,0,64.3888888888889Z" fill="#cccccc" opacity="0.2" transform="scale(1,-1) translate(0, -321.94444444444446)"/><path d="M0,10.731481481481481C250.26709085528262,10.731481481481481,250.26709085528262,0,500.53418171056524,0C514.4709973364901,0,514.4709973364901,0,528.4078129624149,0C666.7039064812075,0,666.7039064812075,-96.58333333333334,805,-96.58333333333334L805,64.3888888888889C666.7039064812075,64.3888888888889,666.7039064812075,64.3888888888889,528.4078129624149,64.3888888888889C514.4709973364901,64.3888888888889,514.4709973364901,64.3888888888889,500.53418171056524,64.3888888888889C250.26709085528262,64.3888888888889,250.26709085528262,64.3888888888889,0,64.3888888888889Z" fill="#cccccc" opacity="0.2" transform="scale(1,-1) translate(0, -386.33333333333337)"/></g></g><g transform="translate(0,204.60416666666669)" id="Teaching" clip-path="url(#groupClipPath)"><g id="positive"><path d="M0,0C250.26709085528262,0,250.26709085528262,-42.92592592592594,500.53418171056524,-42.92592592592594C514.4709973364901,-42.92592592592594,514.4709973364901,-42.92592592592594,528.4078129624149,-42.92592592592594C666.7039064812075,-42.92592592592594,666.7039064812075,-42.92592592592594,805,-42.92592592592594L805,64.3888888888889C666.7039064812075,64.3888888888889,666.7039064812075,64.3888888888889,528.4078129624149,64.3888888888889C514.4709973364901,64.3888888888889,514.4709973364901,64.3888888888889,500.53418171056524,64.3888888888889C250.26709085528262,64.3888888888889,250.26709085528262,64.3888888888889,0,64.3888888888889Z" fill="rgb(0, 0, 0)" opacity="0.2" transform="translate(0, 0)"/><path d="M0,0C250.26709085528262,0,250.26709085528262,-42.92592592592594,500.53418171056524,-42.92592592592594C514.4709973364901,-42.92592592592594,514.4709973364901,-42.92592592592594,528.4078129624149,-42.92592592592594C666.7039064812075,-42.92592592592594,666.7039064812075,-42.92592592592594,805,-42.92592592592594L805,64.3888888888889C666.7039064812075,64.3888888888889,666.7039064812075,64.3888888888889,528.4078129624149,64.3888888888889C514.4709973364901,64.3888888888889,514.4709973364901,64.3888888888889,500.53418171056524,64.3888888888889C250.26709085528262,64.3888888888889,250.26709085528262,64.3888888888889,0,64.3888888888889Z" fill="rgb(0, 0, 0)" opacity="0.2" transform="translate(0, 64.3888888888889)"/><path d="M0,0C250.26709085528262,0,250.26709085528262,-42.92592592592594,500.53418171056524,-42.92592592592594C514.4709973364901,-42.92592592592594,514.4709973364901,-42.92592592592594,528.4078129624149,-42.92592592592594C666.7039064812075,-42.92592592592594,666.7039064812075,-42.92592592592594,805,-42.92592592592594L805,64.3888888888889C666.7039064812075,64.3888888888889,666.7039064812075,64.3888888888889,528.4078129624149,64.3888888888889C514.4709973364901,64.3888888888889,514.4709973364901,64.3888888888889,500.53418171056524,64.3888888888889C250.26709085528262,64.3888888888889,250.26709085528262,64.3888888888889,0,64.3888888888889Z" fill="rgb(0, 0, 0)" opacity="0.2" transform="translate(0, 128.7777777777778)"/><path d="M0,0C250.26709085528262,0,250.26709085528262,-42.92592592592594,500.53418171056524,-42.92592592592594C514.4709973364901,-42.92592592592594,514.4709973364901,-42.92592592592594,528.4078129624149,-42.92592592592594C666.7039064812075,-42.92592592592594,666.7039064812075,-42.92592592592594,805,-42.92592592592594L805,64.3888888888889C666.7039064812075,64.3888888888889,666.7039064812075,64.3888888888889,528.4078129624149,64.3888888888889C514.4709973364901,64.3888888888889,514.4709973364901,64.3888888888889,500.53418171056524,64.3888888888889C250.26709085528262,64.3888888888889,250.26709085528262,64.3888888888889,0,64.3888888888889Z" fill="rgb(0, 0, 0)" opacity="0.2" transform="translate(0, 193.16666666666669)"/><path d="M0,0C250.26709085528262,0,250.26709085528262,-42.92592592592594,500.53418171056524,-42.92592592592594C514.4709973364901,-42.92592592592594,514.4709973364901,-42.92592592592594,528.4078129624149,-42.92592592592594C666.7039064812075,-42.92592592592594,666.7039064812075,-42.92592592592594,805,-42.92592592592594L805,64.3888888888889C666.7039064812075,64.3888888888889,666.7039064812075,64.3888888888889,528.4078129624149,64.3888888888889C514.4709973364901,64.3888888888889,514.4709973364901,64.3888888888889,500.53418171056524,64.3888888888889C250.26709085528262,64.3888888888889,250.26709085528262,64.3888888888889,0,64.3888888888889Z" fill="rgb(0, 0, 0)" opacity="0.2" transform="translate(0, 257.5555555555556)"/></g><g id="negative"><path d="M0,0C250.26709085528262,0,250.26709085528262,-42.92592592592594,500.53418171056524,-42.92592592592594C514.4709973364901,-42.92592592592594,514.4709973364901,-42.92592592592594,528.4078129624149,-42.92592592592594C666.7039064812075,-42.92592592592594,666.7039064812075,-42.92592592592594,805,-42.92592592592594L805,64.3888888888889C666.7039064812075,64.3888888888889,666.7039064812075,64.3888888888889,528.4078129624149,64.3888888888889C514.4709973364901,64.3888888888889,514.4709973364901,64.3888888888889,500.53418171056524,64.3888888888889C250.26709085528262,64.3888888888889,250.26709085528262,64.3888888888889,0,64.3888888888889Z" fill="#cccccc" opacity="0.2" transform="scale(1,-1) translate(0, -128.7777777777778)"/><path d="M0,0C250.26709085528262,0,250.26709085528262,-42.92592592592594,500.53418171056524,-42.92592592592594C514.4709973364901,-42.92592592592594,514.4709973364901,-42.92592592592594,528.4078129624149,-42.92592592592594C666.7039064812075,-42.92592592592594,666.7039064812075,-42.92592592592594,805,-42.92592592592594L805,64.3888888888889C666.7039064812075,64.3888888888889,666.7039064812075,64.3888888888889,528.4078129624149,64.3888888888889C514.4709973364901,64.3888888888889,514.4709973364901,64.3888888888889,500.53418171056524,64.3888888888889C250.26709085528262,64.3888888888889,250.26709085528262,64.3888888888889,0,64.3888888888889Z" fill="#cccccc" opacity="0.2" transform="scale(1,-1) translate(0, -193.16666666666669)"/><path d="M0,0C250.26709085528262,0,250.26709085528262,-42.92592592592594,500.53418171056524,-42.92592592592594C514.4709973364901,-42.92592592592594,514.4709973364901,-42.92592592592594,528.4078129624149,-42.92592592592594C666.7039064812075,-42.92592592592594,666.7039064812075,-42.92592592592594,805,-42.92592592592594L805,64.3888888888889C666.7039064812075,64.3888888888889,666.7039064812075,64.3888888888889,528.4078129624149,64.3888888888889C514.4709973364901,64.3888888888889,514.4709973364901,64.3888888888889,500.53418171056524,64.3888888888889C250.26709085528262,64.3888888888889,250.26709085528262,64.3888888888889,0,64.3888888888889Z" fill="#cccccc" opacity="0.2" transform="scale(1,-1) translate(0, -257.5555555555556)"/><path d="M0,0C250.26709085528262,0,250.26709085528262,-42.92592592592594,500.53418171056524,-42.92592592592594C514.4709973364901,-42.92592592592594,514.4709973364901,-42.92592592592594,528.4078129624149,-42.92592592592594C666.7039064812075,-42.92592592592594,666.7039064812075,-42.92592592592594,805,-42.92592592592594L805,64.3888888888889C666.7039064812075,64.3888888888889,666.7039064812075,64.3888888888889,528.4078129624149,64.3888888888889C514.4709973364901,64.3888888888889,514.4709973364901,64.3888888888889,500.53418171056524,64.3888888888889C250.26709085528262,64.3888888888889,250.26709085528262,64.3888888888889,0,64.3888888888889Z" fill="#cccccc" opacity="0.2" transform="scale(1,-1) translate(0, -321.94444444444446)"/><path d="M0,0C250.26709085528262,0,250.26709085528262,-42.92592592592594,500.53418171056524,-42.92592592592594C514.4709973364901,-42.92592592592594,514.4709973364901,-42.92592592592594,528.4078129624149,-42.92592592592594C666.7039064812075,-42.92592592592594,666.7039064812075,-42.92592592592594,805,-42.92592592592594L805,64.3888888888889C666.7039064812075,64.3888888888889,666.7039064812075,64.3888888888889,528.4078129624149,64.3888888888889C514.4709973364901,64.3888888888889,514.4709973364901,64.3888888888889,500.53418171056524,64.3888888888889C250.26709085528262,64.3888888888889,250.26709085528262,64.3888888888889,0,64.3888888888889Z" fill="#cccccc" opacity="0.2" transform="scale(1,-1) translate(0, -386.33333333333337)"/></g></g><g transform="translate(0,272.8055555555556)" id="Project Management" clip-path="url(#groupClipPath)"><g id="positive"><path d="M0,-128.7777777777778C250.26709085528262,-128.7777777777778,250.26709085528262,-257.5555555555556,500.53418171056524,-257.5555555555556C514.4709973364901,-257.5555555555556,514.4709973364901,-257.5555555555556,528.4078129624149,-257.5555555555556C666.7039064812075,-257.5555555555556,666.7039064812075,64.3888888888889,805,64.3888888888889L805,64.3888888888889C666.7039064812075,64.3888888888889,666.7039064812075,64.3888888888889,528.4078129624149,64.3888888888889C514.4709973364901,64.3888888888889,514.4709973364901,64.3888888888889,500.53418171056524,64.3888888888889C250.26709085528262,64.3888888888889,250.26709085528262,64.3888888888889,0,64.3888888888889Z" fill="rgb(0, 0, 0)" opacity="0.2" transform="translate(0, 0)"/><path d="M0,-128.7777777777778C250.26709085528262,-128.7777777777778,250.26709085528262,-257.5555555555556,500.53418171056524,-257.5555555555556C514.4709973364901,-257.5555555555556,514.4709973364901,-257.5555555555556,528.4078129624149,-257.5555555555556C666.7039064812075,-257.5555555555556,666.7039064812075,64.3888888888889,805,64.3888888888889L805,64.3888888888889C666.7039064812075,64.3888888888889,666.7039064812075,64.3888888888889,528.4078129624149,64.3888888888889C514.4709973364901,64.3888888888889,514.4709973364901,64.3888888888889,500.53418171056524,64.3888888888889C250.26709085528262,64.3888888888889,250.26709085528262,64.3888888888889,0,64.3888888888889Z" fill="rgb(0, 0, 0)" opacity="0.2" transform="translate(0, 64.3888888888889)"/><path d="M0,-128.7777777777778C250.26709085528262,-128.7777777777778,250.26709085528262,-257.5555555555556,500.53418171056524,-257.5555555555556C514.4709973364901,-257.5555555555556,514.4709973364901,-257.5555555555556,528.4078129624149,-257.5555555555556C666.7039064812075,-257.5555555555556,666.7039064812075,64.3888888888889,805,64.3888888888889L805,64.3888888888889C666.7039064812075,64.3888888888889,666.7039064812075,64.3888888888889,528.4078129624149,64.3888888888889C514.4709973364901,64.3888888888889,514.4709973364901,64.3888888888889,500.53418171056524,64.3888888888889C250.26709085528262,64.3888888888889,250.26709085528262,64.3888888888889,0,64.3888888888889Z" fill="rgb(0, 0, 0)" opacity="0.2" transform="translate(0, 128.7777777777778)"/><path d="M0,-128.7777777777778C250.26709085528262,-128.7777777777778,250.26709085528262,-257.5555555555556,500.53418171056524,-257.5555555555556C514.4709973364901,-257.5555555555556,514.4709973364901,-257.5555555555556,528.4078129624149,-257.5555555555556C666.7039064812075,-257.5555555555556,666.7039064812075,64.3888888888889,805,64.3888888888889L805,64.3888888888889C666.7039064812075,64.3888888888889,666.7039064812075,64.3888888888889,528.4078129624149,64.3888888888889C514.4709973364901,64.3888888888889,514.4709973364901,64.3888888888889,500.53418171056524,64.3888888888889C250.26709085528262,64.3888888888889,250.26709085528262,64.3888888888889,0,64.3888888888889Z" fill="rgb(0, 0, 0)" opacity="0.2" transform="translate(0, 193.16666666666669)"/><path d="M0,-128.7777777777778C250.26709085528262,-128.7777777777778,250.26709085528262,-257.5555555555556,500.53418171056524,-257.5555555555556C514.4709973364901,-257.5555555555556,514.4709973364901,-257.5555555555556,528.4078129624149,-257.5555555555556C666.7039064812075,-257.5555555555556,666.7039064812075,64.3888888888889,805,64.3888888888889L805,64.3888888888889C666.7039064812075,64.3888888888889,666.7039064812075,64.3888888888889,528.4078129624149,64.3888888888889C514.4709973364901,64.3888888888889,514.4709973364901,64.3888888888889,500.53418171056524,64.3888888888889C250.26709085528262,64.3888888888889,250.26709085528262,64.3888888888889,0,64.3888888888889Z" fill="rgb(0, 0, 0)" opacity="0.2" transform="translate(0, 257.5555555555556)"/></g><g id="negative"><path d="M0,-128.7777777777778C250.26709085528262,-128.7777777777778,250.26709085528262,-257.5555555555556,500.53418171056524,-257.5555555555556C514.4709973364901,-257.5555555555556,514.4709973364901,-257.5555555555556,528.4078129624149,-257.5555555555556C666.7039064812075,-257.5555555555556,666.7039064812075,64.3888888888889,805,64.3888888888889L805,64.3888888888889C666.7039064812075,64.3888888888889,666.7039064812075,64.3888888888889,528.4078129624149,64.3888888888889C514.4709973364901,64.3888888888889,514.4709973364901,64.3888888888889,500.53418171056524,64.3888888888889C250.26709085528262,64.3888888888889,250.26709085528262,64.3888888888889,0,64.3888888888889Z" fill="#cccccc" opacity="0.2" transform="scale(1,-1) translate(0, -128.7777777777778)"/><path d="M0,-128.7777777777778C250.26709085528262,-128.7777777777778,250.26709085528262,-257.5555555555556,500.53418171056524,-257.5555555555556C514.4709973364901,-257.5555555555556,514.4709973364901,-257.5555555555556,528.4078129624149,-257.5555555555556C666.7039064812075,-257.5555555555556,666.7039064812075,64.3888888888889,805,64.3888888888889L805,64.3888888888889C666.7039064812075,64.3888888888889,666.7039064812075,64.3888888888889,528.4078129624149,64.3888888888889C514.4709973364901,64.3888888888889,514.4709973364901,64.3888888888889,500.53418171056524,64.3888888888889C250.26709085528262,64.3888888888889,250.26709085528262,64.3888888888889,0,64.3888888888889Z" fill="#cccccc" opacity="0.2" transform="scale(1,-1) translate(0, -193.16666666666669)"/><path d="M0,-128.7777777777778C250.26709085528262,-128.7777777777778,250.26709085528262,-257.5555555555556,500.53418171056524,-257.5555555555556C514.4709973364901,-257.5555555555556,514.4709973364901,-257.5555555555556,528.4078129624149,-257.5555555555556C666.7039064812075,-257.5555555555556,666.7039064812075,64.3888888888889,805,64.3888888888889L805,64.3888888888889C666.7039064812075,64.3888888888889,666.7039064812075,64.3888888888889,528.4078129624149,64.3888888888889C514.4709973364901,64.3888888888889,514.4709973364901,64.3888888888889,500.53418171056524,64.3888888888889C250.26709085528262,64.3888888888889,250.26709085528262,64.3888888888889,0,64.3888888888889Z" fill="#cccccc" opacity="0.2" transform="scale(1,-1) translate(0, -257.5555555555556)"/><path d="M0,-128.7777777777778C250.26709085528262,-128.7777777777778,250.26709085528262,-257.5555555555556,500.53418171056524,-257.5555555555556C514.4709973364901,-257.5555555555556,514.4709973364901,-257.5555555555556,528.4078129624149,-257.5555555555556C666.7039064812075,-257.5555555555556,666.7039064812075,64.3888888888889,805,64.3888888888889L805,64.3888888888889C666.7039064812075,64.3888888888889,666.7039064812075,64.3888888888889,528.4078129624149,64.3888888888889C514.4709973364901,64.3888888888889,514.4709973364901,64.3888888888889,500.53418171056524,64.3888888888889C250.26709085528262,64.3888888888889,250.26709085528262,64.3888888888889,0,64.3888888888889Z" fill="#cccccc" opacity="0.2" transform="scale(1,-1) translate(0, -321.94444444444446)"/><path d="M0,-128.7777777777778C250.26709085528262,-128.7777777777778,250.26709085528262,-257.5555555555556,500.53418171056524,-257.5555555555556C514.4709973364901,-257.5555555555556,514.4709973364901,-257.5555555555556,528.4078129624149,-257.5555555555556C666.7039064812075,-257.5555555555556,666.7039064812075,64.3888888888889,805,64.3888888888889L805,64.3888888888889C666.7039064812075,64.3888888888889,666.7039064812075,64.3888888888889,528.4078129624149,64.3888888888889C514.4709973364901,64.3888888888889,514.4709973364901,64.3888888888889,500.53418171056524,64.3888888888889C250.26709085528262,64.3888888888889,250.26709085528262,64.3888888888889,0,64.3888888888889Z" fill="#cccccc" opacity="0.2" transform="scale(1,-1) translate(0, -386.33333333333337)"/></g></g><g transform="translate(0,341.0069444444445)" id="Research" clip-path="url(#groupClipPath)"><g id="positive"><path d="M0,-203.8981481481482C250.26709085528262,-203.8981481481482,250.26709085528262,-21.462962962962976,500.53418171056524,-21.462962962962976C514.4709973364901,-21.462962962962976,514.4709973364901,-21.462962962962976,528.4078129624149,-21.462962962962976C666.7039064812075,-21.462962962962976,666.7039064812075,-203.8981481481482,805,-203.8981481481482L805,64.3888888888889C666.7039064812075,64.3888888888889,666.7039064812075,64.3888888888889,528.4078129624149,64.3888888888889C514.4709973364901,64.3888888888889,514.4709973364901,64.3888888888889,500.53418171056524,64.3888888888889C250.26709085528262,64.3888888888889,250.26709085528262,64.3888888888889,0,64.3888888888889Z" fill="rgb(0, 0, 0)" opacity="0.2" transform="translate(0, 0)"/><path d="M0,-203.8981481481482C250.26709085528262,-203.8981481481482,250.26709085528262,-21.462962962962976,500.53418171056524,-21.462962962962976C514.4709973364901,-21.462962962962976,514.4709973364901,-21.462962962962976,528.4078129624149,-21.462962962962976C666.7039064812075,-21.462962962962976,666.7039064812075,-203.8981481481482,805,-203.8981481481482L805,64.3888888888889C666.7039064812075,64.3888888888889,666.7039064812075,64.3888888888889,528.4078129624149,64.3888888888889C514.4709973364901,64.3888888888889,514.4709973364901,64.3888888888889,500.53418171056524,64.3888888888889C250.26709085528262,64.3888888888889,250.26709085528262,64.3888888888889,0,64.3888888888889Z" fill="rgb(0, 0, 0)" opacity="0.2" transform="translate(0, 64.3888888888889)"/><path d="M0,-203.8981481481482C250.26709085528262,-203.8981481481482,250.26709085528262,-21.462962962962976,500.53418171056524,-21.462962962962976C514.4709973364901,-21.462962962962976,514.4709973364901,-21.462962962962976,528.4078129624149,-21.462962962962976C666.7039064812075,-21.462962962962976,666.7039064812075,-203.8981481481482,805,-203.8981481481482L805,64.3888888888889C666.7039064812075,64.3888888888889,666.7039064812075,64.3888888888889,528.4078129624149,64.3888888888889C514.4709973364901,64.3888888888889,514.4709973364901,64.3888888888889,500.53418171056524,64.3888888888889C250.26709085528262,64.3888888888889,250.26709085528262,64.3888888888889,0,64.3888888888889Z" fill="rgb(0, 0, 0)" opacity="0.2" transform="translate(0, 128.7777777777778)"/><path d="M0,-203.8981481481482C250.26709085528262,-203.8981481481482,250.26709085528262,-21.462962962962976,500.53418171056524,-21.462962962962976C514.4709973364901,-21.462962962962976,514.4709973364901,-21.462962962962976,528.4078129624149,-21.462962962962976C666.7039064812075,-21.462962962962976,666.7039064812075,-203.8981481481482,805,-203.8981481481482L805,64.3888888888889C666.7039064812075,64.3888888888889,666.7039064812075,64.3888888888889,528.4078129624149,64.3888888888889C514.4709973364901,64.3888888888889,514.4709973364901,64.3888888888889,500.53418171056524,64.3888888888889C250.26709085528262,64.3888888888889,250.26709085528262,64.3888888888889,0,64.3888888888889Z" fill="rgb(0, 0, 0)" opacity="0.2" transform="translate(0, 193.16666666666669)"/><path d="M0,-203.8981481481482C250.26709085528262,-203.8981481481482,250.26709085528262,-21.462962962962976,500.53418171056524,-21.462962962962976C514.4709973364901,-21.462962962962976,514.4709973364901,-21.462962962962976,528.4078129624149,-21.462962962962976C666.7039064812075,-21.462962962962976,666.7039064812075,-203.8981481481482,805,-203.8981481481482L805,64.3888888888889C666.7039064812075,64.3888888888889,666.7039064812075,64.3888888888889,528.4078129624149,64.3888888888889C514.4709973364901,64.3888888888889,514.4709973364901,64.3888888888889,500.53418171056524,64.3888888888889C250.26709085528262,64.3888888888889,250.26709085528262,64.3888888888889,0,64.3888888888889Z" fill="rgb(0, 0, 0)" opacity="0.2" transform="translate(0, 257.5555555555556)"/></g><g id="negative"><path d="M0,-203.8981481481482C250.26709085528262,-203.8981481481482,250.26709085528262,-21.462962962962976,500.53418171056524,-21.462962962962976C514.4709973364901,-21.462962962962976,514.4709973364901,-21.462962962962976,528.4078129624149,-21.462962962962976C666.7039064812075,-21.462962962962976,666.7039064812075,-203.8981481481482,805,-203.8981481481482L805,64.3888888888889C666.7039064812075,64.3888888888889,666.7039064812075,64.3888888888889,528.4078129624149,64.3888888888889C514.4709973364901,64.3888888888889,514.4709973364901,64.3888888888889,500.53418171056524,64.3888888888889C250.26709085528262,64.3888888888889,250.26709085528262,64.3888888888889,0,64.3888888888889Z" fill="#cccccc" opacity="0.2" transform="scale(1,-1) translate(0, -128.7777777777778)"/><path d="M0,-203.8981481481482C250.26709085528262,-203.8981481481482,250.26709085528262,-21.462962962962976,500.53418171056524,-21.462962962962976C514.4709973364901,-21.462962962962976,514.4709973364901,-21.462962962962976,528.4078129624149,-21.462962962962976C666.7039064812075,-21.462962962962976,666.7039064812075,-203.8981481481482,805,-203.8981481481482L805,64.3888888888889C666.7039064812075,64.3888888888889,666.7039064812075,64.3888888888889,528.4078129624149,64.3888888888889C514.4709973364901,64.3888888888889,514.4709973364901,64.3888888888889,500.53418171056524,64.3888888888889C250.26709085528262,64.3888888888889,250.26709085528262,64.3888888888889,0,64.3888888888889Z" fill="#cccccc" opacity="0.2" transform="scale(1,-1) translate(0, -193.16666666666669)"/><path d="M0,-203.8981481481482C250.26709085528262,-203.8981481481482,250.26709085528262,-21.462962962962976,500.53418171056524,-21.462962962962976C514.4709973364901,-21.462962962962976,514.4709973364901,-21.462962962962976,528.4078129624149,-21.462962962962976C666.7039064812075,-21.462962962962976,666.7039064812075,-203.8981481481482,805,-203.8981481481482L805,64.3888888888889C666.7039064812075,64.3888888888889,666.7039064812075,64.3888888888889,528.4078129624149,64.3888888888889C514.4709973364901,64.3888888888889,514.4709973364901,64.3888888888889,500.53418171056524,64.3888888888889C250.26709085528262,64.3888888888889,250.26709085528262,64.3888888888889,0,64.3888888888889Z" fill="#cccccc" opacity="0.2" transform="scale(1,-1) translate(0, -257.5555555555556)"/><path d="M0,-203.8981481481482C250.26709085528262,-203.8981481481482,250.26709085528262,-21.462962962962976,500.53418171056524,-21.462962962962976C514.4709973364901,-21.462962962962976,514.4709973364901,-21.462962962962976,528.4078129624149,-21.462962962962976C666.7039064812075,-21.462962962962976,666.7039064812075,-203.8981481481482,805,-203.8981481481482L805,64.3888888888889C666.7039064812075,64.3888888888889,666.7039064812075,64.3888888888889,528.4078129624149,64.3888888888889C514.4709973364901,64.3888888888889,514.4709973364901,64.3888888888889,500.53418171056524,64.3888888888889C250.26709085528262,64.3888888888889,250.26709085528262,64.3888888888889,0,64.3888888888889Z" fill="#cccccc" opacity="0.2" transform="scale(1,-1) translate(0, -321.94444444444446)"/><path d="M0,-203.8981481481482C250.26709085528262,-203.8981481481482,250.26709085528262,-21.462962962962976,500.53418171056524,-21.462962962962976C514.4709973364901,-21.462962962962976,514.4709973364901,-21.462962962962976,528.4078129624149,-21.462962962962976C666.7039064812075,-21.462962962962976,666.7039064812075,-203.8981481481482,805,-203.8981481481482L805,64.3888888888889C666.7039064812075,64.3888888888889,666.7039064812075,64.3888888888889,528.4078129624149,64.3888888888889C514.4709973364901,64.3888888888889,514.4709973364901,64.3888888888889,500.53418171056524,64.3888888888889C250.26709085528262,64.3888888888889,250.26709085528262,64.3888888888889,0,64.3888888888889Z" fill="#cccccc" opacity="0.2" transform="scale(1,-1) translate(0, -386.33333333333337)"/></g></g><g transform="translate(0,409.20833333333337)" id="Analysis" clip-path="url(#groupClipPath)"><g id="positive"><path d="M0,-257.5555555555556C250.26709085528262,-257.5555555555556,250.26709085528262,-150.2407407407408,500.53418171056524,-150.2407407407408C514.4709973364901,-150.2407407407408,514.4709973364901,-150.2407407407408,528.4078129624149,-150.2407407407408C666.7039064812075,-150.2407407407408,666.7039064812075,-96.58333333333334,805,-96.58333333333334L805,64.3888888888889C666.7039064812075,64.3888888888889,666.7039064812075,64.3888888888889,528.4078129624149,64.3888888888889C514.4709973364901,64.3888888888889,514.4709973364901,64.3888888888889,500.53418171056524,64.3888888888889C250.26709085528262,64.3888888888889,250.26709085528262,64.3888888888889,0,64.3888888888889Z" fill="rgb(0, 0, 0)" opacity="0.2" transform="translate(0, 0)"/><path d="M0,-257.5555555555556C250.26709085528262,-257.5555555555556,250.26709085528262,-150.2407407407408,500.53418171056524,-150.2407407407408C514.4709973364901,-150.2407407407408,514.4709973364901,-150.2407407407408,528.4078129624149,-150.2407407407408C666.7039064812075,-150.2407407407408,666.7039064812075,-96.58333333333334,805,-96.58333333333334L805,64.3888888888889C666.7039064812075,64.3888888888889,666.7039064812075,64.3888888888889,528.4078129624149,64.3888888888889C514.4709973364901,64.3888888888889,514.4709973364901,64.3888888888889,500.53418171056524,64.3888888888889C250.26709085528262,64.3888888888889,250.26709085528262,64.3888888888889,0,64.3888888888889Z" fill="rgb(0, 0, 0)" opacity="0.2" transform="translate(0, 64.3888888888889)"/><path d="M0,-257.5555555555556C250.26709085528262,-257.5555555555556,250.26709085528262,-150.2407407407408,500.53418171056524,-150.2407407407408C514.4709973364901,-150.2407407407408,514.4709973364901,-150.2407407407408,528.4078129624149,-150.2407407407408C666.7039064812075,-150.2407407407408,666.7039064812075,-96.58333333333334,805,-96.58333333333334L805,64.3888888888889C666.7039064812075,64.3888888888889,666.7039064812075,64.3888888888889,528.4078129624149,64.3888888888889C514.4709973364901,64.3888888888889,514.4709973364901,64.3888888888889,500.53418171056524,64.3888888888889C250.26709085528262,64.3888888888889,250.26709085528262,64.3888888888889,0,64.3888888888889Z" fill="rgb(0, 0, 0)" opacity="0.2" transform="translate(0, 128.7777777777778)"/><path d="M0,-257.5555555555556C250.26709085528262,-257.5555555555556,250.26709085528262,-150.2407407407408,500.53418171056524,-150.2407407407408C514.4709973364901,-150.2407407407408,514.4709973364901,-150.2407407407408,528.4078129624149,-150.2407407407408C666.7039064812075,-150.2407407407408,666.7039064812075,-96.58333333333334,805,-96.58333333333334L805,64.3888888888889C666.7039064812075,64.3888888888889,666.7039064812075,64.3888888888889,528.4078129624149,64.3888888888889C514.4709973364901,64.3888888888889,514.4709973364901,64.3888888888889,500.53418171056524,64.3888888888889C250.26709085528262,64.3888888888889,250.26709085528262,64.3888888888889,0,64.3888888888889Z" fill="rgb(0, 0, 0)" opacity="0.2" transform="translate(0, 193.16666666666669)"/><path d="M0,-257.5555555555556C250.26709085528262,-257.5555555555556,250.26709085528262,-150.2407407407408,500.53418171056524,-150.2407407407408C514.4709973364901,-150.2407407407408,514.4709973364901,-150.2407407407408,528.4078129624149,-150.2407407407408C666.7039064812075,-150.2407407407408,666.7039064812075,-96.58333333333334,805,-96.58333333333334L805,64.3888888888889C666.7039064812075,64.3888888888889,666.7039064812075,64.3888888888889,528.4078129624149,64.3888888888889C514.4709973364901,64.3888888888889,514.4709973364901,64.3888888888889,500.53418171056524,64.3888888888889C250.26709085528262,64.3888888888889,250.26709085528262,64.3888888888889,0,64.3888888888889Z" fill="rgb(0, 0, 0)" opacity="0.2" transform="translate(0, 257.5555555555556)"/></g><g id="negative"><path d="M0,-257.5555555555556C250.26709085528262,-257.5555555555556,250.26709085528262,-150.2407407407408,500.53418171056524,-150.2407407407408C514.4709973364901,-150.2407407407408,514.4709973364901,-150.2407407407408,528.4078129624149,-150.2407407407408C666.7039064812075,-150.2407407407408,666.7039064812075,-96.58333333333334,805,-96.58333333333334L805,64.3888888888889C666.7039064812075,64.3888888888889,666.7039064812075,64.3888888888889,528.4078129624149,64.3888888888889C514.4709973364901,64.3888888888889,514.4709973364901,64.3888888888889,500.53418171056524,64.3888888888889C250.26709085528262,64.3888888888889,250.26709085528262,64.3888888888889,0,64.3888888888889Z" fill="#cccccc" opacity="0.2" transform="scale(1,-1) translate(0, -128.7777777777778)"/><path d="M0,-257.5555555555556C250.26709085528262,-257.5555555555556,250.26709085528262,-150.2407407407408,500.53418171056524,-150.2407407407408C514.4709973364901,-150.2407407407408,514.4709973364901,-150.2407407407408,528.4078129624149,-150.2407407407408C666.7039064812075,-150.2407407407408,666.7039064812075,-96.58333333333334,805,-96.58333333333334L805,64.3888888888889C666.7039064812075,64.3888888888889,666.7039064812075,64.3888888888889,528.4078129624149,64.3888888888889C514.4709973364901,64.3888888888889,514.4709973364901,64.3888888888889,500.53418171056524,64.3888888888889C250.26709085528262,64.3888888888889,250.26709085528262,64.3888888888889,0,64.3888888888889Z" fill="#cccccc" opacity="0.2" transform="scale(1,-1) translate(0, -193.16666666666669)"/><path d="M0,-257.5555555555556C250.26709085528262,-257.5555555555556,250.26709085528262,-150.2407407407408,500.53418171056524,-150.2407407407408C514.4709973364901,-150.2407407407408,514.4709973364901,-150.2407407407408,528.4078129624149,-150.2407407407408C666.7039064812075,-150.2407407407408,666.7039064812075,-96.58333333333334,805,-96.58333333333334L805,64.3888888888889C666.7039064812075,64.3888888888889,666.7039064812075,64.3888888888889,528.4078129624149,64.3888888888889C514.4709973364901,64.3888888888889,514.4709973364901,64.3888888888889,500.53418171056524,64.3888888888889C250.26709085528262,64.3888888888889,250.26709085528262,64.3888888888889,0,64.3888888888889Z" fill="#cccccc" opacity="0.2" transform="scale(1,-1) translate(0, -257.5555555555556)"/><path d="M0,-257.5555555555556C250.26709085528262,-257.5555555555556,250.26709085528262,-150.2407407407408,500.53418171056524,-150.2407407407408C514.4709973364901,-150.2407407407408,514.4709973364901,-150.2407407407408,528.4078129624149,-150.2407407407408C666.7039064812075,-150.2407407407408,666.7039064812075,-96.58333333333334,805,-96.58333333333334L805,64.3888888888889C666.7039064812075,64.3888888888889,666.7039064812075,64.3888888888889,528.4078129624149,64.3888888888889C514.4709973364901,64.3888888888889,514.4709973364901,64.3888888888889,500.53418171056524,64.3888888888889C250.26709085528262,64.3888888888889,250.26709085528262,64.3888888888889,0,64.3888888888889Z" fill="#cccccc" opacity="0.2" transform="scale(1,-1) translate(0, -321.94444444444446)"/><path d="M0,-257.5555555555556C250.26709085528262,-257.5555555555556,250.26709085528262,-150.2407407407408,500.53418171056524,-150.2407407407408C514.4709973364901,-150.2407407407408,514.4709973364901,-150.2407407407408,528.4078129624149,-150.2407407407408C666.7039064812075,-150.2407407407408,666.7039064812075,-96.58333333333334,805,-96.58333333333334L805,64.3888888888889C666.7039064812075,64.3888888888889,666.7039064812075,64.3888888888889,528.4078129624149,64.3888888888889C514.4709973364901,64.3888888888889,514.4709973364901,64.3888888888889,500.53418171056524,64.3888888888889C250.26709085528262,64.3888888888889,250.26709085528262,64.3888888888889,0,64.3888888888889Z" fill="#cccccc" opacity="0.2" transform="scale(1,-1) translate(0, -386.33333333333337)"/></g></g><g transform="translate(0,477.4097222222223)" id="Volunteerism" clip-path="url(#groupClipPath)"><g id="positive"><path d="M0,-32.19444444444445C250.26709085528262,-32.19444444444445,250.26709085528262,-42.92592592592594,500.53418171056524,-42.92592592592594C514.4709973364901,-42.92592592592594,514.4709973364901,-42.92592592592594,528.4078129624149,-42.92592592592594C666.7039064812075,-42.92592592592594,666.7039064812075,-150.2407407407408,805,-150.2407407407408L805,64.3888888888889C666.7039064812075,64.3888888888889,666.7039064812075,64.3888888888889,528.4078129624149,64.3888888888889C514.4709973364901,64.3888888888889,514.4709973364901,64.3888888888889,500.53418171056524,64.3888888888889C250.26709085528262,64.3888888888889,250.26709085528262,64.3888888888889,0,64.3888888888889Z" fill="rgb(0, 0, 0)" opacity="0.2" transform="translate(0, 0)"/><path d="M0,-32.19444444444445C250.26709085528262,-32.19444444444445,250.26709085528262,-42.92592592592594,500.53418171056524,-42.92592592592594C514.4709973364901,-42.92592592592594,514.4709973364901,-42.92592592592594,528.4078129624149,-42.92592592592594C666.7039064812075,-42.92592592592594,666.7039064812075,-150.2407407407408,805,-150.2407407407408L805,64.3888888888889C666.7039064812075,64.3888888888889,666.7039064812075,64.3888888888889,528.4078129624149,64.3888888888889C514.4709973364901,64.3888888888889,514.4709973364901,64.3888888888889,500.53418171056524,64.3888888888889C250.26709085528262,64.3888888888889,250.26709085528262,64.3888888888889,0,64.3888888888889Z" fill="rgb(0, 0, 0)" opacity="0.2" transform="translate(0, 64.3888888888889)"/><path d="M0,-32.19444444444445C250.26709085528262,-32.19444444444445,250.26709085528262,-42.92592592592594,500.53418171056524,-42.92592592592594C514.4709973364901,-42.92592592592594,514.4709973364901,-42.92592592592594,528.4078129624149,-42.92592592592594C666.7039064812075,-42.92592592592594,666.7039064812075,-150.2407407407408,805,-150.2407407407408L805,64.3888888888889C666.7039064812075,64.3888888888889,666.7039064812075,64.3888888888889,528.4078129624149,64.3888888888889C514.4709973364901,64.3888888888889,514.4709973364901,64.3888888888889,500.53418171056524,64.3888888888889C250.26709085528262,64.3888888888889,250.26709085528262,64.3888888888889,0,64.3888888888889Z" fill="rgb(0, 0, 0)" opacity="0.2" transform="translate(0, 128.7777777777778)"/><path d="M0,-32.19444444444445C250.26709085528262,-32.19444444444445,250.26709085528262,-42.92592592592594,500.53418171056524,-42.92592592592594C514.4709973364901,-42.92592592592594,514.4709973364901,-42.92592592592594,528.4078129624149,-42.92592592592594C666.7039064812075,-42.92592592592594,666.7039064812075,-150.2407407407408,805,-150.2407407407408L805,64.3888888888889C666.7039064812075,64.3888888888889,666.7039064812075,64.3888888888889,528.4078129624149,64.3888888888889C514.4709973364901,64.3888888888889,514.4709973364901,64.3888888888889,500.53418171056524,64.3888888888889C250.26709085528262,64.3888888888889,250.26709085528262,64.3888888888889,0,64.3888888888889Z" fill="rgb(0, 0, 0)" opacity="0.2" transform="translate(0, 193.16666666666669)"/><path d="M0,-32.19444444444445C250.26709085528262,-32.19444444444445,250.26709085528262,-42.92592592592594,500.53418171056524,-42.92592592592594C514.4709973364901,-42.92592592592594,514.4709973364901,-42.92592592592594,528.4078129624149,-42.92592592592594C666.7039064812075,-42.92592592592594,666.7039064812075,-150.2407407407408,805,-150.2407407407408L805,64.3888888888889C666.7039064812075,64.3888888888889,666.7039064812075,64.3888888888889,528.4078129624149,64.3888888888889C514.4709973364901,64.3888888888889,514.4709973364901,64.3888888888889,500.53418171056524,64.3888888888889C250.26709085528262,64.3888888888889,250.26709085528262,64.3888888888889,0,64.3888888888889Z" fill="rgb(0, 0, 0)" opacity="0.2" transform="translate(0, 257.5555555555556)"/></g><g id="negative"><path d="M0,-32.19444444444445C250.26709085528262,-32.19444444444445,250.26709085528262,-42.92592592592594,500.53418171056524,-42.92592592592594C514.4709973364901,-42.92592592592594,514.4709973364901,-42.92592592592594,528.4078129624149,-42.92592592592594C666.7039064812075,-42.92592592592594,666.7039064812075,-150.2407407407408,805,-150.2407407407408L805,64.3888888888889C666.7039064812075,64.3888888888889,666.7039064812075,64.3888888888889,528.4078129624149,64.3888888888889C514.4709973364901,64.3888888888889,514.4709973364901,64.3888888888889,500.53418171056524,64.3888888888889C250.26709085528262,64.3888888888889,250.26709085528262,64.3888888888889,0,64.3888888888889Z" fill="#cccccc" opacity="0.2" transform="scale(1,-1) translate(0, -128.7777777777778)"/><path d="M0,-32.19444444444445C250.26709085528262,-32.19444444444445,250.26709085528262,-42.92592592592594,500.53418171056524,-42.92592592592594C514.4709973364901,-42.92592592592594,514.4709973364901,-42.92592592592594,528.4078129624149,-42.92592592592594C666.7039064812075,-42.92592592592594,666.7039064812075,-150.2407407407408,805,-150.2407407407408L805,64.3888888888889C666.7039064812075,64.3888888888889,666.7039064812075,64.3888888888889,528.4078129624149,64.3888888888889C514.4709973364901,64.3888888888889,514.4709973364901,64.3888888888889,500.53418171056524,64.3888888888889C250.26709085528262,64.3888888888889,250.26709085528262,64.3888888888889,0,64.3888888888889Z" fill="#cccccc" opacity="0.2" transform="scale(1,-1) translate(0, -193.16666666666669)"/><path d="M0,-32.19444444444445C250.26709085528262,-32.19444444444445,250.26709085528262,-42.92592592592594,500.53418171056524,-42.92592592592594C514.4709973364901,-42.92592592592594,514.4709973364901,-42.92592592592594,528.4078129624149,-42.92592592592594C666.7039064812075,-42.92592592592594,666.7039064812075,-150.2407407407408,805,-150.2407407407408L805,64.3888888888889C666.7039064812075,64.3888888888889,666.7039064812075,64.3888888888889,528.4078129624149,64.3888888888889C514.4709973364901,64.3888888888889,514.4709973364901,64.3888888888889,500.53418171056524,64.3888888888889C250.26709085528262,64.3888888888889,250.26709085528262,64.3888888888889,0,64.3888888888889Z" fill="#cccccc" opacity="0.2" transform="scale(1,-1) translate(0, -257.5555555555556)"/><path d="M0,-32.19444444444445C250.26709085528262,-32.19444444444445,250.26709085528262,-42.92592592592594,500.53418171056524,-42.92592592592594C514.4709973364901,-42.92592592592594,514.4709973364901,-42.92592592592594,528.4078129624149,-42.92592592592594C666.7039064812075,-42.92592592592594,666.7039064812075,-150.2407407407408,805,-150.2407407407408L805,64.3888888888889C666.7039064812075,64.3888888888889,666.7039064812075,64.3888888888889,528.4078129624149,64.3888888888889C514.4709973364901,64.3888888888889,514.4709973364901,64.3888888888889,500.53418171056524,64.3888888888889C250.26709085528262,64.3888888888889,250.26709085528262,64.3888888888889,0,64.3888888888889Z" fill="#cccccc" opacity="0.2" transform="scale(1,-1) translate(0, -321.94444444444446)"/><path d="M0,-32.19444444444445C250.26709085528262,-32.19444444444445,250.26709085528262,-42.92592592592594,500.53418171056524,-42.92592592592594C514.4709973364901,-42.92592592592594,514.4709973364901,-42.92592592592594,528.4078129624149,-42.92592592592594C666.7039064812075,-42.92592592592594,666.7039064812075,-150.2407407407408,805,-150.2407407407408L805,64.3888888888889C666.7039064812075,64.3888888888889,666.7039064812075,64.3888888888889,528.4078129624149,64.3888888888889C514.4709973364901,64.3888888888889,514.4709973364901,64.3888888888889,500.53418171056524,64.3888888888889C250.26709085528262,64.3888888888889,250.26709085528262,64.3888888888889,0,64.3888888888889Z" fill="#cccccc" opacity="0.2" transform="scale(1,-1) translate(0, -386.33333333333337)"/></g></g><g transform="translate(0,545.6111111111112)" id="Consultancy" clip-path="url(#groupClipPath)"><g id="positive"><path d="M500.53418171056524,10.731481481481481C514.4709973364901,10.731481481481481,514.4709973364901,10.731481481481481,528.4078129624149,10.731481481481481C666.7039064812075,10.731481481481481,666.7039064812075,-42.92592592592594,805,-42.92592592592594L805,64.3888888888889C666.7039064812075,64.3888888888889,666.7039064812075,64.3888888888889,528.4078129624149,64.3888888888889C514.4709973364901,64.3888888888889,514.4709973364901,64.3888888888889,500.53418171056524,64.3888888888889Z" fill="rgb(0, 0, 0)" opacity="0.2" transform="translate(0, 0)"/><path d="M500.53418171056524,10.731481481481481C514.4709973364901,10.731481481481481,514.4709973364901,10.731481481481481,528.4078129624149,10.731481481481481C666.7039064812075,10.731481481481481,666.7039064812075,-42.92592592592594,805,-42.92592592592594L805,64.3888888888889C666.7039064812075,64.3888888888889,666.7039064812075,64.3888888888889,528.4078129624149,64.3888888888889C514.4709973364901,64.3888888888889,514.4709973364901,64.3888888888889,500.53418171056524,64.3888888888889Z" fill="rgb(0, 0, 0)" opacity="0.2" transform="translate(0, 64.3888888888889)"/><path d="M500.53418171056524,10.731481481481481C514.4709973364901,10.731481481481481,514.4709973364901,10.731481481481481,528.4078129624149,10.731481481481481C666.7039064812075,10.731481481481481,666.7039064812075,-42.92592592592594,805,-42.92592592592594L805,64.3888888888889C666.7039064812075,64.3888888888889,666.7039064812075,64.3888888888889,528.4078129624149,64.3888888888889C514.4709973364901,64.3888888888889,514.4709973364901,64.3888888888889,500.53418171056524,64.3888888888889Z" fill="rgb(0, 0, 0)" opacity="0.2" transform="translate(0, 128.7777777777778)"/><path d="M500.53418171056524,10.731481481481481C514.4709973364901,10.731481481481481,514.4709973364901,10.731481481481481,528.4078129624149,10.731481481481481C666.7039064812075,10.731481481481481,666.7039064812075,-42.92592592592594,805,-42.92592592592594L805,64.3888888888889C666.7039064812075,64.3888888888889,666.7039064812075,64.3888888888889,528.4078129624149,64.3888888888889C514.4709973364901,64.3888888888889,514.4709973364901,64.3888888888889,500.53418171056524,64.3888888888889Z" fill="rgb(0, 0, 0)" opacity="0.2" transform="translate(0, 193.16666666666669)"/><path d="M500.53418171056524,10.731481481481481C514.4709973364901,10.731481481481481,514.4709973364901,10.731481481481481,528.4078129624149,10.731481481481481C666.7039064812075,10.731481481481481,666.7039064812075,-42.92592592592594,805,-42.92592592592594L805,64.3888888888889C666.7039064812075,64.3888888888889,666.7039064812075,64.3888888888889,528.4078129624149,64.3888888888889C514.4709973364901,64.3888888888889,514.4709973364901,64.3888888888889,500.53418171056524,64.3888888888889Z" fill="rgb(0, 0, 0)" opacity="0.2" transform="translate(0, 257.5555555555556)"/></g><g id="negative"><path d="M500.53418171056524,10.731481481481481C514.4709973364901,10.731481481481481,514.4709973364901,10.731481481481481,528.4078129624149,10.731481481481481C666.7039064812075,10.731481481481481,666.7039064812075,-42.92592592592594,805,-42.92592592592594L805,64.3888888888889C666.7039064812075,64.3888888888889,666.7039064812075,64.3888888888889,528.4078129624149,64.3888888888889C514.4709973364901,64.3888888888889,514.4709973364901,64.3888888888889,500.53418171056524,64.3888888888889Z" fill="#cccccc" opacity="0.2" transform="scale(1,-1) translate(0, -128.7777777777778)"/><path d="M500.53418171056524,10.731481481481481C514.4709973364901,10.731481481481481,514.4709973364901,10.731481481481481,528.4078129624149,10.731481481481481C666.7039064812075,10.731481481481481,666.7039064812075,-42.92592592592594,805,-42.92592592592594L805,64.3888888888889C666.7039064812075,64.3888888888889,666.7039064812075,64.3888888888889,528.4078129624149,64.3888888888889C514.4709973364901,64.3888888888889,514.4709973364901,64.3888888888889,500.53418171056524,64.3888888888889Z" fill="#cccccc" opacity="0.2" transform="scale(1,-1) translate(0, -193.16666666666669)"/><path d="M500.53418171056524,10.731481481481481C514.4709973364901,10.731481481481481,514.4709973364901,10.731481481481481,528.4078129624149,10.731481481481481C666.7039064812075,10.731481481481481,666.7039064812075,-42.92592592592594,805,-42.92592592592594L805,64.3888888888889C666.7039064812075,64.3888888888889,666.7039064812075,64.3888888888889,528.4078129624149,64.3888888888889C514.4709973364901,64.3888888888889,514.4709973364901,64.3888888888889,500.53418171056524,64.3888888888889Z" fill="#cccccc" opacity="0.2" transform="scale(1,-1) translate(0, -257.5555555555556)"/><path d="M500.53418171056524,10.731481481481481C514.4709973364901,10.731481481481481,514.4709973364901,10.731481481481481,528.4078129624149,10.731481481481481C666.7039064812075,10.731481481481481,666.7039064812075,-42.92592592592594,805,-42.92592592592594L805,64.3888888888889C666.7039064812075,64.3888888888889,666.7039064812075,64.3888888888889,528.4078129624149,64.3888888888889C514.4709973364901,64.3888888888889,514.4709973364901,64.3888888888889,500.53418171056524,64.3888888888889Z" fill="#cccccc" opacity="0.2" transform="scale(1,-1) translate(0, -321.94444444444446)"/><path d="M500.53418171056524,10.731481481481481C514.4709973364901,10.731481481481481,514.4709973364901,10.731481481481481,528.4078129624149,10.731481481481481C666.7039064812075,10.731481481481481,666.7039064812075,-42.92592592592594,805,-42.92592592592594L805,64.3888888888889C666.7039064812075,64.3888888888889,666.7039064812075,64.3888888888889,528.4078129624149,64.3888888888889C514.4709973364901,64.3888888888889,514.4709973364901,64.3888888888889,500.53418171056524,64.3888888888889Z" fill="#cccccc" opacity="0.2" transform="scale(1,-1) translate(0, -386.33333333333337)"/></g></g><g id="axis"><g fill="none" font-size="10" font-family="sans-serif" text-anchor="end"><path class="domain" stroke="currentColor" d="M0.5,0.5V610.5"/><g class="tick" opacity="1" transform="translate(0,32.19444444444445)"><line stroke="currentColor" x2="-6"/><text fill="currentColor" x="-9" dy="0.32em">People Management</text></g><g class="tick" opacity="1" transform="translate(0,100.39583333333334)"><line stroke="currentColor" x2="-6"/><text fill="currentColor" x="-9" dy="0.32em">Public Speaking</text></g><g class="tick" opacity="1" transform="translate(0,168.59722222222226)"><line stroke="currentColor" x2="-6"/><text fill="currentColor" x="-9" dy="0.32em">Leadership</text></g><g class="tick" opacity="1" transform="translate(0,236.79861111111114)"><line stroke="currentColor" x2="-6"/><text fill="currentColor" x="-9" dy="0.32em">Teaching</text></g><g class="tick" opacity="1" transform="translate(0,305.00000000000006)"><line stroke="currentColor" x2="-6"/><text fill="currentColor" x="-9" dy="0.32em">Project Management</text></g><g class="tick" opacity="1" transform="translate(0,373.20138888888897)"><line stroke="currentColor" x2="-6"/><text fill="currentColor" x="-9" dy="0.32em">Research</text></g><g class="tick" opacity="1" transform="translate(0,441.4027777777778)"><line stroke="currentColor" x2="-6"/><text fill="currentColor" x="-9" dy="0.32em">Analysis</text></g><g class="tick" opacity="1" transform="translate(0,509.60416666666674)"><line stroke="currentColor" x2="-6"/><text fill="currentColor" x="-9" dy="0.32em">Volunteerism</text></g><g class="tick" opacity="1" transform="translate(0,577.8055555555557)"><line stroke="currentColor" x2="-6"/><text fill="currentColor" x="-9" dy="0.32em">Consultancy</text></g></g><g transform="translate(0,610)" fill="none" font-size="10" font-family="sans-serif" text-anchor="middle"><path class="domain" stroke="currentColor" d="M0.5,0.5H805.5"/><g class="tick" opacity="1" transform="translate(85.31207457827759,0)"><line stroke="currentColor" y2="6"/><text fill="currentColor" y="9" dy="0.71em">2011</text></g><g class="tick" opacity="1" transform="translate(172.2682746374667,0)"><line stroke="currentColor" y2="6"/><text fill="currentColor" y="9" dy="0.71em">2012</text></g><g class="tick" opacity="1" transform="translate(259.4627108612016,0)"><line stroke="currentColor" y2="6"/><text fill="currentColor" y="9" dy="0.71em">2013</text></g><g class="tick" opacity="1" transform="translate(346.41891092039066,0)"><line stroke="currentColor" y2="6"/><text fill="currentColor" y="9" dy="0.71em">2014</text></g><g class="tick" opacity="1" transform="translate(433.3751109795798,0)"><line stroke="currentColor" y2="6"/><text fill="currentColor" y="9" dy="0.71em">2015</text></g><g class="tick" opacity="1" transform="translate(520.3313110387688,0)"><line stroke="currentColor" y2="6"/><text fill="currentColor" y="9" dy="0.71em">2016</text></g><g class="tick" opacity="1" transform="translate(607.5257472625037,0)"><line stroke="currentColor" y2="6"/><text fill="currentColor" y="9" dy="0.71em">2017</text></g><g class="tick" opacity="1" transform="translate(694.4819473216928,0)"><line stroke="currentColor" y2="6"/><text fill="currentColor" y="9" dy="0.71em">2018</text></g><g class="tick" opacity="1" transform="translate(781.4381473808819,0)"><line stroke="currentColor" y2="6"/><text fill="currentColor" y="9" dy="0.71em">2019</text></g><text x="805" dy="-5" text-anchor="end" style="font-family: Arial, sans-serif; font-size: 12px; fill: rgb(123, 123, 123); font-weight: bold;">Start.Date</text></g></g></g></svg>