<?xml version="1.0" standalone="no"?>
<!DOCTYPE svg PUBLIC "-//W3C//DTD SVG 20010904//EN"
 "http://www.w3.org/TR/2001/REC-SVG-20010904/DTD/svg10.dtd">
<svg version="1.0" xmlns="http://www.w3.org/2000/svg"
 width="513.000000pt" height="513.000000pt" viewBox="0 0 513.000000 513.000000"
 preserveAspectRatio="xMidYMid meet">
<metadata>
Created by potrace 1.11, written by Peter Selinger 2001-2013
</metadata>
<g transform="translate(0.000000,513.000000) scale(0.100000,-0.100000)"
fill="#000000" stroke="none">
<path d="M1213 4090 c-61 -27 -137 -102 -189 -186 -74 -118 -125 -246 -220
-543 -9 -27 -55 31 -253 311 -101 142 -172 225 -248 290 -66 56 -198 124 -260
134 l-43 7 0 -470 0 -470 68 -17 c97 -24 196 -74 282 -143 70 -57 127 -118
308 -335 129 -153 252 -258 358 -303 81 -35 132 -46 254 -55 160 -13 237 -36
327 -99 84 -60 143 -124 228 -251 53 -80 205 -350 205 -364 0 -3 -197 -6 -437
-8 -428 -3 -439 -4 -503 -26 -163 -58 -300 -176 -490 -422 -57 -74 -147 -178
-200 -230 -125 -124 -204 -170 -357 -210 l-43 -11 0 -79 0 -80 33 6 c200 35
337 126 564 375 210 229 338 323 510 372 73 20 96 22 378 20 165 -1 377 -7
470 -13 94 -6 312 -13 486 -17 358 -7 404 -2 511 54 158 83 264 220 468 603
168 317 251 443 359 542 75 69 128 100 220 128 107 33 258 25 391 -19 135 -45
228 -111 432 -306 158 -150 281 -255 301 -255 4 0 7 20 7 45 0 39 -7 54 -49
108 -66 85 -115 166 -248 417 -198 372 -324 534 -474 609 -158 79 -353 66
-483 -34 -66 -50 -73 -52 -38 -7 86 108 165 154 278 160 162 9 273 -37 405
-168 103 -102 167 -196 324 -475 108 -194 198 -335 260 -410 l25 -30 0 58 c0
49 -7 72 -49 155 -65 130 -120 271 -241 622 -124 359 -176 493 -245 632 -98
197 -200 319 -312 374 -50 25 -70 29 -143 29 -98 0 -126 -11 -203 -84 -98 -91
-185 -252 -270 -496 -66 -193 -106 -338 -243 -886 -113 -457 -148 -574 -187
-629 -13 -19 -17 -15 -72 71 -165 261 -369 356 -609 284 -135 -41 -293 -174
-408 -344 l-57 -84 -11 29 c-7 16 -52 137 -102 269 -188 501 -330 730 -504
816 -50 25 -82 32 -165 40 -169 14 -191 24 -121 52 62 25 115 29 217 17 170
-18 302 -75 443 -189 l62 -51 11 27 c15 39 190 497 192 503 1 3 -31 52 -72
110 -258 367 -386 484 -586 535 -84 21 -190 19 -242 -5z m1697 -2091 c41 -20
95 -55 120 -77 l45 -42 -66 30 c-86 40 -184 60 -289 60 -172 0 -311 -58 -450
-187 -64 -60 -84 -73 -91 -62 -5 8 -9 17 -9 21 0 14 114 129 171 172 125 94
227 127 384 123 103 -2 115 -4 185 -38z m-20 -365 c8 -8 -6 -16 -47 -27 -66
-19 -107 -22 -288 -19 -126 3 -129 3 -95 18 77 34 144 43 282 41 80 -1 142 -7
148 -13z"/>
</g>
</svg>
