<?xml version="1.0" encoding="utf-8"?>
<!-- Generator: Adobe Illustrator 26.2.1, SVG Export Plug-In . SVG Version: 6.00 Build 0)  -->
<svg version="1.1" id="Layer_1" xmlns="http://www.w3.org/2000/svg" xmlns:xlink="http://www.w3.org/1999/xlink" x="0px" y="0px"
	 viewBox="0 0 1100 900" style="enable-background:new 0 0 1100 900;" xml:space="preserve">
<style type="text/css">
	.st0{fill:#FFFFFF;}
	.st1{fill:none;}
	.st2{fill:#AAA091;}
	.st3{fill:#A4921E;}
	.st4{fill:#F2DC6B;}
	.st5{fill:#A4CEF3;}
	.st6{fill:#D7C1AA;}
	.st7{fill:#D96F32;}
	.st8{fill:#44A5BA;}
	.st9{fill:#2F3132;}
	.st10{fill:none;stroke:#000000;}
	.st11{display:none;}
	.st12{display:inline;fill:none;stroke:#000000;}
	.st13{display:inline;}
	.st14{font-family:'ArialMT';}
	.st15{font-size:10px;}
	.st16{display:none;fill:#7B7B7B;enable-background:new    ;}
	.st17{font-family:'Arial-BoldMT';}
	.st18{font-size:12px;}
	.st19{enable-background:new    ;}
	.st20{font-family:'Raleway-Regular';}
	.st21{font-size:14px;}
	.st22{fill:#2469A6;}
	.st23{display:none;enable-background:new    ;}
	.st24{fill:#FFFFFF;fill-opacity:0.43;}
	.st25{font-family:'Raleway-SemiBold';}
	.st26{font-size:19px;}
</style>
<g id="bumpchart">
	<rect id="backgorund" x="23.9" y="149.6" class="st0" width="1050" height="600"/>
	<g id="viz">
		<g transform="translate(0,0)">
			<g transform="translate(10,20)">
				<g>
					<path class="st1" d="M25,176.9c273.6,0,273.6,533.1,547.2,533.1c15.2,0,15.2,0,30.5,0c151.2,0,151.2,0,302.4,0l0,0
						c-151.2,0-151.2,0-302.4,0c-15.2,0-15.2,0-30.5,0C298.6,710,298.6,176.9,25,176.9z"/>
					<path class="st2" d="M25,671.4c273.6,0,273.6-143.5,547.2-143.5c15.2,0,15.2,0,30.5,0c151.2,0,151.2,156.6,302.4,156.6V710
						c-151.2,0-151.2-126.1-302.4-126.1c-15.2,0-15.2,0-30.5,0C298.6,583.9,298.6,707,25,707V671.4z"/>
					<path class="st3" d="M25,642.9c273.6,0,273.6-148.5,547.2-148.5c15.2,0,15.2,0,30.5,0c151.2,0,151.2-181.2,302.4-181.2v76.4
						C753.9,389.6,753.9,525,602.7,525c-15.2,0-15.2,0-30.5,0C298.6,525,298.6,668.5,25,668.5V642.9L25,642.9z"/>
					<path class="st4" d="M25,609.4c273.6,0,273.6-168.9,547.2-168.9c15.2,0,15.2,0,30.5,0c151.2,0,151.2-47.9,302.4-47.9v50.9
						c-151.2,0-151.2,47.9-302.4,47.9c-15.2,0-15.2,0-30.5,0c-273.6,0-273.6,148.5-547.2,148.5L25,609.4L25,609.4z"/>
					<path class="st5" d="M25,465.9c273.6,0,273.6-286,547.2-286c15.2,0,15.2,0,30.5,0C753.8,179.9,753.8,710,905,710l0,0
						c-151.2,0-151.2-377.4-302.4-377.4c-15.2,0-15.2,0-30.5,0c-273.6,0-273.6,224.9-547.2,224.9v-91.6H25z"/>
					<path class="st6" d="M25,335.6c273.6,0,273.6,251.3,547.2,251.3c15.2,0,15.2,0,30.5,0c151.2,0,151.2-404,302.4-404v127.3
						c-151.2,0-151.2,317.5-302.4,317.5c-15.2,0-15.2,0-30.5,0C298.6,627.7,298.6,463,25,463V335.6L25,335.6z"/>
					<path class="st7" d="M25,179.9c273.6,0,273.6,155.7,547.2,155.7c15.2,0,15.2,0,30.5,0c151.2,0,151.2,110.8,302.4,110.8v76.4
						c-151.2,0-151.2-85.4-302.4-85.4c-15.2,0-15.2,0-30.5,0c-273.6,0-273.6-104.8-547.2-104.8L25,179.9L25,179.9z"/>
					<path class="st8" d="M25,560.5c273.6,0,273.6,70.1,547.2,70.1c15.2,0,15.2,0,30.5,0c151.2,0,151.2-104.8,302.4-104.8v101.8
						c-151.2,0-151.2,53.9-302.4,53.9c-15.2,0-15.2,0-30.5,0c-273.6,0-273.6-75.2-547.2-75.2L25,560.5L25,560.5z"/>
					<path class="st9" d="M25,710c273.6,0,273.6-25.5,547.2-25.5c15.2,0,15.2,0,30.5,0c151.2,0,151.2-53.9,302.4-53.9v50.9
						c-151.2,0-151.2,28.5-302.4,28.5c-15.2,0-15.2,0-30.5,0C298.6,710,298.6,710,25,710z"/>
				</g>
				<g id="xAxis" transform="translate(0,560)">
					<path class="st10" d="M25.5,150.5h880"/>
					<g transform="translate(93.2138206569991,0)" class="st11">
						<line class="st12" x1="25" y1="150" x2="25" y2="156"/>
						<text transform="matrix(1 0 0 1 14.2481 166.1)" class="st13 st14 st15">2011</text>
					</g>
					<g transform="translate(188.27153003847292,0)" class="st11">
						<line class="st12" x1="25" y1="150" x2="25" y2="156"/>
						<text transform="matrix(1 0 0 1 13.8769 166.1)" class="st13 st14 st15">2012</text>
					</g>
					<g transform="translate(283.5896715004439,0)" class="st11">
						<line class="st12" x1="25" y1="150" x2="25" y2="156"/>
						<text transform="matrix(1 0 0 1 13.8769 166.1)" class="st13 st14 st15">2013</text>
					</g>
					<g transform="translate(378.64738088191774,0)" class="st11">
						<line class="st12" x1="25" y1="150" x2="25" y2="156"/>
						<text transform="matrix(1 0 0 1 13.8769 166.1)" class="st13 st14 st15">2014</text>
					</g>
					<g transform="translate(473.7050902633916,0)" class="st11">
						<line class="st12" x1="25" y1="150" x2="25" y2="156"/>
						<text transform="matrix(1 0 0 1 13.877 166.1)" class="st13 st14 st15">2015</text>
					</g>
					<g transform="translate(568.7627996448654,0)" class="st11">
						<line class="st12" x1="25" y1="150" x2="25" y2="156"/>
						<text transform="matrix(1 0 0 1 13.8771 166.1)" class="st13 st14 st15">2016</text>
					</g>
					<g transform="translate(664.0809411068363,0)" class="st11">
						<line class="st12" x1="25" y1="150" x2="25" y2="156"/>
						<text transform="matrix(1 0 0 1 13.8771 166.1)" class="st13 st14 st15">2017</text>
					</g>
					<g transform="translate(759.1386504883102,0)" class="st11">
						<line class="st12" x1="25" y1="150" x2="25" y2="156"/>
						<text transform="matrix(1 0 0 1 13.877 166.1)" class="st13 st14 st15">2018</text>
					</g>
					<g transform="translate(854.1963598697839,0)" class="st11">
						<line class="st12" x1="25" y1="150" x2="25" y2="156"/>
						<text transform="matrix(1 0 0 1 13.8769 166.1)" class="st13 st14 st15">2019</text>
					</g>
				</g>
				<text transform="matrix(1 0 0 1 848.3164 706)" class="st16 st17 st18">Start.Date</text>
				<text transform="matrix(1 0 0 1 29 160.2949)" class="st16 st17 st18">Percentage</text>
			</g>
		</g>
	</g>
	<g id="legend" transform="translate(900,20)">
		<g transform="translate(5,0)">
			<g transform="translate(0,0)">
				<g transform="translate(0,15.399999618530273)">
					<g transform="translate(0, 0)">
						<rect x="25" y="150" class="st7" width="15" height="15"/>
						<g>
							<g class="st19">
								<path d="M49.3,152.6h0.8l4.1,9.9h-1l-1.2-3.1h-4.5l-1.2,3.1h-1L49.3,152.6z M51.7,158.6l-2-4.9l-2,4.9H51.7z"/>
								<path d="M61.6,162.5h-1v-4c0-0.9-0.1-1.5-0.4-1.9c-0.3-0.4-0.6-0.6-1.2-0.6c-0.4,0-0.7,0.1-1.1,0.3c-0.4,0.2-0.7,0.4-1,0.7
									s-0.5,0.7-0.6,1.1v4.4h-1v-7.3h0.9v1.7c0.2-0.4,0.5-0.7,0.8-0.9c0.3-0.3,0.7-0.5,1.1-0.6c0.4-0.1,0.8-0.2,1.2-0.2
									s0.7,0.1,1,0.2c0.3,0.1,0.5,0.4,0.7,0.6c0.2,0.3,0.3,0.6,0.4,1c0.1,0.4,0.1,0.8,0.1,1.3L61.6,162.5L61.6,162.5z"/>
								<path d="M63.1,160.4c0-0.5,0.1-0.8,0.4-1.2c0.3-0.3,0.6-0.6,1.1-0.8s1-0.3,1.6-0.3c0.4,0,0.7,0,1.1,0.1s0.7,0.1,1,0.3v-0.6
									c0-0.6-0.2-1.1-0.5-1.5c-0.4-0.4-0.9-0.5-1.5-0.5c-0.4,0-0.8,0.1-1.2,0.2c-0.4,0.1-0.8,0.4-1.2,0.6l-0.4-0.7
									c0.5-0.3,0.9-0.6,1.4-0.7s0.9-0.2,1.4-0.2c0.9,0,1.6,0.3,2.1,0.8s0.8,1.2,0.8,2.1v3.4c0,0.1,0,0.2,0.1,0.3s0.1,0.1,0.3,0.1
									v0.8c-0.1,0-0.2,0-0.3,0c-0.1,0-0.1,0-0.2,0c-0.2,0-0.4-0.1-0.5-0.2c-0.1-0.1-0.2-0.3-0.2-0.4v-0.5c-0.3,0.4-0.8,0.7-1.3,1
									c-0.5,0.2-1.1,0.3-1.6,0.3s-0.9-0.1-1.3-0.3s-0.7-0.5-0.9-0.8C63.2,161.2,63.1,160.8,63.1,160.4z M68,161
									c0.1-0.1,0.2-0.3,0.2-0.4s0.1-0.2,0.1-0.3v-1.1c-0.3-0.1-0.6-0.2-1-0.3c-0.3-0.1-0.7-0.1-1-0.1c-0.7,0-1.2,0.1-1.7,0.4
									c-0.4,0.3-0.6,0.6-0.6,1.1c0,0.3,0.1,0.5,0.2,0.8c0.1,0.2,0.3,0.4,0.6,0.6c0.3,0.2,0.6,0.2,1,0.2c0.5,0,0.9-0.1,1.3-0.3
									S67.8,161.2,68,161z"/>
								<path d="M71.3,152.3h1v8.6c0,0.4,0.1,0.6,0.2,0.7s0.3,0.2,0.5,0.2s0.3,0,0.5-0.1c0.2,0,0.3-0.1,0.4-0.1l0.2,0.8
									c-0.2,0.1-0.4,0.1-0.7,0.2c-0.3,0-0.5,0.1-0.7,0.1c-0.4,0-0.8-0.1-1-0.4c-0.3-0.3-0.4-0.6-0.4-1V152.3z"/>
								<path d="M75.5,164.7c0.1,0,0.3,0,0.4,0s0.2,0,0.3,0c0.1,0,0.2-0.1,0.3-0.2c0.1-0.1,0.2-0.3,0.4-0.6c0.1-0.3,0.3-0.8,0.6-1.4
									l-3.2-7.3h1l2.7,6.3l2.5-6.3h1l-3.8,9.4c-0.1,0.2-0.2,0.3-0.3,0.5s-0.3,0.3-0.5,0.4c-0.2,0.1-0.4,0.1-0.7,0.1
									c-0.1,0-0.2,0-0.3,0s-0.2,0-0.3,0L75.5,164.7L75.5,164.7z"/>
								<path d="M85.1,162.6c-0.6,0-1.2-0.1-1.7-0.3s-1-0.5-1.3-0.9l0.4-0.7c0.4,0.4,0.8,0.7,1.2,0.8c0.4,0.2,0.9,0.3,1.3,0.3
									c0.6,0,1-0.1,1.4-0.3s0.5-0.6,0.5-1c0-0.3-0.1-0.5-0.3-0.7c-0.2-0.2-0.4-0.3-0.7-0.4s-0.7-0.2-1.2-0.3s-0.9-0.3-1.3-0.4
									c-0.3-0.2-0.6-0.3-0.8-0.6c-0.2-0.2-0.3-0.5-0.3-0.9c0-0.5,0.1-0.9,0.4-1.2c0.2-0.3,0.6-0.5,1-0.7s0.9-0.2,1.4-0.2
									c0.6,0,1.1,0.1,1.5,0.3s0.8,0.4,1,0.7l-0.5,0.6c-0.3-0.3-0.6-0.5-0.9-0.7s-0.8-0.2-1.2-0.2c-0.3,0-0.6,0-0.9,0.1
									s-0.5,0.2-0.7,0.4s-0.3,0.4-0.3,0.7s0.1,0.5,0.2,0.6s0.3,0.3,0.6,0.4s0.6,0.2,1,0.3c0.5,0.1,1,0.3,1.4,0.5s0.7,0.3,1,0.6
									s0.3,0.6,0.3,1c0,0.7-0.3,1.2-0.8,1.6C86.6,162.5,85.9,162.6,85.1,162.6z"/>
								<path d="M89.5,153.7v-1.4h1v1.4H89.5z M89.5,162.5v-7.3h1v7.3H89.5z"/>
								<path d="M94.9,162.6c-0.6,0-1.2-0.1-1.7-0.3s-1-0.5-1.3-0.9l0.4-0.7c0.4,0.4,0.8,0.7,1.2,0.8c0.4,0.2,0.9,0.3,1.3,0.3
									c0.6,0,1-0.1,1.4-0.3s0.5-0.6,0.5-1c0-0.3-0.1-0.5-0.3-0.7c-0.2-0.2-0.4-0.3-0.7-0.4c-0.3-0.1-0.7-0.2-1.2-0.3
									s-0.9-0.3-1.3-0.4s-0.6-0.3-0.8-0.6c-0.2-0.2-0.3-0.5-0.3-0.9c0-0.5,0.1-0.9,0.4-1.2c0.2-0.3,0.6-0.5,1-0.7s0.9-0.2,1.4-0.2
									c0.6,0,1.1,0.1,1.5,0.3s0.8,0.4,1.1,0.7l-0.5,0.6c-0.3-0.3-0.6-0.5-0.9-0.7s-0.8-0.2-1.2-0.2c-0.3,0-0.6,0-0.9,0.1
									s-0.5,0.2-0.7,0.4S93,156.7,93,157s0.1,0.5,0.2,0.6s0.3,0.3,0.6,0.4c0.3,0.1,0.6,0.2,1,0.3c0.5,0.1,1,0.3,1.4,0.5
									s0.7,0.3,1,0.6c0.2,0.2,0.3,0.6,0.3,1c0,0.7-0.3,1.2-0.8,1.6C96.4,162.5,95.8,162.6,94.9,162.6z"/>
							</g>
						</g>
					</g>
					<g transform="translate(0, 20.399999618530273)">
						<rect x="25" y="150" class="st9" width="15" height="15"/>
						<text transform="matrix(1 0 0 1 45 162.5)" class="st20 st21">Consultancy</text>
					</g>
					<g transform="translate(0, 40.79999923706055)">
						<rect x="25" y="150" class="st3" width="15" height="15"/>
						<text transform="matrix(1 0 0 1 45 162.5)" class="st20 st21">Leadership</text>
					</g>
					<g transform="translate(0, 61.19999885559082)">
						<rect x="25" y="150" class="st22" width="15" height="15"/>
						<text transform="matrix(1 0 0 1 45 162.5)" class="st20 st21">People</text>
						<text transform="matrix(1 0 0 1 96.2451 162.5)" class="st20 st21">Management</text>
					</g>
					<g transform="translate(0, 97.19999885559082)">
						<rect x="25" y="135" class="st5" width="15" height="15"/>
						<text transform="matrix(1 0 0 1 45 147.5)" class="st20 st21">Project</text>
						<text transform="matrix(1 0 0 1 95.4302 147.5)" class="st20 st21">Management</text>
					</g>
					<g transform="translate(0, 133.19999885559082)">
						<rect x="25" y="119" class="st2" width="15" height="15"/>
						<text transform="matrix(1 0 0 1 45 131.5)" class="st20 st21">Public Speaking</text>
					</g>
					<g transform="translate(0, 153.5999984741211)">
						<rect x="25" y="119" class="st6" width="15" height="15"/>
						<text transform="matrix(1 0 0 1 45 131.5)" class="st20 st21">Research</text>
					</g>
					<g transform="translate(0, 173.99999809265137)">
						<rect x="25" y="119" class="st4" width="15" height="15"/>
						<text transform="matrix(1 0 0 1 45 131.5)" class="st20 st21">Teaching</text>
					</g>
					<g transform="translate(0, 194.39999771118164)">
						<rect x="25" y="119" class="st8" width="15" height="15"/>
						<text transform="matrix(1 0 0 1 45 131.5)" class="st20 st21">Volunteerism</text>
					</g>
				</g>
				<text transform="matrix(1 0 0 1 25 150)" class="st23 st17 st18">Colors</text>
			</g>
		</g>
	</g>
</g>
<g id="jobcolumns">
	<rect id="_x32_0192022" x="762.5" y="150.8" class="st24" width="158.4" height="593.3"/>
	<rect id="_x32_0162019" x="603.8" y="150.8" class="st24" width="158.7" height="593.3"/>
	<rect id="_x32_0142016" x="413.6" y="150.8" class="st24" width="190.1" height="595.3"/>
	<rect id="_x32_0102014" x="34.9" y="150.8" class="st24" width="378.7" height="593.3"/>
</g>
<g id="job_headers">
	<text transform="matrix(1 0 0 1 83.5505 103.0602)" class="st25 st26">Facilities Analyst</text>
	<text transform="matrix(1 0 0 1 33.9505 125.8602)" class="st20 st26">Residential Student Services</text>
	<text transform="matrix(1 0 0 1 318.5137 103.0624)" class="st25 st26">Safety Specialist</text>
	<text transform="matrix(1 0 0 1 329.1136 125.8624)" class="st20 st26">Student Affairs</text>
	<text transform="matrix(1 0 0 1 486.1781 103.0581)" class="st25 st26">Associate Director of Data Analysis</text>
	<text transform="matrix(1 0 0 1 535.3782 125.8581)" class="st20 st26">Haas School of Business</text>
	<text transform="matrix(1 0 0 1 694.8542 103.0581)" class="st25 st26">Institutional Research Analyst</text>
	<text transform="matrix(1 0 0 1 704.6542 125.8581)" class="st20 st26">Office of Planning &amp; Analysis</text>
	<rect x="718.8" y="21.5" class="st1" width="251.2" height="22.1"/>
</g>
</svg>
