<?xml version="1.0" encoding="UTF-8"?><svg id="a" xmlns="http://www.w3.org/2000/svg" viewBox="0 0 325 717"><g id="b"><g id="c"><g id="d"><path id="e" d="M35,641.4c273.6,0,273.6-143.5,547.2-143.5h30.5c151.2,0,151.2,156.6,302.4,156.6v25.5c-151.2,0-151.2-126.1-302.4-126.1h-30.5c-273.6,0-273.6,123.1-547.2,123.1v-35.6Z" style="fill:#aaa091;"/><path id="f" d="M35,612.9c273.6,0,273.6-148.5,547.2-148.5h30.5c151.2,0,151.2-181.2,302.4-181.2v76.4c-151.2,0-151.2,135.4-302.4,135.4h-30.5c-273.6,0-273.6,143.5-547.2,143.5v-25.6h0Z" style="fill:#a4921e;"/><path id="g" d="M35,579.4c273.6,0,273.6-168.9,547.2-168.9h30.5c151.2,0,151.2-47.9,302.4-47.9v50.9c-151.2,0-151.2,47.9-302.4,47.9h-30.5c-273.6,0-273.6,148.5-547.2,148.5v-30.5h0Z" style="fill:#f2dc6b;"/><path id="h" d="M35,435.9c273.6,0,273.6-286,547.2-286h30.5c151.1,0,151.1,530.1,302.3,530.1h0c-151.2,0-151.2-377.4-302.4-377.4h-30.5c-273.6,0-273.6,224.9-547.2,224.9v-91.6h.1Z" style="fill:#a4cef3;"/><path id="i" d="M35,305.6c273.6,0,273.6,251.3,547.2,251.3h30.5c151.2,0,151.2-404,302.4-404v127.3c-151.2,0-151.2,317.5-302.4,317.5h-30.5c-273.6,0-273.6-164.7-547.2-164.7v-127.4h0Z" style="fill:#d7c1aa;"/><path id="j" d="M35,149.9c273.6,0,273.6,155.7,547.2,155.7h30.5c151.2,0,151.2,110.8,302.4,110.8v76.4c-151.2,0-151.2-85.4-302.4-85.4h-30.5c-273.6,0-273.6-104.8-547.2-104.8V149.9h0Z" style="fill:#d96f32;"/><path id="k" d="M35,530.5c273.6,0,273.6,70.1,547.2,70.1h30.5c151.2,0,151.2-104.8,302.4-104.8v101.8c-151.2,0-151.2,53.9-302.4,53.9h-30.5c-273.6,0-273.6-75.2-547.2-75.2v-45.8h0Z" style="fill:#44a5ba;"/><path id="l" d="M35,680c273.6,0,273.6-25.5,547.2-25.5h30.5c151.2,0,151.2-53.9,302.4-53.9v50.9c-151.2,0-151.2,28.5-302.4,28.5H35Z" style="fill:#2f3132;"/></g></g><g id="m"><g id="n" style="isolation:isolate;"><g id="o"><path d="M35.6,75.9v-13.5h5.7c.6,0,1.1,.1,1.6,.4s.9,.6,1.3,1c.4,.4,.6,.9,.8,1.4s.3,1,.3,1.5c0,.6-.1,1.3-.4,1.8-.2,.6-.6,1.1-1,1.4-.5,.4-1,.7-1.6,.8l3.3,5.2h-1.5l-3.2-5h-4v5h-1.3Zm1.4-6.2h4.4c.5,0,1-.1,1.4-.4s.7-.7,.9-1.1c.2-.5,.3-1,.3-1.5s-.1-1-.4-1.5c-.2-.5-.6-.8-1-1.1s-.9-.4-1.4-.4h-4.2v6h0Z"/><path d="M51.8,76.1c-.7,0-1.4-.1-2-.4s-1.1-.6-1.6-1.1-.8-1-1-1.6-.4-1.3-.4-2c0-.9,.2-1.8,.6-2.5s1-1.4,1.8-1.8c.7-.5,1.6-.7,2.5-.7,1,0,1.8,.2,2.6,.7,.7,.5,1.3,1.1,1.7,1.8,.4,.8,.6,1.6,.6,2.5v.5h-8.5c.1,.7,.3,1.3,.6,1.9,.3,.5,.8,1,1.3,1.3s1.1,.5,1.8,.5c.6,0,1.3-.2,1.8-.5s1-.8,1.2-1.3l1.1,.3c-.2,.5-.5,.9-.9,1.3s-.9,.7-1.5,.9c-.5,0-1.1,.2-1.7,.2Zm-3.7-5.6h7.3c-.1-.7-.2-1.3-.6-1.9-.3-.5-.8-1-1.3-1.3s-1.1-.5-1.8-.5-1.2,.2-1.8,.5c-.5,.3-1,.7-1.3,1.3s-.4,1.2-.5,1.9Z"/><path d="M61.9,76.1c-.8,0-1.6-.1-2.3-.4s-1.3-.7-1.8-1.2l.5-.9c.6,.5,1.1,.9,1.7,1.1s1.2,.4,1.8,.4c.8,0,1.4-.2,1.9-.5s.7-.8,.7-1.3c0-.4-.1-.7-.4-.9-.2-.2-.6-.4-1-.5s-1-.3-1.6-.4c-.7-.2-1.3-.4-1.7-.6-.5-.2-.8-.5-1-.8s-.4-.7-.4-1.3,.2-1.2,.5-1.6,.8-.7,1.3-1c.6-.2,1.2-.3,1.9-.3,.8,0,1.4,.1,2,.4,.6,.2,1.1,.6,1.4,1l-.6,.9c-.4-.4-.8-.7-1.3-.9-.5-.2-1-.3-1.6-.3-.4,0-.8,.1-1.2,.2s-.7,.3-.9,.5-.4,.6-.4,1,.1,.6,.3,.8c.2,.2,.4,.4,.8,.5,.4,.1,.8,.3,1.3,.4,.7,.2,1.4,.4,2,.6,.6,.2,1,.5,1.3,.8s.5,.8,.5,1.4c0,.9-.3,1.6-1,2.2-.7,.4-1.6,.7-2.7,.7Z"/><path d="M67.8,63.9v-1.9h1.3v1.9h-1.3Zm0,12v-9.9h1.3v9.9h-1.3Z"/><path d="M71.3,71c0-.9,.2-1.8,.6-2.6,.4-.8,.9-1.4,1.6-1.9s1.5-.7,2.3-.7,1.6,.2,2.2,.7,1.2,1,1.5,1.6v-6.1h1.3v12.3c0,.2,0,.3,.1,.4s.2,.1,.3,.1v1c-.3,0-.4,.1-.6,0-.3,0-.5-.1-.7-.3-.2-.2-.3-.4-.3-.7v-1c-.4,.6-.9,1.2-1.6,1.5s-1.4,.6-2.1,.6-1.3-.1-1.9-.4-1.1-.7-1.5-1.1c-.4-.5-.8-1-1-1.6-.1-.5-.2-1.2-.2-1.8Zm8.3,1.5v-3c-.2-.5-.4-.9-.8-1.2-.4-.4-.8-.7-1.2-.9-.5-.2-.9-.3-1.4-.3s-1,.1-1.4,.3c-.4,.2-.8,.5-1.1,.9-.3,.4-.5,.8-.7,1.3s-.2,1-.2,1.5,.1,1,.3,1.5c.2,.5,.4,.9,.8,1.3s.7,.7,1.2,.9,.9,.3,1.4,.3c.3,0,.7-.1,1-.2s.7-.3,1-.5,.6-.5,.8-.8,.2-.8,.3-1.1Z"/><path d="M88,76.1c-.7,0-1.4-.1-2-.4s-1.1-.6-1.6-1.1-.8-1-1-1.6-.4-1.3-.4-2c0-.9,.2-1.8,.6-2.5s1-1.4,1.8-1.8c.7-.5,1.6-.7,2.5-.7,1,0,1.8,.2,2.6,.7,.7,.5,1.3,1.1,1.7,1.8,.4,.8,.6,1.6,.6,2.5v.5h-8.5c.1,.7,.3,1.3,.6,1.9,.3,.5,.8,1,1.3,1.3s1.1,.5,1.8,.5c.6,0,1.3-.2,1.8-.5s1-.8,1.2-1.3l1.1,.3c-.2,.5-.5,.9-.9,1.3s-.9,.7-1.5,.9c-.4,0-1,.2-1.7,.2Zm-3.6-5.6h7.3c-.1-.7-.2-1.3-.6-1.9-.3-.5-.8-1-1.3-1.3s-1.1-.5-1.8-.5-1.2,.2-1.8,.5c-.5,.3-1,.7-1.3,1.3s-.5,1.2-.5,1.9Z"/><path d="M103.2,75.9h-1.2v-5.5c0-1.2-.2-2-.5-2.5s-.9-.8-1.6-.8c-.5,0-1,.1-1.5,.4-.5,.2-.9,.6-1.3,1s-.6,.9-.8,1.4v6h-1.3v-9.9h1.2v2.2c.3-.5,.6-.9,1-1.3s.9-.6,1.5-.8c.5-.2,1.1-.3,1.7-.3,.5,0,1,.1,1.4,.3,.4,.2,.7,.5,.9,.9,.2,.4,.4,.8,.5,1.3s.2,1.1,.2,1.7l-.2,5.9h0Z"/><path d="M110.7,75.5c-.1,0-.3,.1-.5,.2s-.5,.2-.8,.3c-.3,.1-.6,.1-1,.1s-.7-.1-1-.2-.6-.4-.8-.6-.3-.6-.3-1.1v-7.2h-1.3v-1h1.4v-3.3h1.3v3.3h2.3v1h-2.3v6.8c0,.4,.2,.6,.4,.8s.5,.3,.8,.3c.4,0,.7-.1,1-.2s.5-.2,.5-.3l.3,1.1Z"/><path d="M112.3,63.9v-1.9h1.3v1.9h-1.3Zm0,12v-9.9h1.3v9.9h-1.3Z"/><path d="M115.6,73c0-.6,.2-1.1,.5-1.6,.4-.4,.8-.8,1.5-1s1.4-.4,2.2-.4c.5,0,1,0,1.5,.1s1,.2,1.4,.3v-.8c0-.8-.2-1.5-.7-2s-1.2-.7-2.1-.7c-.5,0-1.1,.1-1.6,.3s-1,.5-1.6,.9l-.5-.9c.6-.4,1.3-.8,1.9-1s1.3-.3,1.9-.3c1.2,0,2.2,.3,2.9,1s1.1,1.6,1.1,2.9v4.6c0,.2,0,.3,.1,.4s.2,.1,.4,.1v1h-.6c-.3,0-.6-.1-.7-.3-.2-.2-.3-.4-.3-.6v-.7c-.4,.6-1,1-1.7,1.3s-1.4,.5-2.2,.5c-.6,0-1.2-.1-1.7-.4s-.9-.6-1.2-1.1c-.3-.5-.5-1-.5-1.6Zm6.6,.8c.1-.2,.2-.3,.3-.5s.1-.3,.1-.4v-1.4c-.4-.2-.9-.3-1.3-.4s-.9-.1-1.4-.1c-.9,0-1.7,.2-2.2,.5s-.9,.9-.9,1.5c0,.4,.1,.7,.3,1s.5,.6,.8,.8c.4,.2,.8,.3,1.3,.3,.6,0,1.2-.1,1.7-.4,.6-.2,1.1-.5,1.3-.9Z"/><path d="M126.8,62h1.3v11.7c0,.5,.1,.8,.3,1s.4,.2,.6,.2,.5,0,.7-.1,.4-.1,.6-.2l.2,1c-.2,.1-.5,.2-.9,.2-.3,.1-.6,.1-.9,.1-.6,0-1-.2-1.4-.5-.3-.3-.5-.8-.5-1.4v-12h0Z"/><path d="M144.4,64.9c-.2-.2-.4-.4-.7-.6s-.5-.3-.9-.4c-.3-.1-.7-.2-1-.3s-.7-.1-1.1-.1c-1.2,0-2,.2-2.6,.7-.6,.4-.8,1.1-.8,1.8,0,.5,.1,.9,.4,1.3,.3,.3,.7,.6,1.2,.7,.6,.2,1.3,.4,2.1,.6,1,.2,1.8,.4,2.5,.7,.7,.3,1.2,.7,1.6,1.1s.6,1.1,.6,1.9c0,.6-.1,1.2-.4,1.6-.2,.5-.6,.8-1,1.1-.4,.3-.9,.5-1.5,.7-.6,.1-1.2,.2-2,.2-.7,0-1.4-.1-2-.2s-1.2-.4-1.8-.6c-.6-.3-1.1-.6-1.6-1.1l.7-1.1c.2,.3,.5,.5,.9,.7,.3,.2,.7,.4,1.1,.6s.9,.3,1.3,.4,1,.1,1.5,.1c1.1,0,1.9-.2,2.5-.6s.9-1,.9-1.7c0-.6-.2-1-.5-1.3s-.8-.6-1.4-.8-1.4-.4-2.2-.6c-.9-.2-1.7-.5-2.4-.7s-1.1-.6-1.5-1.1c-.3-.4-.5-1-.5-1.7,0-.8,.2-1.5,.6-2.1,.4-.6,1-1,1.7-1.3s1.6-.4,2.5-.4c.6,0,1.1,.1,1.7,.2s1,.3,1.4,.5,.8,.5,1.2,.9l-.5,.9Z"/><path d="M152.3,75.5c-.1,0-.3,.1-.5,.2s-.5,.2-.8,.3c-.3,.1-.6,.1-1,.1s-.7-.1-1-.2-.6-.4-.8-.6-.3-.6-.3-1.1v-7.2h-1.4v-1h1.4v-3.3h1.3v3.3h2.3v1h-2.3v6.8c0,.4,.2,.6,.4,.8,.2,.2,.5,.3,.8,.3,.4,0,.7-.1,1-.2s.5-.2,.5-.3l.4,1.1Z"/><path d="M153.8,71.8v-5.8h1.3v5.6c0,1.1,.2,2,.6,2.5,.4,.6,1,.8,1.7,.8,.5,0,1-.1,1.5-.3,.5-.2,.9-.5,1.3-.9,.4-.4,.6-.9,.8-1.4v-6.3h1.3v8.3c0,.2,0,.3,.1,.4s.2,.1,.3,.1v1h-.6c-.3,0-.5-.1-.7-.3s-.3-.4-.3-.6v-1.3c-.4,.8-1,1.3-1.8,1.8-.7,.4-1.5,.6-2.4,.6-1,0-1.8-.4-2.4-1.1-.4-.6-.7-1.7-.7-3.1Z"/><path d="M164.6,71c0-.9,.2-1.8,.6-2.6,.4-.8,.9-1.4,1.6-1.9,.7-.5,1.5-.7,2.3-.7s1.6,.2,2.2,.7,1.2,1,1.5,1.6v-6.1h1.3v12.3c0,.2,0,.3,.1,.4s.2,.1,.3,.1v1c-.3,0-.4,.1-.6,0-.3,0-.5-.1-.7-.3-.2-.2-.3-.4-.3-.7v-1c-.4,.6-.9,1.2-1.6,1.5s-1.4,.6-2.1,.6-1.3-.1-1.9-.4c-.6-.3-1.1-.7-1.5-1.1-.4-.5-.8-1-1-1.6-.1-.5-.2-1.2-.2-1.8Zm8.2,1.5v-3c-.2-.5-.4-.9-.8-1.2-.4-.4-.8-.7-1.2-.9-.5-.2-.9-.3-1.4-.3s-1,.1-1.4,.3c-.4,.2-.8,.5-1.1,.9s-.5,.8-.7,1.3-.2,1-.2,1.5,.1,1,.3,1.5,.4,.9,.8,1.3,.7,.7,1.2,.9,.9,.3,1.4,.3c.3,0,.7-.1,1-.2s.7-.3,1-.5,.6-.5,.8-.8,.3-.8,.3-1.1Z"/><path d="M181.3,76.1c-.7,0-1.4-.1-2-.4s-1.1-.6-1.6-1.1-.8-1-1-1.6-.4-1.3-.4-2c0-.9,.2-1.8,.6-2.5s1-1.4,1.8-1.8c.7-.5,1.6-.7,2.5-.7,1,0,1.8,.2,2.6,.7,.7,.5,1.3,1.1,1.7,1.8,.4,.8,.6,1.6,.6,2.5v.5h-8.5c.1,.7,.3,1.3,.6,1.9,.3,.5,.8,1,1.3,1.3s1.1,.5,1.8,.5c.6,0,1.3-.2,1.8-.5s1-.8,1.2-1.3l1.1,.3c-.2,.5-.5,.9-.9,1.3s-.9,.7-1.5,.9c-.4,0-1,.2-1.7,.2Zm-3.6-5.6h7.3c-.1-.7-.2-1.3-.6-1.9-.3-.5-.8-1-1.3-1.3s-1.1-.5-1.8-.5-1.2,.2-1.8,.5c-.5,.3-1,.7-1.3,1.3s-.5,1.2-.5,1.9Z"/><path d="M196.5,75.9h-1.3v-5.5c0-1.2-.2-2-.5-2.5s-.9-.8-1.6-.8c-.5,0-1,.1-1.5,.4-.5,.2-.9,.6-1.3,1s-.6,.9-.8,1.4v6h-1.3v-9.9h1.2v2.2c.3-.5,.6-.9,1-1.3s.9-.6,1.5-.8c.5-.2,1.1-.3,1.7-.3,.5,0,1,.1,1.4,.3,.4,.2,.7,.5,.9,.9s.4,.8,.5,1.3,.2,1.1,.2,1.7l-.1,5.9h0Z"/><path d="M203.9,75.5c-.1,0-.3,.1-.5,.2s-.5,.2-.8,.3c-.3,.1-.6,.1-1,.1s-.7-.1-1-.2-.6-.4-.8-.6-.3-.6-.3-1.1v-7.2h-1.4v-1h1.4v-3.3h1.3v3.3h2.3v1h-2.3v6.8c0,.4,.2,.6,.4,.8,.2,.2,.5,.3,.8,.3,.4,0,.7-.1,1-.2s.5-.2,.5-.3l.4,1.1Z"/><path d="M218.5,64.9c-.2-.2-.4-.4-.7-.6s-.5-.3-.9-.4c-.3-.1-.7-.2-1-.3s-.7-.1-1.1-.1c-1.2,0-2,.2-2.6,.7-.6,.4-.8,1.1-.8,1.8,0,.5,.1,.9,.4,1.3,.3,.3,.7,.6,1.2,.7,.6,.2,1.3,.4,2.1,.6,1,.2,1.8,.4,2.5,.7,.7,.3,1.2,.7,1.6,1.1s.6,1.1,.6,1.9c0,.6-.1,1.2-.4,1.6-.2,.5-.6,.8-1,1.1-.4,.3-.9,.5-1.5,.7-.6,.1-1.2,.2-2,.2-.7,0-1.4-.1-2-.2s-1.2-.4-1.8-.6c-.6-.3-1.1-.6-1.6-1.1l.7-1.1c.2,.3,.5,.5,.9,.7,.3,.2,.7,.4,1.1,.6s.9,.3,1.3,.4,1,.1,1.5,.1c1.1,0,1.9-.2,2.5-.6s.9-1,.9-1.7c0-.6-.2-1-.5-1.3s-.8-.6-1.4-.8-1.4-.4-2.2-.6c-.9-.2-1.7-.5-2.4-.7s-1.1-.6-1.5-1.1c-.3-.4-.5-1-.5-1.7,0-.8,.2-1.5,.6-2.1,.4-.6,1-1,1.7-1.3s1.6-.4,2.5-.4c.6,0,1.1,.1,1.7,.2s1,.3,1.4,.5,.8,.5,1.2,.9l-.5,.9Z"/><path d="M226.2,76.1c-.7,0-1.4-.1-2-.4s-1.1-.6-1.6-1.1-.8-1-1-1.6-.4-1.3-.4-2c0-.9,.2-1.8,.6-2.5s1-1.4,1.8-1.8c.7-.5,1.6-.7,2.5-.7,1,0,1.8,.2,2.6,.7,.7,.5,1.3,1.1,1.7,1.8,.4,.8,.6,1.6,.6,2.5v.5h-8.5c.1,.7,.3,1.3,.6,1.9,.3,.5,.8,1,1.3,1.3s1.1,.5,1.8,.5c.6,0,1.3-.2,1.8-.5s1-.8,1.2-1.3l1.1,.3c-.2,.5-.5,.9-.9,1.3s-.9,.7-1.5,.9c-.5,0-1.1,.2-1.7,.2Zm-3.7-5.6h7.3c-.1-.7-.2-1.3-.6-1.9-.3-.5-.8-1-1.3-1.3s-1.1-.5-1.8-.5-1.2,.2-1.8,.5c-.5,.3-1,.7-1.3,1.3s-.4,1.2-.5,1.9Z"/><path d="M238,67.1c-.9,0-1.6,.3-2.3,.7-.7,.5-1.1,1.1-1.4,1.9v6.2h-1.3v-9.9h1.2v2.3c.3-.7,.8-1.3,1.4-1.7,.6-.4,1.2-.7,1.8-.7h.5l.1,1.2h0Z"/><path d="M242.7,75.9l-4-9.9h1.3l3.4,8.6,3.4-8.6h1.3l-4,9.9h-1.4Z"/><path d="M249.9,63.9v-1.9h1.3v1.9h-1.3Zm0,12v-9.9h1.3v9.9h-1.3Z"/><path d="M258.3,76.1c-.7,0-1.4-.1-2-.4s-1.1-.6-1.6-1.1-.8-1-1-1.6-.4-1.3-.4-2c0-.9,.2-1.8,.6-2.6s1-1.4,1.7-1.8c.7-.5,1.6-.7,2.6-.7,.9,0,1.7,.2,2.5,.6,.7,.4,1.2,1,1.6,1.7l-1.3,.4c-.3-.5-.7-.9-1.2-1.2-.5-.3-1.1-.4-1.7-.4-.7,0-1.3,.2-1.8,.5s-1,.8-1.3,1.4-.5,1.3-.5,2,.2,1.4,.5,2,.8,1.1,1.3,1.4c.5,.4,1.1,.5,1.8,.5,.4,0,.8-.1,1.2-.2,.4-.2,.7-.4,1-.6,.3-.3,.5-.5,.6-.8l1.3,.4c-.2,.5-.5,.9-.9,1.3s-.9,.7-1.4,.9c-.4,.1-1,.3-1.6,.3Z"/><path d="M268.6,76.1c-.7,0-1.4-.1-2-.4s-1.1-.6-1.6-1.1-.8-1-1-1.6-.4-1.3-.4-2c0-.9,.2-1.8,.6-2.5,.4-.8,1-1.4,1.8-1.8,.7-.5,1.6-.7,2.5-.7,1,0,1.8,.2,2.6,.7,.7,.5,1.3,1.1,1.7,1.8,.4,.8,.6,1.6,.6,2.5v.5h-8.4c.1,.7,.3,1.3,.6,1.9,.3,.5,.8,1,1.3,1.3s1.1,.5,1.8,.5c.6,0,1.3-.2,1.8-.5s1-.8,1.2-1.3l1.1,.3c-.2,.5-.5,.9-.9,1.3s-.9,.7-1.5,.9c-.5,0-1.1,.2-1.8,.2Zm-3.6-5.6h7.3c-.1-.7-.2-1.3-.6-1.9-.3-.5-.8-1-1.3-1.3s-1.1-.5-1.8-.5-1.2,.2-1.8,.5c-.5,.3-1,.7-1.3,1.3s-.5,1.2-.5,1.9Z"/><path d="M278.7,76.1c-.8,0-1.6-.1-2.3-.4-.7-.3-1.3-.7-1.8-1.2l.5-.9c.6,.5,1.1,.9,1.7,1.1s1.2,.4,1.8,.4c.8,0,1.4-.2,1.9-.5s.7-.8,.7-1.3c0-.4-.1-.7-.4-.9-.2-.2-.6-.4-1-.5s-1-.3-1.6-.4c-.7-.2-1.3-.4-1.7-.6-.5-.2-.8-.5-1-.8s-.4-.7-.4-1.3,.2-1.2,.5-1.6,.8-.7,1.3-1c.6-.2,1.2-.3,1.9-.3,.8,0,1.4,.1,2,.4,.6,.2,1.1,.6,1.4,1l-.6,.9c-.4-.4-.8-.7-1.3-.9-.5-.2-1-.3-1.6-.3-.4,0-.8,.1-1.2,.2-.4,.1-.7,.3-.9,.5-.2,.2-.4,.6-.4,1s.1,.6,.3,.8c.2,.2,.4,.4,.8,.5s.8,.3,1.3,.4c.7,.2,1.4,.4,2,.6s1,.5,1.3,.8,.5,.8,.5,1.4c0,.9-.3,1.6-1,2.2-.6,.4-1.5,.7-2.7,.7Z"/><path d="M85.1,53.1v-13.5h9v1.9h-6.9v4h5.7v1.8h-5.7v5.8h-2.1Z"/><path d="M94.1,50.2c0-.6,.2-1.2,.5-1.6s.9-.8,1.5-1.1,1.4-.4,2.2-.4c.4,0,.9,0,1.4,.1s.9,.2,1.2,.3v-.6c0-.7-.2-1.2-.6-1.6s-1-.6-1.8-.6c-.6,0-1.1,.1-1.6,.3s-1,.5-1.6,.8l-.7-1.4c.7-.4,1.3-.8,2-1s1.4-.3,2.1-.3c1.3,0,2.4,.3,3.1,1,.8,.7,1.1,1.7,1.1,3v3.7c0,.2,0,.4,.1,.5s.2,.2,.4,.2v1.7c-.2,0-.4,.1-.5,.1h-.4c-.4,0-.8-.1-1-.3s-.4-.5-.4-.8l-.1-.6c-.4,.6-1,1-1.7,1.3s-1.3,.5-2,.5-1.2-.1-1.8-.4-.9-.6-1.2-1.1c0-.6-.2-1.1-.2-1.7Zm6.3,.6c.2-.2,.3-.3,.4-.5s.1-.3,.1-.4v-1.1c-.4-.1-.7-.2-1.1-.3s-.8-.1-1.2-.1c-.8,0-1.4,.2-1.9,.4-.5,.3-.7,.7-.7,1.2,0,.3,.1,.6,.2,.8,.2,.3,.4,.5,.7,.6,.3,.2,.7,.2,1.1,.2,.5,0,.9-.1,1.3-.3s.9-.2,1.1-.5Z"/><path d="M110.1,53.2c-.8,0-1.5-.1-2.1-.4s-1.2-.6-1.6-1.1c-.5-.5-.8-1-1.1-1.6s-.4-1.3-.4-2c0-.9,.2-1.8,.6-2.5s1-1.4,1.8-1.8c.8-.5,1.7-.7,2.7-.7s1.9,.2,2.7,.7c.8,.4,1.3,1,1.7,1.8l-2,.6c-.2-.4-.5-.7-1-1-.4-.2-.9-.4-1.4-.4-.6,0-1.1,.1-1.5,.4s-.8,.7-1.1,1.2c-.3,.5-.4,1.1-.4,1.7s.1,1.2,.4,1.7,.6,.9,1.1,1.2c.4,.3,1,.4,1.5,.4,.3,0,.7-.1,1-.2s.6-.3,.8-.5c.2-.2,.4-.4,.5-.7l2.1,.6c-.2,.5-.5,.9-1,1.3-.4,.4-.9,.7-1.5,.9-.5,.3-1.1,.4-1.8,.4Z"/><path d="M116.2,41.5v-2.3h2.1v2.3h-2.1Zm0,11.6v-9.9h2.1v9.9h-2.1Z"/><path d="M120.8,39.2h2.1v11c0,.5,.1,.8,.2,1s.3,.2,.6,.2,.5,0,.7-.1,.4-.1,.6-.2l.3,1.7c-.3,.1-.7,.2-1.1,.3s-.8,.1-1.1,.1c-.7,0-1.3-.2-1.7-.6s-.6-1-.6-1.7v-11.7h0Z"/><path d="M126.5,41.5v-2.3h2.1v2.3h-2.1Zm0,11.6v-9.9h2.1v9.9h-2.1Z"/><path d="M136.6,52.6c-.2,.1-.4,.2-.7,.3l-.9,.3c-.3,.1-.7,.1-1,.1-.4,0-.8-.1-1.2-.2s-.7-.4-.9-.7-.3-.8-.3-1.3v-6.2h-1.3v-1.6h1.3v-3.3h2.1v3.3h2.2v1.6h-2.2v5.5c0,.3,.1,.6,.3,.8s.4,.2,.7,.2,.6-.1,.8-.2,.5-.2,.6-.2l.5,1.6Z"/><path d="M138.1,41.5v-2.3h2.1v2.3h-2.1Zm0,11.6v-9.9h2.1v9.9h-2.1Z"/><path d="M147.2,53.2c-.8,0-1.5-.1-2.1-.4s-1.2-.6-1.6-1.1-.8-1-1.1-1.6c-.2-.6-.4-1.3-.4-2,0-.9,.2-1.8,.6-2.5s1-1.4,1.8-1.9,1.7-.7,2.7-.7,1.9,.2,2.7,.7,1.3,1.1,1.8,1.9,.6,1.6,.6,2.5v.7h-8c0,.6,.2,1.1,.5,1.5s.6,.8,1.1,1c.4,.2,.9,.4,1.4,.4,.6,0,1.1-.1,1.6-.4s.8-.6,1-1.1l1.8,.5c-.2,.5-.5,.9-1,1.3-.4,.4-1,.7-1.5,.9-.6,.2-1.2,.3-1.9,.3Zm-3-5.8h6c0-.6-.2-1.1-.5-1.5s-.6-.8-1.1-1c-.4-.2-.9-.4-1.5-.4-.5,0-1,.1-1.4,.4-.4,.2-.8,.6-1.1,1-.2,.5-.4,1-.4,1.5Z"/><path d="M157.5,53.2c-.8,0-1.6-.1-2.4-.4s-1.4-.7-1.9-1.2l.8-1.4c.6,.5,1.1,.9,1.7,1.1,.6,.2,1.1,.3,1.7,.3s1.1-.1,1.4-.3c.4-.2,.6-.5,.6-1,0-.3-.1-.5-.3-.7s-.5-.3-.8-.4c-.4-.1-.8-.2-1.3-.4-.7-.2-1.3-.4-1.8-.7-.5-.2-.8-.5-1.1-.9-.2-.3-.4-.8-.4-1.3,0-.6,.2-1.2,.5-1.6,.3-.5,.8-.8,1.4-1s1.3-.4,2-.4,1.4,.1,2,.3,1.2,.6,1.6,1l-.9,1.4c-.4-.4-.9-.7-1.4-.9s-1-.3-1.5-.3c-.3,0-.6,0-.9,.1-.3,.1-.5,.2-.7,.4s-.3,.4-.3,.8c0,.3,.1,.5,.2,.6,.2,.2,.4,.3,.7,.4s.7,.2,1.1,.4c.8,.2,1.4,.4,2,.7,.5,.2,1,.5,1.3,.8s.4,.8,.4,1.4c0,1-.4,1.7-1.1,2.2-.5,.8-1.4,1-2.6,1Z"/><path d="M171.6,39.6h2l5.2,13.5h-2.2l-1.3-3.7h-5.4l-1.3,3.7h-2.3l5.3-13.5Zm3.1,8.2l-2.1-5.9-2.1,5.9h4.2Z"/><path d="M189.1,53.1h-2.1v-5.5c0-.9-.1-1.6-.4-2-.3-.4-.7-.6-1.3-.6-.4,0-.8,.1-1.2,.3s-.8,.5-1.1,.8-.5,.7-.7,1.2v5.9h-2.1v-9.9h1.9v2c.3-.4,.6-.8,1-1.1s.9-.6,1.4-.7,1.1-.3,1.7-.3,1.1,.1,1.5,.3,.7,.5,.9,.9,.4,.8,.5,1.3,.1,1,.1,1.5l-.1,5.9h0Z"/><path d="M190.8,50.2c0-.6,.2-1.2,.5-1.6s.9-.8,1.5-1.1,1.4-.4,2.2-.4c.4,0,.9,0,1.4,.1s.9,.2,1.2,.3v-.6c0-.7-.2-1.2-.6-1.6s-1-.6-1.8-.6c-.6,0-1.1,.1-1.6,.3s-1,.5-1.6,.8l-.7-1.4c.7-.4,1.3-.8,2-1s1.4-.3,2.1-.3c1.3,0,2.4,.3,3.1,1,.8,.7,1.1,1.7,1.1,3v3.7c0,.2,0,.4,.1,.5s.2,.2,.4,.2v1.7c-.2,0-.4,.1-.5,.1h-.4c-.4,0-.8-.1-1-.3s-.4-.5-.4-.8l-.1-.6c-.4,.6-1,1-1.7,1.3s-1.3,.5-2,.5-1.2-.1-1.8-.4-.9-.6-1.2-1.1c0-.6-.2-1.1-.2-1.7Zm6.4,.6c.2-.2,.3-.3,.4-.5s.1-.3,.1-.4v-1.1c-.4-.1-.7-.2-1.1-.3s-.8-.1-1.2-.1c-.8,0-1.4,.2-1.9,.4-.5,.3-.7,.7-.7,1.2,0,.3,.1,.6,.2,.8,.2,.3,.4,.5,.7,.6,.3,.2,.7,.2,1.1,.2,.5,0,.9-.1,1.3-.3s.8-.2,1.1-.5Z"/><path d="M202.3,39.2h2.1v11c0,.5,.1,.8,.2,1s.3,.2,.6,.2,.5,0,.7-.1,.4-.1,.6-.2l.3,1.7c-.3,.1-.7,.2-1.1,.3-.4,.1-.8,.1-1.1,.1-.7,0-1.3-.2-1.7-.6s-.6-1-.6-1.7v-11.7h0Z"/><path d="M207.9,55.4c.2,0,.4,.1,.6,.1h.4c.2,0,.4-.1,.6-.2,.2-.1,.3-.4,.5-.7,.2-.4,.4-.9,.6-1.5l-4.1-9.9h2.2l3,7.8,2.7-7.8h2l-4.5,12.2c-.1,.4-.3,.7-.6,1s-.6,.6-1,.7-.9,.3-1.4,.3h-.5c-.2,0-.3-.1-.6-.1l.1-1.9h0Z"/><path d="M221.2,53.2c-.8,0-1.6-.1-2.4-.4-.7-.3-1.4-.7-1.9-1.2l.8-1.4c.6,.5,1.1,.9,1.7,1.1,.6,.2,1.1,.3,1.7,.3s1.1-.1,1.4-.3,.6-.5,.6-1c0-.3-.1-.5-.3-.7s-.5-.3-.8-.4c-.4-.1-.8-.2-1.3-.4-.7-.2-1.3-.4-1.8-.7-.5-.2-.8-.5-1.1-.9-.2-.3-.4-.8-.4-1.3,0-.6,.2-1.2,.5-1.6,.3-.5,.8-.8,1.4-1s1.3-.4,2-.4,1.4,.1,2,.3,1.2,.6,1.6,1l-.9,1.4c-.4-.4-.9-.7-1.4-.9s-1-.3-1.5-.3c-.3,0-.6,0-.9,.1s-.5,.2-.7,.4-.3,.4-.3,.8c0,.3,.1,.5,.2,.6s.4,.3,.7,.4,.7,.2,1.1,.4c.8,.2,1.4,.4,2,.7,.5,.2,1,.5,1.3,.8s.4,.8,.4,1.4c0,1-.4,1.7-1.1,2.2-.4,.8-1.4,1-2.6,1Z"/><path d="M232.5,52.6c-.2,.1-.4,.2-.7,.3l-.9,.3c-.3,.1-.7,.1-1,.1-.4,0-.8-.1-1.2-.2-.4-.2-.7-.4-.9-.7s-.3-.8-.3-1.3v-6.2h-1.3v-1.6h1.3v-3.3h2.1v3.3h2.2v1.6h-2.2v5.5c0,.3,.1,.6,.3,.8s.4,.2,.7,.2,.6-.1,.8-.2c.3-.1,.5-.2,.6-.2l.5,1.6Z"/></g><rect id="p" x="34.9" y="100.8" width="267.1" height="579.2" style="fill:rgba(255,255,255,.15);"/></g></g></g><g id="q"><rect x="295" y="-50" width="805" height="900" style="fill:#fff; stroke:rgba(0,0,0,0); stroke-miterlimit:10;"/></g></svg>