<?xml version="1.0" encoding="utf-8"?>
<!-- Generator: Adobe Illustrator 26.2.1, SVG Export Plug-In . SVG Version: 6.00 Build 0)  -->
<svg version="1.1" id="Layer_1" xmlns="http://www.w3.org/2000/svg" xmlns:xlink="http://www.w3.org/1999/xlink" x="0px" y="0px"
	 viewBox="0 0 260 703" style="enable-background:new 0 0 260 703;" xml:space="preserve">
<style type="text/css">
	.st0{fill:#AAA091;}
	.st1{fill:#A4921E;}
	.st2{fill:#F2DC6B;}
	.st3{fill:#A4CEF3;}
	.st4{fill:#D7C1AA;}
	.st5{fill:#D96F32;}
	.st6{fill:#44A5BA;}
	.st7{fill:#2F3132;}
	.st8{enable-background:new    ;}
	.st9{fill:#FFFFFF;fill-opacity:0.15;}
	.st10{display:none;enable-background:new    ;}
	.st11{display:inline;}
	.st12{display:inline;fill:#FFFFFF;fill-opacity:0.15;}
	.st13{fill:#FFFFFF;stroke:#000000;stroke-miterlimit:10;stroke-opacity:0;}
</style>
<g id="Layer_1_00000158743546621593960740000013693509932498844327_">
	<g id="bumpchart">
		<g id="viz">
			<path id="publicspeaking" class="st0" d="M0,646.4c273.6,0,273.6-143.5,547.2-143.5c15.2,0,15.2,0,30.5,0
				c151.2,0,151.2,156.6,302.4,156.6V685c-151.2,0-151.2-126.1-302.4-126.1c-15.2,0-15.2,0-30.5,0C273.6,558.9,273.6,682,0,682
				V646.4z"/>
			<path id="leadership" class="st1" d="M0,617.9c273.6,0,273.6-148.5,547.2-148.5c15.2,0,15.2,0,30.5,0
				c151.2,0,151.2-181.2,302.4-181.2v76.4C728.9,364.6,728.9,500,577.7,500c-15.2,0-15.2,0-30.5,0C273.6,500,273.6,643.5,0,643.5
				V617.9L0,617.9z"/>
			<path id="teaching" class="st2" d="M0,584.4c273.6,0,273.6-168.9,547.2-168.9c15.2,0,15.2,0,30.5,0
				c151.2,0,151.2-47.9,302.4-47.9v50.9c-151.2,0-151.2,47.9-302.4,47.9c-15.2,0-15.2,0-30.5,0C273.6,466.4,273.6,614.9,0,614.9
				L0,584.4L0,584.4z"/>
			<path id="projectmanagement" class="st3" d="M0,440.9c273.6,0,273.6-286,547.2-286c15.2,0,15.2,0,30.5,0
				C728.8,154.9,728.8,685,880,685l0,0c-151.2,0-151.2-377.4-302.4-377.4c-15.2,0-15.2,0-30.5,0c-273.6,0-273.6,224.9-547.2,224.9
				v-91.6H0z"/>
			<path id="research" class="st4" d="M0,310.6c273.6,0,273.6,251.3,547.2,251.3c15.2,0,15.2,0,30.5,0c151.2,0,151.2-404,302.4-404
				v127.3c-151.2,0-151.2,317.5-302.4,317.5c-15.2,0-15.2,0-30.5,0C273.6,602.7,273.6,438,0,438V310.6L0,310.6z"/>
			<path id="analysis" class="st5" d="M0,154.9c273.6,0,273.6,155.7,547.2,155.7c15.2,0,15.2,0,30.5,0
				c151.2,0,151.2,110.8,302.4,110.8v76.4c-151.2,0-151.2-85.4-302.4-85.4c-15.2,0-15.2,0-30.5,0C273.6,412.4,273.6,307.6,0,307.6
				L0,154.9L0,154.9z"/>
			<path id="volunteerism" class="st6" d="M0,535.5c273.6,0,273.6,70.1,547.2,70.1c15.2,0,15.2,0,30.5,0
				c151.2,0,151.2-104.8,302.4-104.8v101.8c-151.2,0-151.2,53.9-302.4,53.9c-15.2,0-15.2,0-30.5,0c-273.6,0-273.6-75.2-547.2-75.2
				L0,535.5L0,535.5z"/>
			<path id="consultancy" class="st7" d="M0,685c273.6,0,273.6-25.5,547.2-25.5c15.2,0,15.2,0,30.5,0c151.2,0,151.2-53.9,302.4-53.9
				v50.9c-151.2,0-151.2,28.5-302.4,28.5c-15.2,0-15.2,0-30.5,0C273.6,685,273.6,685,0,685z"/>
		</g>
	</g>
	<g id="job_headers">
		<g id="rssp" class="st8">
			<g id="text_00000180335707499541627010000008417525126602485660_">
				<path d="M7.6,80.9V67.4h5.7c0.6,0,1.1,0.1,1.6,0.4s0.9,0.6,1.3,1c0.4,0.4,0.6,0.9,0.8,1.4s0.3,1,0.3,1.5c0,0.6-0.1,1.3-0.4,1.8
					c-0.2,0.6-0.6,1.1-1,1.4c-0.5,0.4-1,0.7-1.6,0.8l3.3,5.2h-1.5l-3.2-5h-4v5L7.6,80.9L7.6,80.9z M9,74.7h4.4c0.5,0,1-0.1,1.4-0.4
					s0.7-0.7,0.9-1.1c0.2-0.5,0.3-1,0.3-1.5s-0.1-1-0.4-1.5c-0.2-0.5-0.6-0.8-1-1.1s-0.9-0.4-1.4-0.4H9V74.7L9,74.7z"/>
				<path d="M23.8,81.1c-0.7,0-1.4-0.1-2-0.4s-1.1-0.6-1.6-1.1s-0.8-1-1-1.6s-0.4-1.3-0.4-2c0-0.9,0.2-1.8,0.6-2.5s1-1.4,1.8-1.8
					c0.7-0.5,1.6-0.7,2.5-0.7c1,0,1.8,0.2,2.6,0.7c0.7,0.5,1.3,1.1,1.7,1.8c0.4,0.8,0.6,1.6,0.6,2.5c0,0.1,0,0.2,0,0.3
					c0,0.1,0,0.2,0,0.2h-8.5c0.1,0.7,0.3,1.3,0.6,1.9c0.3,0.5,0.8,1,1.3,1.3s1.1,0.5,1.8,0.5c0.6,0,1.3-0.2,1.8-0.5s1-0.8,1.2-1.3
					l1.1,0.3c-0.2,0.5-0.5,0.9-0.9,1.3s-0.9,0.7-1.5,0.9C25,80.9,24.4,81.1,23.8,81.1z M20.1,75.5h7.3c-0.1-0.7-0.2-1.3-0.6-1.9
					c-0.3-0.5-0.8-1-1.3-1.3s-1.1-0.5-1.8-0.5s-1.2,0.2-1.8,0.5c-0.5,0.3-1,0.7-1.3,1.3S20.2,74.8,20.1,75.5z"/>
				<path d="M33.9,81.1c-0.8,0-1.6-0.1-2.3-0.4s-1.3-0.7-1.8-1.2l0.5-0.9c0.6,0.5,1.1,0.9,1.7,1.1s1.2,0.4,1.8,0.4
					c0.8,0,1.4-0.2,1.9-0.5s0.7-0.8,0.7-1.3c0-0.4-0.1-0.7-0.4-0.9c-0.2-0.2-0.6-0.4-1-0.5s-1-0.3-1.6-0.4c-0.7-0.2-1.3-0.4-1.7-0.6
					c-0.5-0.2-0.8-0.5-1-0.8s-0.4-0.7-0.4-1.3c0-0.6,0.2-1.2,0.5-1.6s0.8-0.7,1.3-1c0.6-0.2,1.2-0.3,1.9-0.3c0.8,0,1.4,0.1,2,0.4
					c0.6,0.2,1.1,0.6,1.4,1l-0.6,0.9c-0.4-0.4-0.8-0.7-1.3-0.9c-0.5-0.2-1-0.3-1.6-0.3c-0.4,0-0.8,0.1-1.2,0.2s-0.7,0.3-0.9,0.5
					s-0.4,0.6-0.4,1s0.1,0.6,0.3,0.8c0.2,0.2,0.4,0.4,0.8,0.5c0.4,0.1,0.8,0.3,1.3,0.4c0.7,0.2,1.4,0.4,2,0.6c0.6,0.2,1,0.5,1.3,0.8
					s0.5,0.8,0.5,1.4c0,0.9-0.3,1.6-1,2.2C35.9,80.8,35,81.1,33.9,81.1z"/>
				<path d="M39.8,68.9V67h1.3v1.9H39.8z M39.8,80.9V71h1.3v9.9H39.8z"/>
				<path d="M43.3,76c0-0.9,0.2-1.8,0.6-2.6c0.4-0.8,0.9-1.4,1.6-1.9s1.5-0.7,2.3-0.7s1.6,0.2,2.2,0.7s1.2,1,1.5,1.6V67h1.3v12.3
					c0,0.2,0,0.3,0.1,0.4s0.2,0.1,0.3,0.1v1c-0.3,0-0.4,0.1-0.6,0c-0.3,0-0.5-0.1-0.7-0.3c-0.2-0.2-0.3-0.4-0.3-0.7v-1
					c-0.4,0.6-0.9,1.2-1.6,1.5s-1.4,0.6-2.1,0.6s-1.3-0.1-1.9-0.4s-1.1-0.7-1.5-1.1c-0.4-0.5-0.8-1-1-1.6
					C43.4,77.3,43.3,76.6,43.3,76z M51.6,77.5v-3c-0.2-0.5-0.4-0.9-0.8-1.2c-0.4-0.4-0.8-0.7-1.2-0.9c-0.5-0.2-0.9-0.3-1.4-0.3
					s-1,0.1-1.4,0.3c-0.4,0.2-0.8,0.5-1.1,0.9c-0.3,0.4-0.5,0.8-0.7,1.3s-0.2,1-0.2,1.5s0.1,1,0.3,1.5c0.2,0.5,0.4,0.9,0.8,1.3
					s0.7,0.7,1.2,0.9s0.9,0.3,1.4,0.3c0.3,0,0.7-0.1,1-0.2s0.7-0.3,1-0.5s0.6-0.5,0.8-0.8S51.5,77.8,51.6,77.5z"/>
				<path d="M60,81.1c-0.7,0-1.4-0.1-2-0.4s-1.1-0.6-1.6-1.1s-0.8-1-1-1.6S55,76.7,55,76c0-0.9,0.2-1.8,0.6-2.5s1-1.4,1.8-1.8
					c0.7-0.5,1.6-0.7,2.5-0.7c1,0,1.8,0.2,2.6,0.7c0.7,0.5,1.3,1.1,1.7,1.8c0.4,0.8,0.6,1.6,0.6,2.5c0,0.1,0,0.2,0,0.3
					c0,0.1,0,0.2,0,0.2h-8.5c0.1,0.7,0.3,1.3,0.6,1.9c0.3,0.5,0.8,1,1.3,1.3s1.1,0.5,1.8,0.5c0.6,0,1.3-0.2,1.8-0.5s1-0.8,1.2-1.3
					l1.1,0.3c-0.2,0.5-0.5,0.9-0.9,1.3s-0.9,0.7-1.5,0.9C61.3,80.9,60.7,81.1,60,81.1z M56.4,75.5h7.3c-0.1-0.7-0.2-1.3-0.6-1.9
					c-0.3-0.5-0.8-1-1.3-1.3s-1.1-0.5-1.8-0.5s-1.2,0.2-1.8,0.5c-0.5,0.3-1,0.7-1.3,1.3S56.4,74.8,56.4,75.5z"/>
				<path d="M75.2,80.9H74v-5.5c0-1.2-0.2-2-0.5-2.5s-0.9-0.8-1.6-0.8c-0.5,0-1,0.1-1.5,0.4c-0.5,0.2-0.9,0.6-1.3,1
					s-0.6,0.9-0.8,1.4v6H67V71h1.2v2.2c0.3-0.5,0.6-0.9,1-1.3s0.9-0.6,1.5-0.8c0.5-0.2,1.1-0.3,1.7-0.3c0.5,0,1,0.1,1.4,0.3
					c0.4,0.2,0.7,0.5,0.9,0.9c0.2,0.4,0.4,0.8,0.5,1.3s0.2,1.1,0.2,1.7L75.2,80.9L75.2,80.9z"/>
				<path d="M82.7,80.5c-0.1,0-0.3,0.1-0.5,0.2s-0.5,0.2-0.8,0.3c-0.3,0.1-0.6,0.1-1,0.1s-0.7-0.1-1-0.2s-0.6-0.4-0.8-0.6
					s-0.3-0.6-0.3-1.1V72H77v-1h1.4v-3.3h1.3V71H82v1h-2.3v6.8c0,0.4,0.2,0.6,0.4,0.8c0.2,0.2,0.5,0.3,0.8,0.3c0.4,0,0.7-0.1,1-0.2
					s0.5-0.2,0.5-0.3L82.7,80.5z"/>
				<path d="M84.3,68.9V67h1.3v1.9H84.3z M84.3,80.9V71h1.3v9.9H84.3z"/>
				<path d="M87.6,78c0-0.6,0.2-1.1,0.5-1.6c0.4-0.4,0.8-0.8,1.5-1S91,75,91.8,75c0.5,0,1,0,1.5,0.1s1,0.2,1.4,0.3v-0.8
					c0-0.8-0.2-1.5-0.7-2s-1.2-0.7-2.1-0.7c-0.5,0-1.1,0.1-1.6,0.3s-1,0.5-1.6,0.9l-0.5-0.9c0.6-0.4,1.3-0.8,1.9-1s1.3-0.3,1.9-0.3
					c1.2,0,2.2,0.3,2.9,1s1.1,1.6,1.1,2.9v4.6c0,0.2,0,0.3,0.1,0.4s0.2,0.1,0.4,0.1v1c-0.1,0-0.3,0-0.4,0s-0.2,0-0.2,0
					c-0.3,0-0.6-0.1-0.7-0.3c-0.2-0.2-0.3-0.4-0.3-0.6v-0.7c-0.4,0.6-1,1-1.7,1.3s-1.4,0.5-2.2,0.5c-0.6,0-1.2-0.1-1.7-0.4
					s-0.9-0.6-1.2-1.1C87.8,79.1,87.6,78.6,87.6,78z M94.2,78.8c0.1-0.2,0.2-0.3,0.3-0.5s0.1-0.3,0.1-0.4v-1.4
					c-0.4-0.2-0.9-0.3-1.3-0.4S92.4,76,91.9,76c-0.9,0-1.7,0.2-2.2,0.5s-0.9,0.9-0.9,1.5c0,0.4,0.1,0.7,0.3,1s0.5,0.6,0.8,0.8
					c0.4,0.2,0.8,0.3,1.3,0.3c0.6,0,1.2-0.1,1.7-0.4C93.5,79.5,94,79.2,94.2,78.8z"/>
				<path d="M98.8,67h1.3v11.7c0,0.5,0.1,0.8,0.3,1s0.4,0.2,0.6,0.2c0.2,0,0.5,0,0.7-0.1s0.4-0.1,0.6-0.2l0.2,1
					c-0.2,0.1-0.5,0.2-0.9,0.2c-0.3,0.1-0.6,0.1-0.9,0.1c-0.6,0-1-0.2-1.4-0.5c-0.3-0.3-0.5-0.8-0.5-1.4L98.8,67L98.8,67z"/>
				<path d="M116.4,69.9c-0.2-0.2-0.4-0.4-0.7-0.6s-0.5-0.3-0.9-0.4c-0.3-0.1-0.7-0.2-1-0.3c-0.3-0.1-0.7-0.1-1.1-0.1
					c-1.2,0-2,0.2-2.6,0.7c-0.6,0.4-0.8,1.1-0.8,1.8c0,0.5,0.1,0.9,0.4,1.3c0.3,0.3,0.7,0.6,1.2,0.7c0.6,0.2,1.3,0.4,2.1,0.6
					c1,0.2,1.8,0.4,2.5,0.7c0.7,0.3,1.2,0.7,1.6,1.1s0.6,1.1,0.6,1.9c0,0.6-0.1,1.2-0.4,1.6c-0.2,0.5-0.6,0.8-1,1.1
					c-0.4,0.3-0.9,0.5-1.5,0.7c-0.6,0.1-1.2,0.2-2,0.2c-0.7,0-1.4-0.1-2-0.2s-1.2-0.4-1.8-0.6c-0.6-0.3-1.1-0.6-1.6-1.1l0.7-1.1
					c0.2,0.3,0.5,0.5,0.9,0.7c0.3,0.2,0.7,0.4,1.1,0.6s0.9,0.3,1.3,0.4s1,0.1,1.5,0.1c1.1,0,1.9-0.2,2.5-0.6s0.9-1,0.9-1.7
					c0-0.6-0.2-1-0.5-1.3s-0.8-0.6-1.4-0.8s-1.4-0.4-2.2-0.6c-0.9-0.2-1.7-0.5-2.4-0.7s-1.1-0.6-1.5-1.1c-0.3-0.4-0.5-1-0.5-1.7
					c0-0.8,0.2-1.5,0.6-2.1c0.4-0.6,1-1,1.7-1.3c0.7-0.3,1.6-0.4,2.5-0.4c0.6,0,1.1,0.1,1.7,0.2s1,0.3,1.4,0.5s0.8,0.5,1.2,0.9
					L116.4,69.9z"/>
				<path d="M124.3,80.5c-0.1,0-0.3,0.1-0.5,0.2s-0.5,0.2-0.8,0.3c-0.3,0.1-0.6,0.1-1,0.1s-0.7-0.1-1-0.2s-0.6-0.4-0.8-0.6
					s-0.3-0.6-0.3-1.1V72h-1.4v-1h1.4v-3.3h1.3V71h2.3v1h-2.3v6.8c0,0.4,0.2,0.6,0.4,0.8c0.2,0.2,0.5,0.3,0.8,0.3
					c0.4,0,0.7-0.1,1-0.2s0.5-0.2,0.5-0.3L124.3,80.5z"/>
				<path d="M125.8,76.8V71h1.3v5.6c0,1.1,0.2,2,0.6,2.5c0.4,0.6,1,0.8,1.7,0.8c0.5,0,1-0.1,1.5-0.3c0.5-0.2,0.9-0.5,1.3-0.9
					c0.4-0.4,0.6-0.9,0.8-1.4V71h1.3v8.3c0,0.2,0,0.3,0.1,0.4s0.2,0.1,0.3,0.1v1c-0.2,0-0.3,0-0.4,0c-0.1,0-0.2,0-0.2,0
					c-0.3,0-0.5-0.1-0.7-0.3s-0.3-0.4-0.3-0.6v-1.3c-0.4,0.8-1,1.3-1.8,1.8c-0.7,0.4-1.5,0.6-2.4,0.6c-1,0-1.8-0.4-2.4-1.1
					C126.1,79.3,125.8,78.2,125.8,76.8z"/>
				<path d="M136.6,76c0-0.9,0.2-1.8,0.6-2.6c0.4-0.8,0.9-1.4,1.6-1.9c0.7-0.5,1.5-0.7,2.3-0.7s1.6,0.2,2.2,0.7s1.2,1,1.5,1.6V67
					h1.3v12.3c0,0.2,0,0.3,0.1,0.4s0.2,0.1,0.3,0.1v1c-0.3,0-0.4,0.1-0.6,0c-0.3,0-0.5-0.1-0.7-0.3c-0.2-0.2-0.3-0.4-0.3-0.7v-1
					c-0.4,0.6-0.9,1.2-1.6,1.5s-1.4,0.6-2.1,0.6c-0.7,0-1.3-0.1-1.9-0.4c-0.6-0.3-1.1-0.7-1.5-1.1c-0.4-0.5-0.8-1-1-1.6
					C136.7,77.3,136.6,76.6,136.6,76z M144.8,77.5v-3c-0.2-0.5-0.4-0.9-0.8-1.2c-0.4-0.4-0.8-0.7-1.2-0.9c-0.5-0.2-0.9-0.3-1.4-0.3
					s-1,0.1-1.4,0.3c-0.4,0.2-0.8,0.5-1.1,0.9s-0.5,0.8-0.7,1.3s-0.2,1-0.2,1.5s0.1,1,0.3,1.5s0.4,0.9,0.8,1.3s0.7,0.7,1.2,0.9
					s0.9,0.3,1.4,0.3c0.3,0,0.7-0.1,1-0.2s0.7-0.3,1-0.5s0.6-0.5,0.8-0.8S144.8,77.8,144.8,77.5z"/>
				<path d="M153.3,81.1c-0.7,0-1.4-0.1-2-0.4s-1.1-0.6-1.6-1.1s-0.8-1-1-1.6s-0.4-1.3-0.4-2c0-0.9,0.2-1.8,0.6-2.5s1-1.4,1.8-1.8
					c0.7-0.5,1.6-0.7,2.5-0.7c1,0,1.8,0.2,2.6,0.7c0.7,0.5,1.3,1.1,1.7,1.8c0.4,0.8,0.6,1.6,0.6,2.5c0,0.1,0,0.2,0,0.3
					c0,0.1,0,0.2,0,0.2h-8.5c0.1,0.7,0.3,1.3,0.6,1.9c0.3,0.5,0.8,1,1.3,1.3s1.1,0.5,1.8,0.5c0.6,0,1.3-0.2,1.8-0.5s1-0.8,1.2-1.3
					l1.1,0.3c-0.2,0.5-0.5,0.9-0.9,1.3s-0.9,0.7-1.5,0.9C154.6,80.9,154,81.1,153.3,81.1z M149.7,75.5h7.3c-0.1-0.7-0.2-1.3-0.6-1.9
					c-0.3-0.5-0.8-1-1.3-1.3s-1.1-0.5-1.8-0.5s-1.2,0.2-1.8,0.5c-0.5,0.3-1,0.7-1.3,1.3S149.7,74.8,149.7,75.5z"/>
				<path d="M168.5,80.9h-1.3v-5.5c0-1.2-0.2-2-0.5-2.5s-0.9-0.8-1.6-0.8c-0.5,0-1,0.1-1.5,0.4c-0.5,0.2-0.9,0.6-1.3,1
					s-0.6,0.9-0.8,1.4v6h-1.3V71h1.2v2.2c0.3-0.5,0.6-0.9,1-1.3s0.9-0.6,1.5-0.8c0.5-0.2,1.1-0.3,1.7-0.3c0.5,0,1,0.1,1.4,0.3
					c0.4,0.2,0.7,0.5,0.9,0.9s0.4,0.8,0.5,1.3s0.2,1.1,0.2,1.7L168.5,80.9L168.5,80.9z"/>
				<path d="M175.9,80.5c-0.1,0-0.3,0.1-0.5,0.2s-0.5,0.2-0.8,0.3c-0.3,0.1-0.6,0.1-1,0.1s-0.7-0.1-1-0.2s-0.6-0.4-0.8-0.6
					s-0.3-0.6-0.3-1.1V72h-1.4v-1h1.4v-3.3h1.3V71h2.3v1h-2.3v6.8c0,0.4,0.2,0.6,0.4,0.8c0.2,0.2,0.5,0.3,0.8,0.3
					c0.4,0,0.7-0.1,1-0.2s0.5-0.2,0.5-0.3L175.9,80.5z"/>
				<path d="M190.5,69.9c-0.2-0.2-0.4-0.4-0.7-0.6s-0.5-0.3-0.9-0.4c-0.3-0.1-0.7-0.2-1-0.3c-0.3-0.1-0.7-0.1-1.1-0.1
					c-1.2,0-2,0.2-2.6,0.7c-0.6,0.4-0.8,1.1-0.8,1.8c0,0.5,0.1,0.9,0.4,1.3c0.3,0.3,0.7,0.6,1.2,0.7c0.6,0.2,1.3,0.4,2.1,0.6
					c1,0.2,1.8,0.4,2.5,0.7c0.7,0.3,1.2,0.7,1.6,1.1s0.6,1.1,0.6,1.9c0,0.6-0.1,1.2-0.4,1.6c-0.2,0.5-0.6,0.8-1,1.1
					c-0.4,0.3-0.9,0.5-1.5,0.7c-0.6,0.1-1.2,0.2-2,0.2c-0.7,0-1.4-0.1-2-0.2s-1.2-0.4-1.8-0.6c-0.6-0.3-1.1-0.6-1.6-1.1l0.7-1.1
					c0.2,0.3,0.5,0.5,0.9,0.7c0.3,0.2,0.7,0.4,1.1,0.6s0.9,0.3,1.3,0.4s1,0.1,1.5,0.1c1.1,0,1.9-0.2,2.5-0.6s0.9-1,0.9-1.7
					c0-0.6-0.2-1-0.5-1.3s-0.8-0.6-1.4-0.8s-1.4-0.4-2.2-0.6c-0.9-0.2-1.7-0.5-2.4-0.7s-1.1-0.6-1.5-1.1c-0.3-0.4-0.5-1-0.5-1.7
					c0-0.8,0.2-1.5,0.6-2.1c0.4-0.6,1-1,1.7-1.3c0.7-0.3,1.6-0.4,2.5-0.4c0.6,0,1.1,0.1,1.7,0.2s1,0.3,1.4,0.5s0.8,0.5,1.2,0.9
					L190.5,69.9z"/>
				<path d="M198.2,81.1c-0.7,0-1.4-0.1-2-0.4s-1.1-0.6-1.6-1.1s-0.8-1-1-1.6s-0.4-1.3-0.4-2c0-0.9,0.2-1.8,0.6-2.5s1-1.4,1.8-1.8
					c0.7-0.5,1.6-0.7,2.5-0.7c1,0,1.8,0.2,2.6,0.7c0.7,0.5,1.3,1.1,1.7,1.8c0.4,0.8,0.6,1.6,0.6,2.5c0,0.1,0,0.2,0,0.3
					c0,0.1,0,0.2,0,0.2h-8.5c0.1,0.7,0.3,1.3,0.6,1.9c0.3,0.5,0.8,1,1.3,1.3s1.1,0.5,1.8,0.5c0.6,0,1.3-0.2,1.8-0.5s1-0.8,1.2-1.3
					l1.1,0.3c-0.2,0.5-0.5,0.9-0.9,1.3s-0.9,0.7-1.5,0.9C199.4,80.9,198.8,81.1,198.2,81.1z M194.5,75.5h7.3
					c-0.1-0.7-0.2-1.3-0.6-1.9c-0.3-0.5-0.8-1-1.3-1.3s-1.1-0.5-1.8-0.5s-1.2,0.2-1.8,0.5c-0.5,0.3-1,0.7-1.3,1.3
					S194.6,74.8,194.5,75.5z"/>
				<path d="M210,72.1c-0.9,0-1.6,0.3-2.3,0.7c-0.7,0.5-1.1,1.1-1.4,1.9v6.2H205V71h1.2v2.3c0.3-0.7,0.8-1.3,1.4-1.7
					c0.6-0.4,1.2-0.7,1.8-0.7c0.1,0,0.2,0,0.3,0s0.2,0,0.2,0L210,72.1L210,72.1z"/>
				<path d="M214.7,80.9l-4-9.9h1.3l3.4,8.6l3.4-8.6h1.3l-4,9.9H214.7z"/>
				<path d="M221.9,68.9V67h1.3v1.9H221.9z M221.9,80.9V71h1.3v9.9H221.9z"/>
				<path d="M230.3,81.1c-0.7,0-1.4-0.1-2-0.4s-1.1-0.6-1.6-1.1s-0.8-1-1-1.6s-0.4-1.3-0.4-2c0-0.9,0.2-1.8,0.6-2.6s1-1.4,1.7-1.8
					c0.7-0.5,1.6-0.7,2.6-0.7c0.9,0,1.7,0.2,2.5,0.6c0.7,0.4,1.2,1,1.6,1.7l-1.3,0.4c-0.3-0.5-0.7-0.9-1.2-1.2
					c-0.5-0.3-1.1-0.4-1.7-0.4c-0.7,0-1.3,0.2-1.8,0.5s-1,0.8-1.3,1.4s-0.5,1.3-0.5,2s0.2,1.4,0.5,2s0.8,1.1,1.3,1.4
					c0.5,0.4,1.1,0.5,1.8,0.5c0.4,0,0.8-0.1,1.2-0.2c0.4-0.2,0.7-0.4,1-0.6c0.3-0.3,0.5-0.5,0.6-0.8l1.3,0.4
					c-0.2,0.5-0.5,0.9-0.9,1.3s-0.9,0.7-1.4,0.9C231.5,80.9,230.9,81.1,230.3,81.1z"/>
				<path d="M240.6,81.1c-0.7,0-1.4-0.1-2-0.4s-1.1-0.6-1.6-1.1s-0.8-1-1-1.6s-0.4-1.3-0.4-2c0-0.9,0.2-1.8,0.6-2.5
					c0.4-0.8,1-1.4,1.8-1.8c0.7-0.5,1.6-0.7,2.5-0.7c1,0,1.8,0.2,2.6,0.7c0.7,0.5,1.3,1.1,1.7,1.8c0.4,0.8,0.6,1.6,0.6,2.5
					c0,0.1,0,0.2,0,0.3c0,0.1,0,0.2,0,0.2H237c0.1,0.7,0.3,1.3,0.6,1.9c0.3,0.5,0.8,1,1.3,1.3s1.1,0.5,1.8,0.5
					c0.6,0,1.3-0.2,1.8-0.5s1-0.8,1.2-1.3l1.1,0.3c-0.2,0.5-0.5,0.9-0.9,1.3s-0.9,0.7-1.5,0.9C241.9,80.9,241.3,81.1,240.6,81.1z
					 M237,75.5h7.3c-0.1-0.7-0.2-1.3-0.6-1.9c-0.3-0.5-0.8-1-1.3-1.3s-1.1-0.5-1.8-0.5s-1.2,0.2-1.8,0.5c-0.5,0.3-1,0.7-1.3,1.3
					S237,74.8,237,75.5z"/>
				<path d="M250.7,81.1c-0.8,0-1.6-0.1-2.3-0.4c-0.7-0.3-1.3-0.7-1.8-1.2l0.5-0.9c0.6,0.5,1.1,0.9,1.7,1.1s1.2,0.4,1.8,0.4
					c0.8,0,1.4-0.2,1.9-0.5s0.7-0.8,0.7-1.3c0-0.4-0.1-0.7-0.4-0.9c-0.2-0.2-0.6-0.4-1-0.5s-1-0.3-1.6-0.4c-0.7-0.2-1.3-0.4-1.7-0.6
					c-0.5-0.2-0.8-0.5-1-0.8s-0.4-0.7-0.4-1.3c0-0.6,0.2-1.2,0.5-1.6s0.8-0.7,1.3-1c0.6-0.2,1.2-0.3,1.9-0.3c0.8,0,1.4,0.1,2,0.4
					c0.6,0.2,1.1,0.6,1.4,1l-0.6,0.9c-0.4-0.4-0.8-0.7-1.3-0.9c-0.5-0.2-1-0.3-1.6-0.3c-0.4,0-0.8,0.1-1.2,0.2
					c-0.4,0.1-0.7,0.3-0.9,0.5c-0.2,0.2-0.4,0.6-0.4,1s0.1,0.6,0.3,0.8c0.2,0.2,0.4,0.4,0.8,0.5s0.8,0.3,1.3,0.4
					c0.7,0.2,1.4,0.4,2,0.6s1,0.5,1.3,0.8s0.5,0.8,0.5,1.4c0,0.9-0.3,1.6-1,2.2C252.8,80.8,251.9,81.1,250.7,81.1z"/>
				<path d="M57.1,58.1V44.6h9v1.9h-6.9v4h5.7v1.8h-5.7v5.8H57.1z"/>
				<path d="M66.1,55.2c0-0.6,0.2-1.2,0.5-1.6s0.9-0.8,1.5-1.1s1.4-0.4,2.2-0.4c0.4,0,0.9,0,1.4,0.1s0.9,0.2,1.2,0.3v-0.6
					c0-0.7-0.2-1.2-0.6-1.6s-1-0.6-1.8-0.6c-0.6,0-1.1,0.1-1.6,0.3s-1,0.5-1.6,0.8l-0.7-1.4c0.7-0.4,1.3-0.8,2-1s1.4-0.3,2.1-0.3
					c1.3,0,2.4,0.3,3.1,1c0.8,0.7,1.1,1.7,1.1,3v3.7c0,0.2,0,0.4,0.1,0.5s0.2,0.2,0.4,0.2v1.7c-0.2,0-0.4,0.1-0.5,0.1
					c-0.2,0-0.3,0-0.4,0c-0.4,0-0.8-0.1-1-0.3s-0.4-0.5-0.4-0.8L73,56.6c-0.4,0.6-1,1-1.7,1.3s-1.3,0.5-2,0.5s-1.2-0.1-1.8-0.4
					s-0.9-0.6-1.2-1.1C66.3,56.3,66.1,55.8,66.1,55.2z M72.4,55.8c0.2-0.2,0.3-0.3,0.4-0.5s0.1-0.3,0.1-0.4v-1.1
					c-0.4-0.1-0.7-0.2-1.1-0.3s-0.8-0.1-1.2-0.1c-0.8,0-1.4,0.2-1.9,0.4C68.2,54.1,68,54.5,68,55c0,0.3,0.1,0.6,0.2,0.8
					c0.2,0.3,0.4,0.5,0.7,0.6c0.3,0.2,0.7,0.2,1.1,0.2c0.5,0,0.9-0.1,1.3-0.3S72.2,56.1,72.4,55.8z"/>
				<path d="M82.1,58.2c-0.8,0-1.5-0.1-2.1-0.4s-1.2-0.6-1.6-1.1c-0.5-0.5-0.8-1-1.1-1.6s-0.4-1.3-0.4-2c0-0.9,0.2-1.8,0.6-2.5
					s1-1.4,1.8-1.8c0.8-0.5,1.7-0.7,2.7-0.7s1.9,0.2,2.7,0.7c0.8,0.4,1.3,1,1.7,1.8l-2,0.6c-0.2-0.4-0.5-0.7-1-1
					C83,50,82.5,49.8,82,49.8c-0.6,0-1.1,0.1-1.5,0.4s-0.8,0.7-1.1,1.2c-0.3,0.5-0.4,1.1-0.4,1.7s0.1,1.2,0.4,1.7s0.6,0.9,1.1,1.2
					c0.4,0.3,1,0.4,1.5,0.4c0.3,0,0.7-0.1,1-0.2s0.6-0.3,0.8-0.5c0.2-0.2,0.4-0.4,0.5-0.7l2.1,0.6c-0.2,0.5-0.5,0.9-1,1.3
					c-0.4,0.4-0.9,0.7-1.5,0.9C83.4,58.1,82.8,58.2,82.1,58.2z"/>
				<path d="M88.2,46.5v-2.3h2.1v2.3C90.3,46.5,88.2,46.5,88.2,46.5z M88.2,58.1v-9.9h2.1v9.9H88.2z"/>
				<path d="M92.8,44.2h2.1v11c0,0.5,0.1,0.8,0.2,1s0.3,0.2,0.6,0.2c0.3,0,0.5,0,0.7-0.1s0.4-0.1,0.6-0.2l0.3,1.7
					c-0.3,0.1-0.7,0.2-1.1,0.3s-0.8,0.1-1.1,0.1c-0.7,0-1.3-0.2-1.7-0.6s-0.6-1-0.6-1.7V44.2L92.8,44.2z"/>
				<path d="M98.5,46.5v-2.3h2.1v2.3H98.5z M98.5,58.1v-9.9h2.1v9.9H98.5z"/>
				<path d="M108.6,57.6c-0.2,0.1-0.4,0.2-0.7,0.3s-0.6,0.2-0.9,0.3c-0.3,0.1-0.7,0.1-1,0.1c-0.4,0-0.8-0.1-1.2-0.2
					s-0.7-0.4-0.9-0.7s-0.3-0.8-0.3-1.3v-6.2h-1.3v-1.6h1.3V45h2.1v3.3h2.2v1.6h-2.2v5.5c0,0.3,0.1,0.6,0.3,0.8s0.4,0.2,0.7,0.2
					s0.6-0.1,0.8-0.2s0.5-0.2,0.6-0.2L108.6,57.6z"/>
				<path d="M110.1,46.5v-2.3h2.1v2.3C112.2,46.5,110.1,46.5,110.1,46.5z M110.1,58.1v-9.9h2.1v9.9H110.1z"/>
				<path d="M119.2,58.2c-0.8,0-1.5-0.1-2.1-0.4s-1.2-0.6-1.6-1.1s-0.8-1-1.1-1.6c-0.2-0.6-0.4-1.3-0.4-2c0-0.9,0.2-1.8,0.6-2.5
					s1-1.4,1.8-1.9s1.7-0.7,2.7-0.7s1.9,0.2,2.7,0.7s1.3,1.1,1.8,1.9s0.6,1.6,0.6,2.5c0,0.2,0,0.3,0,0.4s0,0.2,0,0.3h-8
					c0,0.6,0.2,1.1,0.5,1.5s0.6,0.8,1.1,1c0.4,0.2,0.9,0.4,1.4,0.4c0.6,0,1.1-0.1,1.6-0.4s0.8-0.6,1-1.1l1.8,0.5
					c-0.2,0.5-0.5,0.9-1,1.3c-0.4,0.4-1,0.7-1.5,0.9C120.5,58.1,119.9,58.2,119.2,58.2z M116.2,52.4h6c0-0.6-0.2-1.1-0.5-1.5
					s-0.6-0.8-1.1-1c-0.4-0.2-0.9-0.4-1.5-0.4c-0.5,0-1,0.1-1.4,0.4c-0.4,0.2-0.8,0.6-1.1,1C116.4,51.4,116.2,51.9,116.2,52.4z"/>
				<path d="M129.5,58.2c-0.8,0-1.6-0.1-2.4-0.4s-1.4-0.7-1.9-1.2l0.8-1.4c0.6,0.5,1.1,0.9,1.7,1.1c0.6,0.2,1.1,0.3,1.7,0.3
					c0.6,0,1.1-0.1,1.4-0.3c0.4-0.2,0.6-0.5,0.6-1c0-0.3-0.1-0.5-0.3-0.7s-0.5-0.3-0.8-0.4c-0.4-0.1-0.8-0.2-1.3-0.4
					c-0.7-0.2-1.3-0.4-1.8-0.7c-0.5-0.2-0.8-0.5-1.1-0.9c-0.2-0.3-0.4-0.8-0.4-1.3c0-0.6,0.2-1.2,0.5-1.6c0.3-0.5,0.8-0.8,1.4-1
					s1.3-0.4,2-0.4s1.4,0.1,2,0.3s1.2,0.6,1.6,1l-0.9,1.4c-0.4-0.4-0.9-0.7-1.4-0.9s-1-0.3-1.5-0.3c-0.3,0-0.6,0-0.9,0.1
					c-0.3,0.1-0.5,0.2-0.7,0.4s-0.3,0.4-0.3,0.8c0,0.3,0.1,0.5,0.2,0.6c0.2,0.2,0.4,0.3,0.7,0.4s0.7,0.2,1.1,0.4
					c0.8,0.2,1.4,0.4,2,0.7c0.5,0.2,1,0.5,1.3,0.8s0.4,0.8,0.4,1.4c0,1-0.4,1.7-1.1,2.2C131.6,58,130.7,58.2,129.5,58.2z"/>
				<path d="M143.6,44.6h2l5.2,13.5h-2.2l-1.3-3.7h-5.4l-1.3,3.7h-2.3L143.6,44.6z M146.7,52.8l-2.1-5.9l-2.1,5.9H146.7z"/>
				<path d="M161.1,58.1H159v-5.5c0-0.9-0.1-1.6-0.4-2c-0.3-0.4-0.7-0.6-1.3-0.6c-0.4,0-0.8,0.1-1.2,0.3s-0.8,0.5-1.1,0.8
					s-0.5,0.7-0.7,1.2v5.9h-2.1v-9.9h1.9v2c0.3-0.4,0.6-0.8,1-1.1s0.9-0.6,1.4-0.7s1.1-0.3,1.7-0.3c0.6,0,1.1,0.1,1.5,0.3
					s0.7,0.5,0.9,0.9s0.4,0.8,0.5,1.3s0.1,1,0.1,1.5L161.1,58.1L161.1,58.1z"/>
				<path d="M162.8,55.2c0-0.6,0.2-1.2,0.5-1.6s0.9-0.8,1.5-1.1s1.4-0.4,2.2-0.4c0.4,0,0.9,0,1.4,0.1s0.9,0.2,1.2,0.3v-0.6
					c0-0.7-0.2-1.2-0.6-1.6s-1-0.6-1.8-0.6c-0.6,0-1.1,0.1-1.6,0.3s-1,0.5-1.6,0.8l-0.7-1.4c0.7-0.4,1.3-0.8,2-1s1.4-0.3,2.1-0.3
					c1.3,0,2.4,0.3,3.1,1c0.8,0.7,1.1,1.7,1.1,3v3.7c0,0.2,0,0.4,0.1,0.5s0.2,0.2,0.4,0.2v1.7c-0.2,0-0.4,0.1-0.5,0.1
					c-0.2,0-0.3,0-0.4,0c-0.4,0-0.8-0.1-1-0.3s-0.4-0.5-0.4-0.8l-0.1-0.6c-0.4,0.6-1,1-1.7,1.3s-1.3,0.5-2,0.5s-1.2-0.1-1.8-0.4
					s-0.9-0.6-1.2-1.1C163,56.3,162.8,55.8,162.8,55.2z M169.2,55.8c0.2-0.2,0.3-0.3,0.4-0.5s0.1-0.3,0.1-0.4v-1.1
					c-0.4-0.1-0.7-0.2-1.1-0.3s-0.8-0.1-1.2-0.1c-0.8,0-1.4,0.2-1.9,0.4c-0.5,0.3-0.7,0.7-0.7,1.2c0,0.3,0.1,0.6,0.2,0.8
					c0.2,0.3,0.4,0.5,0.7,0.6c0.3,0.2,0.7,0.2,1.1,0.2c0.5,0,0.9-0.1,1.3-0.3S168.9,56.1,169.2,55.8z"/>
				<path d="M174.3,44.2h2.1v11c0,0.5,0.1,0.8,0.2,1s0.3,0.2,0.6,0.2s0.5,0,0.7-0.1s0.4-0.1,0.6-0.2l0.3,1.7
					c-0.3,0.1-0.7,0.2-1.1,0.3c-0.4,0.1-0.8,0.1-1.1,0.1c-0.7,0-1.3-0.2-1.7-0.6s-0.6-1-0.6-1.7V44.2L174.3,44.2z"/>
				<path d="M179.9,60.4c0.2,0,0.4,0.1,0.6,0.1c0.2,0,0.3,0,0.4,0c0.2,0,0.4-0.1,0.6-0.2c0.2-0.1,0.3-0.4,0.5-0.7
					c0.2-0.4,0.4-0.9,0.6-1.5l-4.1-9.9h2.2l3,7.8l2.7-7.8h2l-4.5,12.2c-0.1,0.4-0.3,0.7-0.6,1s-0.6,0.6-1,0.7s-0.9,0.3-1.4,0.3
					c-0.2,0-0.3,0-0.5,0s-0.3-0.1-0.6-0.1L179.9,60.4L179.9,60.4z"/>
				<path d="M193.2,58.2c-0.8,0-1.6-0.1-2.4-0.4c-0.7-0.3-1.4-0.7-1.9-1.2l0.8-1.4c0.6,0.5,1.1,0.9,1.7,1.1c0.6,0.2,1.1,0.3,1.7,0.3
					c0.6,0,1.1-0.1,1.4-0.3s0.6-0.5,0.6-1c0-0.3-0.1-0.5-0.3-0.7s-0.5-0.3-0.8-0.4c-0.4-0.1-0.8-0.2-1.3-0.4
					c-0.7-0.2-1.3-0.4-1.8-0.7c-0.5-0.2-0.8-0.5-1.1-0.9c-0.2-0.3-0.4-0.8-0.4-1.3c0-0.6,0.2-1.2,0.5-1.6c0.3-0.5,0.8-0.8,1.4-1
					s1.3-0.4,2-0.4s1.4,0.1,2,0.3s1.2,0.6,1.6,1l-0.9,1.4c-0.4-0.4-0.9-0.7-1.4-0.9s-1-0.3-1.5-0.3c-0.3,0-0.6,0-0.9,0.1
					s-0.5,0.2-0.7,0.4s-0.3,0.4-0.3,0.8c0,0.3,0.1,0.5,0.2,0.6s0.4,0.3,0.7,0.4s0.7,0.2,1.1,0.4c0.8,0.2,1.4,0.4,2,0.7
					c0.5,0.2,1,0.5,1.3,0.8s0.4,0.8,0.4,1.4c0,1-0.4,1.7-1.1,2.2C195.4,58,194.4,58.2,193.2,58.2z"/>
				<path d="M204.5,57.6c-0.2,0.1-0.4,0.2-0.7,0.3s-0.6,0.2-0.9,0.3c-0.3,0.1-0.7,0.1-1,0.1c-0.4,0-0.8-0.1-1.2-0.2
					c-0.4-0.2-0.7-0.4-0.9-0.7s-0.3-0.8-0.3-1.3v-6.2h-1.3v-1.6h1.3V45h2.1v3.3h2.2v1.6h-2.2v5.5c0,0.3,0.1,0.6,0.3,0.8
					s0.4,0.2,0.7,0.2s0.6-0.1,0.8-0.2c0.3-0.1,0.5-0.2,0.6-0.2L204.5,57.6z"/>
			</g>
			
				<rect id="column_00000019656935348952073360000012834135767918299810_" x="-0.1" y="105.8" class="st9" width="267.1" height="579.2"/>
		</g>
		<g id="sa" class="st10">
			<g id="text_00000174564738127953459280000000307369885332972717_" class="st11">
				<path d="M293,47.7c-0.1-0.1-0.3-0.3-0.6-0.4c-0.2-0.2-0.5-0.3-0.9-0.4c-0.3-0.1-0.7-0.3-1.1-0.3c-0.4-0.1-0.8-0.1-1.2-0.1
					c-0.9,0-1.5,0.2-2,0.5s-0.6,0.8-0.6,1.4c0,0.4,0.1,0.8,0.4,1s0.6,0.5,1.1,0.6s1.1,0.3,1.9,0.5c0.9,0.2,1.7,0.5,2.4,0.8
					c0.7,0.3,1.2,0.7,1.5,1.2c0.4,0.5,0.5,1.1,0.5,2c0,0.7-0.1,1.3-0.4,1.8s-0.6,0.9-1.1,1.2s-1,0.5-1.6,0.7
					c-0.6,0.1-1.2,0.2-1.9,0.2c-0.7,0-1.3-0.1-2-0.2s-1.3-0.3-1.9-0.6s-1.2-0.6-1.7-1l1-1.8c0.2,0.2,0.4,0.3,0.7,0.5
					s0.7,0.4,1.1,0.6s0.9,0.3,1.3,0.4c0.5,0.1,1,0.2,1.5,0.2c0.8,0,1.5-0.1,1.9-0.4s0.7-0.7,0.7-1.3c0-0.5-0.1-0.8-0.4-1.1
					s-0.7-0.5-1.3-0.7c-0.6-0.2-1.2-0.4-2-0.6c-0.9-0.2-1.6-0.5-2.2-0.8s-1-0.7-1.3-1.1s-0.4-1-0.4-1.7c0-0.9,0.2-1.6,0.6-2.2
					s1-1.1,1.8-1.4c0.7-0.3,1.6-0.5,2.5-0.5c0.6,0,1.2,0.1,1.7,0.2s1.1,0.3,1.5,0.5c0.5,0.2,0.9,0.5,1.3,0.8L293,47.7z"/>
			</g>
			
				<rect id="column_00000060753126442441401160000015392577541956750472_" x="267" y="105.8" class="st12" width="218.3" height="579.2"/>
		</g>
	</g>
</g>
<g id="Layer_2_00000121259085747315398780000001826052465854652545_">
	<rect x="259" y="-45" class="st13" width="805" height="900"/>
</g>
</svg>
